<svg xmlns="http://www.w3.org/2000/svg" width="912" height="706" viewBox="0 0 912 706"><title>アイデア（候補の詳細）</title><rect x="0" y="0" width="912" height="706" fill="#ffffff"/><rect x="68.0" y="26.0" width="314.0" height="654.0" fill="#ffffff" rx="26.0" stroke="#c3cad4" stroke-width="1.6"/><defs><clipPath id="s0"><rect x="75.0" y="33.0" width="300.0" height="640.0" rx="19.0"/></clipPath></defs><g clip-path="url(#s0)"><rect x="75.0" y="33.0" width="300.0" height="640.0" fill="#ffffff"/><text x="87.0" y="48.0" font-size="9.5" fill="#6b7280" font-family="-apple-system, BlinkMacSystemFont, 'Hiragino Sans', 'Noto Sans JP', 'Yu Gothic', 'Segoe UI', sans-serif" font-weight="700">9:41</text><rect x="331.0" y="44.0" width="10.0" height="6.2" fill="#c3cad4" rx="1.5"/><rect x="345.0" y="43.0" width="10.0" height="7.5" fill="#c3cad4" rx="1.5"/><rect x="359.0" y="41.0" width="10.0" height="10.0" fill="#c3cad4" rx="1.5"/><rect x="75.0" y="55.0" width="300.0" height="46.0" fill="#f4f5f7"/><line x1="75.0" y1="101.0" x2="375.0" y2="101.0" stroke="#e3e7ed" stroke-width="1.1" stroke-linecap="butt"/><path d="M97.50,71.75 L91.25,78.00 L97.50,84.25" fill="none" stroke="#1f2328" stroke-width="1.5833333333333333" stroke-linecap="round" stroke-linejoin="round"/><circle cx="346.7" cy="78.0" r="1.2" fill="#1f2328" stroke="#1f2328" stroke-width="0.95"/><circle cx="352.0" cy="78.0" r="1.2" fill="#1f2328" stroke="#1f2328" stroke-width="0.95"/><circle cx="357.3" cy="78.0" r="1.2" fill="#1f2328" stroke="#1f2328" stroke-width="0.95"/><path d="M315.33,84.67 L316.67,80.83 L325.33,72.17 L327.83,74.67 L319.17,83.33 Z" fill="none" stroke="#1f2328" stroke-width="1.5833333333333333" stroke-linecap="round" stroke-linejoin="round"/><line x1="323.7" y1="73.8" x2="326.2" y2="76.3" stroke="#1f2328" stroke-width="1.5833333333333333" stroke-linecap="round"/><text x="131.0" y="83.0" font-size="13.5" fill="#1f2328" font-family="-apple-system, BlinkMacSystemFont, 'Hiragino Sans', 'Noto Sans JP', 'Yu Gothic', 'Segoe UI', sans-serif" font-weight="700">アイデア</text><defs><clipPath id="c1"><rect x="75.0" y="101.0" width="300.0" height="572.0" rx="0.0"/></clipPath></defs><g clip-path="url(#c1)"><rect x="89.0" y="111.0" width="272.0" height="110.0" fill="#f4f5f7" rx="6.0" stroke="#c3cad4" stroke-width="1.2"/><line x1="89.0" y1="111.0" x2="361.0" y2="221.0" stroke="#c3cad4" stroke-width="1.0" stroke-linecap="butt" opacity="0.75"/><line x1="361.0" y1="111.0" x2="89.0" y2="221.0" stroke="#c3cad4" stroke-width="1.0" stroke-linecap="butt" opacity="0.75"/><rect x="190.5" y="156.0" width="69.0" height="20.0" fill="#ffffff" rx="10.0"/><text x="225.0" y="168.0" font-size="11" fill="#6b7280" font-family="-apple-system, BlinkMacSystemFont, 'Hiragino Sans', 'Noto Sans JP', 'Yu Gothic', 'Segoe UI', sans-serif" font-weight="600" text-anchor="middle">候補の写真</text><text x="89.0" y="246.9" font-size="17.0" fill="#1f2328" font-family="-apple-system, BlinkMacSystemFont, 'Hiragino Sans', 'Noto Sans JP', 'Yu Gothic', 'Segoe UI', sans-serif" font-weight="700">候補タイトル</text><text x="89.0" y="277.6" font-size="10.5" fill="#1f2328" font-family="-apple-system, BlinkMacSystemFont, 'Hiragino Sans', 'Noto Sans JP', 'Yu Gothic', 'Segoe UI', sans-serif" font-weight="400">目安 5,000円</text><rect x="89.0" y="296.5" width="272.0" height="70.5" fill="#ffffff" rx="10.0" stroke="#c3cad4" stroke-width="1.2"/><line x1="107.1" y1="333.6" x2="110.9" y2="329.9" stroke="#1f2328" stroke-width="1.2666666666666666" stroke-linecap="round"/><path d="M108.58,332.92 L108.88,333.45 L109.06,334.03 L109.13,334.63 L109.08,335.24 L108.91,335.82 L108.63,336.36 L108.25,336.83 L107.79,337.22 L107.25,337.51 L106.67,337.69 L106.07,337.75 L105.46,337.69 L104.88,337.51 L104.35,337.22 L103.88,336.83 L103.50,336.36 L103.22,335.82 L103.05,335.24 L103.00,334.63 L103.07,334.03 L103.26,333.45 L103.55,332.92" fill="none" stroke="#1f2328" stroke-width="1.2666666666666666" stroke-linecap="round" stroke-linejoin="round"/><path d="M109.42,330.58 L109.12,330.05 L108.94,329.47 L108.87,328.87 L108.92,328.26 L109.09,327.68 L109.37,327.14 L109.75,326.67 L110.21,326.28 L110.75,325.99 L111.33,325.81 L111.93,325.75 L112.54,325.81 L113.12,325.99 L113.65,326.28 L114.12,326.67 L114.50,327.14 L114.78,327.68 L114.95,328.26 L115.00,328.87 L114.93,329.47 L114.74,330.05 L114.45,330.58" fill="none" stroke="#1f2328" stroke-width="1.2666666666666666" stroke-linecap="round" stroke-linejoin="round"/><text x="127.0" y="318.8" font-size="12.5" fill="#1f2328" font-family="-apple-system, BlinkMacSystemFont, 'Hiragino Sans', 'Noto Sans JP', 'Yu Gothic', 'Segoe UI', sans-serif" font-weight="400">example.com</text><text x="127.0" y="348.1" font-size="10.5" fill="#1f2328" font-family="-apple-system, BlinkMacSystemFont, 'Hiragino Sans', 'Noto Sans JP', 'Yu Gothic', 'Segoe UI', sans-serif" font-weight="400">https://example.com/items/1234</text><text x="335.0" y="332.5" font-size="12.5" fill="#1f2328" font-family="-apple-system, BlinkMacSystemFont, 'Hiragino Sans', 'Noto Sans JP', 'Yu Gothic', 'Segoe UI', sans-serif" font-weight="400">↗</text><text x="89.0" y="388.0" font-size="11.0" fill="#6b7280" font-family="-apple-system, BlinkMacSystemFont, 'Hiragino Sans', 'Noto Sans JP', 'Yu Gothic', 'Segoe UI', sans-serif" font-weight="600">メモ</text><rect x="89.0" y="407.0" width="272.0" height="7.0" fill="#e8eaef" rx="3.5"/><rect x="89.0" y="421.0" width="163.2" height="7.0" fill="#e8eaef" rx="3.5"/><text x="89.0" y="449.0" font-size="11.0" fill="#6b7280" font-family="-apple-system, BlinkMacSystemFont, 'Hiragino Sans', 'Noto Sans JP', 'Yu Gothic', 'Segoe UI', sans-serif" font-weight="600">紐づいている相手</text><rect x="89.0" y="468.0" width="49.7" height="26.0" fill="#ffffff" rx="13.0" stroke="#c3cad4" stroke-width="1.2"/><text x="113.9" y="483.0" font-size="11" fill="#6b7280" font-family="-apple-system, BlinkMacSystemFont, 'Hiragino Sans', 'Noto Sans JP', 'Yu Gothic', 'Segoe UI', sans-serif" font-weight="600" text-anchor="middle">相手A</text><rect x="144.7" y="468.0" width="49.7" height="26.0" fill="#ffffff" rx="13.0" stroke="#c3cad4" stroke-width="1.2"/><text x="169.6" y="483.0" font-size="11" fill="#6b7280" font-family="-apple-system, BlinkMacSystemFont, 'Hiragino Sans', 'Noto Sans JP', 'Yu Gothic', 'Segoe UI', sans-serif" font-weight="600" text-anchor="middle">相手B</text></g><line x1="85.0" y1="668.0" x2="365.0" y2="668.0" stroke="#c3cad4" stroke-width="1.2" stroke-linecap="butt" stroke-dasharray="3 4"/></g><path d="M335.0,78.0 H390.0 V78.0 H392.0" fill="none" stroke="#2b7a6f" stroke-width="1.0" stroke-linecap="round" stroke-linejoin="round"/><circle cx="335.0" cy="78.0" r="2.0" fill="#2b7a6f"/><rect x="392.5" y="68.5" width="19.0" height="19.0" fill="#2b7a6f" rx="5.0"/><text x="402.0" y="81.8" font-size="11" fill="#ffffff" font-family="-apple-system, BlinkMacSystemFont, 'Hiragino Sans', 'Noto Sans JP', 'Yu Gothic', 'Segoe UI', sans-serif" font-weight="700" text-anchor="middle">1</text><path d="M365.0,78.0 H390.0 V101.0 H392.0" fill="none" stroke="#2b7a6f" stroke-width="1.0" stroke-linecap="round" stroke-linejoin="round"/><circle cx="365.0" cy="78.0" r="2.0" fill="#2b7a6f"/><rect x="392.5" y="91.5" width="19.0" height="19.0" fill="#2b7a6f" rx="5.0"/><text x="402.0" y="104.8" font-size="11" fill="#ffffff" font-family="-apple-system, BlinkMacSystemFont, 'Hiragino Sans', 'Noto Sans JP', 'Yu Gothic', 'Segoe UI', sans-serif" font-weight="700" text-anchor="middle">2</text><path d="M361.0,331.8 H390.0 V331.8 H392.0" fill="none" stroke="#2b7a6f" stroke-width="1.0" stroke-linecap="round" stroke-linejoin="round"/><circle cx="361.0" cy="331.8" r="2.0" fill="#2b7a6f"/><rect x="392.5" y="322.2" width="19.0" height="19.0" fill="#2b7a6f" rx="5.0"/><text x="402.0" y="335.6" font-size="11" fill="#ffffff" font-family="-apple-system, BlinkMacSystemFont, 'Hiragino Sans', 'Noto Sans JP', 'Yu Gothic', 'Segoe UI', sans-serif" font-weight="700" text-anchor="middle">5</text><path d="M361.0,481.0 H390.0 V481.0 H392.0" fill="none" stroke="#2b7a6f" stroke-width="1.0" stroke-linecap="round" stroke-linejoin="round"/><circle cx="361.0" cy="481.0" r="2.0" fill="#2b7a6f"/><rect x="392.5" y="471.5" width="19.0" height="19.0" fill="#2b7a6f" rx="5.0"/><text x="402.0" y="484.8" font-size="11" fill="#ffffff" font-family="-apple-system, BlinkMacSystemFont, 'Hiragino Sans', 'Noto Sans JP', 'Yu Gothic', 'Segoe UI', sans-serif" font-weight="700" text-anchor="middle">7</text><path d="M89.0,166.0 H60.0 V166.0 H58.0" fill="none" stroke="#d1483b" stroke-width="1.0" stroke-linecap="round" stroke-linejoin="round"/><circle cx="89.0" cy="166.0" r="2.0" fill="#d1483b"/><circle cx="48.0" cy="166.0" r="9.5" fill="#d1483b"/><text x="48.0" y="169.8" font-size="11" fill="#ffffff" font-family="-apple-system, BlinkMacSystemFont, 'Hiragino Sans', 'Noto Sans JP', 'Yu Gothic', 'Segoe UI', sans-serif" font-weight="700" text-anchor="middle">3</text><path d="M89.0,276.8 H60.0 V276.8 H58.0" fill="none" stroke="#d1483b" stroke-width="1.0" stroke-linecap="round" stroke-linejoin="round"/><circle cx="89.0" cy="276.8" r="2.0" fill="#d1483b"/><circle cx="48.0" cy="276.8" r="9.5" fill="#d1483b"/><text x="48.0" y="280.6" font-size="11" fill="#ffffff" font-family="-apple-system, BlinkMacSystemFont, 'Hiragino Sans', 'Noto Sans JP', 'Yu Gothic', 'Segoe UI', sans-serif" font-weight="700" text-anchor="middle">4</text><path d="M89.0,417.5 H60.0 V417.5 H58.0" fill="none" stroke="#d1483b" stroke-width="1.0" stroke-linecap="round" stroke-linejoin="round"/><circle cx="89.0" cy="417.5" r="2.0" fill="#d1483b"/><circle cx="48.0" cy="417.5" r="9.5" fill="#d1483b"/><text x="48.0" y="421.3" font-size="11" fill="#ffffff" font-family="-apple-system, BlinkMacSystemFont, 'Hiragino Sans', 'Noto Sans JP', 'Yu Gothic', 'Segoe UI', sans-serif" font-weight="700" text-anchor="middle">6</text><line x1="436.0" y1="353.0" x2="474.0" y2="353.0" stroke="#9aa3af" stroke-width="1.6" stroke-linecap="round"/><path d="M468.0,348.0 l6,5 l-6,5" fill="none" stroke="#9aa3af" stroke-width="1.6" stroke-linecap="round" stroke-linejoin="round"/><rect x="530.0" y="26.0" width="314.0" height="654.0" fill="#ffffff" rx="26.0" stroke="#c3cad4" stroke-width="1.6"/><defs><clipPath id="s100"><rect x="537.0" y="33.0" width="300.0" height="640.0" rx="19.0"/></clipPath></defs><g clip-path="url(#s100)"><rect x="537.0" y="33.0" width="300.0" height="640.0" fill="#ffffff"/><text x="549.0" y="48.0" font-size="9.5" fill="#6b7280" font-family="-apple-system, BlinkMacSystemFont, 'Hiragino Sans', 'Noto Sans JP', 'Yu Gothic', 'Segoe UI', sans-serif" font-weight="700">9:41</text><rect x="793.0" y="44.0" width="10.0" height="6.2" fill="#c3cad4" rx="1.5"/><rect x="807.0" y="43.0" width="10.0" height="7.5" fill="#c3cad4" rx="1.5"/><rect x="821.0" y="41.0" width="10.0" height="10.0" fill="#c3cad4" rx="1.5"/><rect x="537.0" y="55.0" width="300.0" height="46.0" fill="#f4f5f7"/><line x1="537.0" y1="101.0" x2="837.0" y2="101.0" stroke="#e3e7ed" stroke-width="1.1" stroke-linecap="butt"/><path d="M559.50,71.75 L553.25,78.00 L559.50,84.25" fill="none" stroke="#1f2328" stroke-width="1.5833333333333333" stroke-linecap="round" stroke-linejoin="round"/><text x="593.0" y="83.0" font-size="13.5" fill="#1f2328" font-family="-apple-system, BlinkMacSystemFont, 'Hiragino Sans', 'Noto Sans JP', 'Yu Gothic', 'Segoe UI', sans-serif" font-weight="700">アイデア</text><defs><clipPath id="c101"><rect x="537.0" y="101.0" width="300.0" height="572.0" rx="0.0"/></clipPath></defs><g clip-path="url(#c101)"></g><rect x="537.0" y="33.0" width="300.0" height="640.0" fill="#0b1020" opacity="0.28"/><rect x="537.0" y="537.0" width="300.0" height="148.0" fill="#ffffff" rx="14.0" stroke="#c3cad4" stroke-width="1.2"/><rect x="669.0" y="546.0" width="36.0" height="4.0" fill="#e8eaef" rx="2.0"/><path d="M555.75,588.33 L555.75,574.40 L561.62,574.40 L563.63,576.97 L572.25,576.97 L572.25,588.33 Z" fill="none" stroke="#6b7280" stroke-width="1.7416666666666665" stroke-linecap="round" stroke-linejoin="round"/><text x="587.0" y="583.8" font-size="12.5" fill="#1f2328" font-family="-apple-system, BlinkMacSystemFont, 'Hiragino Sans', 'Noto Sans JP', 'Yu Gothic', 'Segoe UI', sans-serif" font-weight="600">アーカイブする</text><line x1="556.5" y1="619.7" x2="571.5" y2="619.7" stroke="#6b7280" stroke-width="1.7416666666666665" stroke-linecap="round"/><path d="M558.87,619.68 L559.78,632.79 L568.22,632.79 L569.13,619.68" fill="none" stroke="#6b7280" stroke-width="1.7416666666666665" stroke-linecap="round" stroke-linejoin="round"/><path d="M561.62,619.68 L561.62,617.30 L566.38,617.30 L566.38,619.68" fill="none" stroke="#6b7280" stroke-width="1.7416666666666665" stroke-linecap="round" stroke-linejoin="round"/><line x1="562.5" y1="622.7" x2="562.8" y2="629.6" stroke="#6b7280" stroke-width="1.7416666666666665" stroke-linecap="round"/><line x1="565.5" y1="622.7" x2="565.2" y2="629.6" stroke="#6b7280" stroke-width="1.7416666666666665" stroke-linecap="round"/><text x="587.0" y="627.8" font-size="12.5" fill="#1f2328" font-family="-apple-system, BlinkMacSystemFont, 'Hiragino Sans', 'Noto Sans JP', 'Yu Gothic', 'Segoe UI', sans-serif" font-weight="600">削除する</text></g><path d="M823.0,581.0 H852.0 V581.0 H854.0" fill="none" stroke="#d1483b" stroke-width="1.0" stroke-linecap="round" stroke-linejoin="round"/><circle cx="823.0" cy="581.0" r="2.0" fill="#d1483b"/><circle cx="864.0" cy="581.0" r="9.5" fill="#d1483b"/><text x="864.0" y="584.8" font-size="11" fill="#ffffff" font-family="-apple-system, BlinkMacSystemFont, 'Hiragino Sans', 'Noto Sans JP', 'Yu Gothic', 'Segoe UI', sans-serif" font-weight="700" text-anchor="middle">8</text><path d="M823.0,625.0 H852.0 V625.0 H854.0" fill="none" stroke="#2b7a6f" stroke-width="1.0" stroke-linecap="round" stroke-linejoin="round"/><circle cx="823.0" cy="625.0" r="2.0" fill="#2b7a6f"/><rect x="854.5" y="615.5" width="19.0" height="19.0" fill="#2b7a6f" rx="5.0"/><text x="864.0" y="628.8" font-size="11" fill="#ffffff" font-family="-apple-system, BlinkMacSystemFont, 'Hiragino Sans', 'Noto Sans JP', 'Yu Gothic', 'Segoe UI', sans-serif" font-weight="700" text-anchor="middle">9</text></svg>