<svg xmlns="http://www.w3.org/2000/svg" width="880" height="782" viewBox="0 0 880 782"><title>記録する（支払い／集金の登録）</title><rect x="0" y="0" width="880" height="782" fill="#ffffff"/><rect x="68.0" y="62.0" width="314.0" height="654.0" fill="#ffffff" rx="26.0" stroke="#c3cad4" stroke-width="1.6"/><defs><clipPath id="s0"><rect x="75.0" y="69.0" width="300.0" height="640.0" rx="19.0"/></clipPath></defs><g clip-path="url(#s0)"><rect x="75.0" y="69.0" width="300.0" height="640.0" fill="#ffffff"/><text x="87.0" y="84.0" font-size="9.5" fill="#6b7280" font-family="-apple-system, BlinkMacSystemFont, 'Hiragino Sans', 'Noto Sans JP', 'Yu Gothic', 'Segoe UI', sans-serif" font-weight="700">9:41</text><rect x="331.0" y="80.0" width="10.0" height="6.2" fill="#c3cad4" rx="1.5"/><rect x="345.0" y="79.0" width="10.0" height="7.5" fill="#c3cad4" rx="1.5"/><rect x="359.0" y="77.0" width="10.0" height="10.0" fill="#c3cad4" rx="1.5"/><defs><clipPath id="c1"><rect x="75.0" y="91.0" width="300.0" height="618.0" rx="0.0"/></clipPath></defs><g clip-path="url(#c1)"><circle cx="100.0" cy="116.0" r="8.1" fill="none" stroke="#1f2328" stroke-width="1.7416666666666665"/><path d="M97.26,112.51 L97.45,112.00 L97.73,111.53 L98.11,111.13 L98.55,110.81 L99.04,110.57 L99.58,110.44 L100.12,110.41 L100.67,110.49 L101.18,110.67 L101.66,110.94 L102.07,111.30 L102.41,111.74 L102.65,112.23 L102.80,112.76" fill="none" stroke="#1f2328" stroke-width="1.7416666666666665" stroke-linecap="round" stroke-linejoin="round"/><line x1="102.8" y1="112.8" x2="100.0" y2="118.0" stroke="#1f2328" stroke-width="1.7416666666666665" stroke-linecap="round"/><circle cx="100.0" cy="120.8" r="0.9" fill="#1f2328" stroke="#1f2328" stroke-width="1.045"/><text x="165.0" y="117.9" font-size="17.0" fill="#1f2328" font-family="-apple-system, BlinkMacSystemFont, 'Hiragino Sans', 'Noto Sans JP', 'Yu Gothic', 'Segoe UI', sans-serif" font-weight="700">記録する</text><rect x="241.0" y="101.0" width="120.0" height="30.0" fill="#f4f5f7" rx="8.0" stroke="#c3cad4" stroke-width="1.1"/><rect x="243.0" y="103.0" width="56.0" height="26.0" fill="#ffffff" rx="6.0" stroke="#c3cad4" stroke-width="1.0"/><text x="271.0" y="118.4" font-size="11.5" fill="#1f2328" font-family="-apple-system, BlinkMacSystemFont, 'Hiragino Sans', 'Noto Sans JP', 'Yu Gothic', 'Segoe UI', sans-serif" font-weight="600" text-anchor="middle">支払</text><text x="331.0" y="118.4" font-size="11.5" fill="#6b7280" font-family="-apple-system, BlinkMacSystemFont, 'Hiragino Sans', 'Noto Sans JP', 'Yu Gothic', 'Segoe UI', sans-serif" font-weight="400" text-anchor="middle">集金</text><text x="89.0" y="154.9" font-size="14.5" fill="#1f2328" font-family="-apple-system, BlinkMacSystemFont, 'Hiragino Sans', 'Noto Sans JP', 'Yu Gothic', 'Segoe UI', sans-serif" font-weight="700">誰が代わりに支払った？</text><text x="89.0" y="184.6" font-size="10.5" fill="#6b7280" font-family="-apple-system, BlinkMacSystemFont, 'Hiragino Sans', 'Noto Sans JP', 'Yu Gothic', 'Segoe UI', sans-serif" font-weight="400">1人のメンバーが仮払い</text><defs><clipPath id="h2"><rect x="89.0" y="201.5" width="272.0" height="64.0" rx="0.0"/></clipPath></defs><g clip-path="url(#h2)"><circle cx="110.0" cy="224.5" r="21.0" fill="#f2325c"/><circle cx="110.0" cy="217.8" r="2.6" fill="none" stroke="#ffffff" stroke-width="1.3458333333333334"/><path d="M104.90,226.88 L104.99,225.94 L105.24,225.03 L105.66,224.19 L106.23,223.44 L106.93,222.81 L107.73,222.31 L108.60,221.97 L109.53,221.80 L110.47,221.80 L111.40,221.97 L112.27,222.31 L113.07,222.81 L113.77,223.44 L114.34,224.19 L114.76,225.03 L115.01,225.94 L115.10,226.88" fill="none" stroke="#ffffff" stroke-width="1.3458333333333334" stroke-linecap="round" stroke-linejoin="round"/><text x="110.0" y="237.5" font-size="8.5" fill="#ffffff" font-family="-apple-system, BlinkMacSystemFont, 'Hiragino Sans', 'Noto Sans JP', 'Yu Gothic', 'Segoe UI', sans-serif" font-weight="600" text-anchor="middle">優希</text><circle cx="160.0" cy="224.5" r="21.0" fill="#9aa3af"/><circle cx="160.0" cy="217.8" r="2.6" fill="none" stroke="#ffffff" stroke-width="1.3458333333333334"/><path d="M154.90,226.88 L154.99,225.94 L155.24,225.03 L155.66,224.19 L156.23,223.44 L156.93,222.81 L157.73,222.31 L158.60,221.97 L159.53,221.80 L160.47,221.80 L161.40,221.97 L162.27,222.31 L163.07,222.81 L163.77,223.44 L164.34,224.19 L164.76,225.03 L165.01,225.94 L165.10,226.88" fill="none" stroke="#ffffff" stroke-width="1.3458333333333334" stroke-linecap="round" stroke-linejoin="round"/><text x="160.0" y="237.5" font-size="8.5" fill="#ffffff" font-family="-apple-system, BlinkMacSystemFont, 'Hiragino Sans', 'Noto Sans JP', 'Yu Gothic', 'Segoe UI', sans-serif" font-weight="600" text-anchor="middle">ゆーり</text><circle cx="210.0" cy="224.5" r="21.0" fill="#9aa3af"/><circle cx="210.0" cy="217.8" r="2.6" fill="none" stroke="#ffffff" stroke-width="1.3458333333333334"/><path d="M204.90,226.88 L204.99,225.94 L205.24,225.03 L205.66,224.19 L206.23,223.44 L206.93,222.81 L207.73,222.31 L208.60,221.97 L209.53,221.80 L210.47,221.80 L211.40,221.97 L212.27,222.31 L213.07,222.81 L213.77,223.44 L214.34,224.19 L214.76,225.03 L215.01,225.94 L215.10,226.88" fill="none" stroke="#ffffff" stroke-width="1.3458333333333334" stroke-linecap="round" stroke-linejoin="round"/><text x="210.0" y="237.5" font-size="8.5" fill="#ffffff" font-family="-apple-system, BlinkMacSystemFont, 'Hiragino Sans', 'Noto Sans JP', 'Yu Gothic', 'Segoe UI', sans-serif" font-weight="600" text-anchor="middle">たけこ</text></g><text x="89.0" y="296.9" font-size="14.5" fill="#1f2328" font-family="-apple-system, BlinkMacSystemFont, 'Hiragino Sans', 'Noto Sans JP', 'Yu Gothic', 'Segoe UI', sans-serif" font-weight="700">割り勘の対象は？</text><rect x="233.0" y="275.5" width="128.0" height="40.0" fill="#ffffff" rx="8.0" stroke="#4A3986" stroke-width="1.4"/><rect x="250.5" y="290.2" width="12.0" height="10.6" fill="none" rx="1.1" stroke="#4A3986" stroke-width="1.3458333333333334"/><line x1="250.5" y1="293.7" x2="262.5" y2="293.7" stroke="#4A3986" stroke-width="1.3458333333333334" stroke-linecap="round"/><line x1="250.5" y1="297.3" x2="262.5" y2="297.3" stroke="#4A3986" stroke-width="1.3458333333333334" stroke-linecap="round"/><line x1="256.5" y1="290.2" x2="256.5" y2="300.8" stroke="#4A3986" stroke-width="1.3458333333333334" stroke-linecap="round"/><text x="271.0" y="300.0" font-size="12.5" fill="#4A3986" font-family="-apple-system, BlinkMacSystemFont, 'Hiragino Sans', 'Noto Sans JP', 'Yu Gothic', 'Segoe UI', sans-serif" font-weight="600">明細で分ける</text><text x="89.0" y="336.1" font-size="10.5" fill="#6b7280" font-family="-apple-system, BlinkMacSystemFont, 'Hiragino Sans', 'Noto Sans JP', 'Yu Gothic', 'Segoe UI', sans-serif" font-weight="400">全員で割り勘</text><text x="89.0" y="363.6" font-size="10.5" fill="#6b7280" font-family="-apple-system, BlinkMacSystemFont, 'Hiragino Sans', 'Noto Sans JP', 'Yu Gothic', 'Segoe UI', sans-serif" font-weight="400">立て替えた人も割り勘対象の場合は含めてください。</text><defs><clipPath id="h3"><rect x="89.0" y="380.5" width="272.0" height="64.0" rx="0.0"/></clipPath></defs><g clip-path="url(#h3)"><circle cx="110.0" cy="403.5" r="21.0" fill="#f2325c"/><circle cx="110.0" cy="396.8" r="2.6" fill="none" stroke="#ffffff" stroke-width="1.3458333333333334"/><path d="M104.90,405.88 L104.99,404.94 L105.24,404.03 L105.66,403.19 L106.23,402.44 L106.93,401.81 L107.73,401.31 L108.60,400.97 L109.53,400.80 L110.47,400.80 L111.40,400.97 L112.27,401.31 L113.07,401.81 L113.77,402.44 L114.34,403.19 L114.76,404.03 L115.01,404.94 L115.10,405.88" fill="none" stroke="#ffffff" stroke-width="1.3458333333333334" stroke-linecap="round" stroke-linejoin="round"/><text x="110.0" y="416.5" font-size="8.5" fill="#ffffff" font-family="-apple-system, BlinkMacSystemFont, 'Hiragino Sans', 'Noto Sans JP', 'Yu Gothic', 'Segoe UI', sans-serif" font-weight="600" text-anchor="middle">優希</text><circle cx="160.0" cy="403.5" r="21.0" fill="#f2325c"/><circle cx="160.0" cy="396.8" r="2.6" fill="none" stroke="#ffffff" stroke-width="1.3458333333333334"/><path d="M154.90,405.88 L154.99,404.94 L155.24,404.03 L155.66,403.19 L156.23,402.44 L156.93,401.81 L157.73,401.31 L158.60,400.97 L159.53,400.80 L160.47,400.80 L161.40,400.97 L162.27,401.31 L163.07,401.81 L163.77,402.44 L164.34,403.19 L164.76,404.03 L165.01,404.94 L165.10,405.88" fill="none" stroke="#ffffff" stroke-width="1.3458333333333334" stroke-linecap="round" stroke-linejoin="round"/><text x="160.0" y="416.5" font-size="8.5" fill="#ffffff" font-family="-apple-system, BlinkMacSystemFont, 'Hiragino Sans', 'Noto Sans JP', 'Yu Gothic', 'Segoe UI', sans-serif" font-weight="600" text-anchor="middle">ゆーり</text><circle cx="210.0" cy="403.5" r="21.0" fill="#f2325c"/><circle cx="210.0" cy="396.8" r="2.6" fill="none" stroke="#ffffff" stroke-width="1.3458333333333334"/><path d="M204.90,405.88 L204.99,404.94 L205.24,404.03 L205.66,403.19 L206.23,402.44 L206.93,401.81 L207.73,401.31 L208.60,400.97 L209.53,400.80 L210.47,400.80 L211.40,400.97 L212.27,401.31 L213.07,401.81 L213.77,402.44 L214.34,403.19 L214.76,404.03 L215.01,404.94 L215.10,405.88" fill="none" stroke="#ffffff" stroke-width="1.3458333333333334" stroke-linecap="round" stroke-linejoin="round"/><text x="210.0" y="416.5" font-size="8.5" fill="#ffffff" font-family="-apple-system, BlinkMacSystemFont, 'Hiragino Sans', 'Noto Sans JP', 'Yu Gothic', 'Segoe UI', sans-serif" font-weight="600" text-anchor="middle">たけこ</text></g><text x="89.0" y="475.9" font-size="14.5" fill="#1f2328" font-family="-apple-system, BlinkMacSystemFont, 'Hiragino Sans', 'Noto Sans JP', 'Yu Gothic', 'Segoe UI', sans-serif" font-weight="700">内容は？</text><rect x="213.0" y="454.5" width="148.0" height="40.0" fill="#ffffff" rx="8.0" stroke="#4A3986" stroke-width="1.4"/><line x1="234.0" y1="477.0" x2="234.0" y2="468.5" stroke="#4A3986" stroke-width="1.3458333333333334" stroke-linecap="round"/><path d="M230.46,472.02 L234.00,468.48 L237.54,472.02" fill="none" stroke="#4A3986" stroke-width="1.3458333333333334" stroke-linecap="round" stroke-linejoin="round"/><line x1="228.7" y1="480.2" x2="239.3" y2="480.2" stroke="#4A3986" stroke-width="1.3458333333333334" stroke-linecap="round"/><text x="248.5" y="479.0" font-size="12.5" fill="#4A3986" font-family="-apple-system, BlinkMacSystemFont, 'Hiragino Sans', 'Noto Sans JP', 'Yu Gothic', 'Segoe UI', sans-serif" font-weight="600">一時記録から復元</text><text x="89.0" y="515.5" font-size="11" fill="#6b7280" font-family="-apple-system, BlinkMacSystemFont, 'Hiragino Sans', 'Noto Sans JP', 'Yu Gothic', 'Segoe UI', sans-serif" font-weight="600">日付:</text><rect x="89.0" y="522.5" width="272.0" height="38.0" fill="#f4f5f7" rx="7.0" stroke="#c3cad4" stroke-width="1.2"/><text x="100.0" y="542.3" font-size="12" fill="#1f2328" font-family="-apple-system, BlinkMacSystemFont, 'Hiragino Sans', 'Noto Sans JP', 'Yu Gothic', 'Segoe UI', sans-serif" font-weight="400">2026/08/05</text></g><line x1="85.0" y1="704.0" x2="365.0" y2="704.0" stroke="#c3cad4" stroke-width="1.2" stroke-linecap="butt" stroke-dasharray="3 4"/></g><path d="M361.0,116.0 H390.0 V116.0 H392.0" fill="none" stroke="#d1483b" stroke-width="1.0" stroke-linecap="round" stroke-linejoin="round"/><circle cx="361.0" cy="116.0" r="2.0" fill="#d1483b"/><circle cx="402.0" cy="116.0" r="9.5" fill="#d1483b"/><text x="402.0" y="119.8" font-size="11" fill="#ffffff" font-family="-apple-system, BlinkMacSystemFont, 'Hiragino Sans', 'Noto Sans JP', 'Yu Gothic', 'Segoe UI', sans-serif" font-weight="700" text-anchor="middle">2</text><path d="M361.0,295.5 H390.0 V295.5 H392.0" fill="none" stroke="#2b7a6f" stroke-width="1.0" stroke-linecap="round" stroke-linejoin="round"/><circle cx="361.0" cy="295.5" r="2.0" fill="#2b7a6f"/><rect x="392.5" y="286.0" width="19.0" height="19.0" fill="#2b7a6f" rx="5.0"/><text x="402.0" y="299.3" font-size="11" fill="#ffffff" font-family="-apple-system, BlinkMacSystemFont, 'Hiragino Sans', 'Noto Sans JP', 'Yu Gothic', 'Segoe UI', sans-serif" font-weight="700" text-anchor="middle">6</text><path d="M361.0,474.5 H390.0 V474.5 H392.0" fill="none" stroke="#2b7a6f" stroke-width="1.0" stroke-linecap="round" stroke-linejoin="round"/><circle cx="361.0" cy="474.5" r="2.0" fill="#2b7a6f"/><rect x="392.5" y="465.0" width="19.0" height="19.0" fill="#2b7a6f" rx="5.0"/><text x="402.0" y="478.3" font-size="11" fill="#ffffff" font-family="-apple-system, BlinkMacSystemFont, 'Hiragino Sans', 'Noto Sans JP', 'Yu Gothic', 'Segoe UI', sans-serif" font-weight="700" text-anchor="middle">8</text><path d="M89.0,116.0 H60.0 V116.0 H58.0" fill="none" stroke="#2b7a6f" stroke-width="1.0" stroke-linecap="round" stroke-linejoin="round"/><circle cx="89.0" cy="116.0" r="2.0" fill="#2b7a6f"/><rect x="38.5" y="106.5" width="19.0" height="19.0" fill="#2b7a6f" rx="5.0"/><text x="48.0" y="119.8" font-size="11" fill="#ffffff" font-family="-apple-system, BlinkMacSystemFont, 'Hiragino Sans', 'Noto Sans JP', 'Yu Gothic', 'Segoe UI', sans-serif" font-weight="700" text-anchor="middle">1</text><path d="M89.0,153.5 H60.0 V153.5 H58.0" fill="none" stroke="#d1483b" stroke-width="1.0" stroke-linecap="round" stroke-linejoin="round"/><circle cx="89.0" cy="153.5" r="2.0" fill="#d1483b"/><circle cx="48.0" cy="153.5" r="9.5" fill="#d1483b"/><text x="48.0" y="157.3" font-size="11" fill="#ffffff" font-family="-apple-system, BlinkMacSystemFont, 'Hiragino Sans', 'Noto Sans JP', 'Yu Gothic', 'Segoe UI', sans-serif" font-weight="700" text-anchor="middle">3</text><path d="M89.0,233.5 H60.0 V233.5 H58.0" fill="none" stroke="#d1483b" stroke-width="1.0" stroke-linecap="round" stroke-linejoin="round"/><circle cx="89.0" cy="233.5" r="2.0" fill="#d1483b"/><circle cx="48.0" cy="233.5" r="9.5" fill="#d1483b"/><text x="48.0" y="237.3" font-size="11" fill="#ffffff" font-family="-apple-system, BlinkMacSystemFont, 'Hiragino Sans', 'Noto Sans JP', 'Yu Gothic', 'Segoe UI', sans-serif" font-weight="700" text-anchor="middle">4</text><path d="M89.0,295.5 H60.0 V295.5 H58.0" fill="none" stroke="#d1483b" stroke-width="1.0" stroke-linecap="round" stroke-linejoin="round"/><circle cx="89.0" cy="295.5" r="2.0" fill="#d1483b"/><circle cx="48.0" cy="295.5" r="9.5" fill="#d1483b"/><text x="48.0" y="299.3" font-size="11" fill="#ffffff" font-family="-apple-system, BlinkMacSystemFont, 'Hiragino Sans', 'Noto Sans JP', 'Yu Gothic', 'Segoe UI', sans-serif" font-weight="700" text-anchor="middle">5</text><path d="M89.0,412.5 H60.0 V412.5 H58.0" fill="none" stroke="#d1483b" stroke-width="1.0" stroke-linecap="round" stroke-linejoin="round"/><circle cx="89.0" cy="412.5" r="2.0" fill="#d1483b"/><circle cx="48.0" cy="412.5" r="9.5" fill="#d1483b"/><text x="48.0" y="416.3" font-size="11" fill="#ffffff" font-family="-apple-system, BlinkMacSystemFont, 'Hiragino Sans', 'Noto Sans JP', 'Yu Gothic', 'Segoe UI', sans-serif" font-weight="700" text-anchor="middle">7</text><line x1="225.0" y1="718.0" x2="225.0" y2="731.0" stroke="#1f2328" stroke-width="1.5" stroke-linecap="round"/><path d="M220.5,727.0 L225.0,732.0 L229.5,727.0" fill="none" stroke="#1f2328" stroke-width="1.5" stroke-linecap="round" stroke-linejoin="round"/><circle cx="225.0" cy="744.5" r="9.5" fill="#ffffff" stroke="#1f2328" stroke-width="1.6"/><text x="225.0" y="748.5" font-size="12" fill="#1f2328" font-family="-apple-system, BlinkMacSystemFont, 'Hiragino Sans', 'Noto Sans JP', 'Yu Gothic', 'Segoe UI', sans-serif" font-weight="700" text-anchor="middle">A</text><line x1="655.0" y1="46.0" x2="655.0" y2="61.0" stroke="#1f2328" stroke-width="1.5" stroke-linecap="round"/><path d="M650.5,56.0 L655.0,61.0 L659.5,56.0" fill="none" stroke="#1f2328" stroke-width="1.5" stroke-linecap="round" stroke-linejoin="round"/><circle cx="655.0" cy="36.5" r="9.5" fill="#ffffff" stroke="#1f2328" stroke-width="1.6"/><text x="655.0" y="40.5" font-size="12" fill="#1f2328" font-family="-apple-system, BlinkMacSystemFont, 'Hiragino Sans', 'Noto Sans JP', 'Yu Gothic', 'Segoe UI', sans-serif" font-weight="700" text-anchor="middle">A</text><rect x="498.0" y="62.0" width="314.0" height="654.0" fill="#ffffff" rx="26.0" stroke="#c3cad4" stroke-width="1.6"/><defs><clipPath id="s100"><rect x="505.0" y="69.0" width="300.0" height="640.0" rx="19.0"/></clipPath></defs><g clip-path="url(#s100)"><rect x="505.0" y="69.0" width="300.0" height="640.0" fill="#ffffff"/><text x="517.0" y="84.0" font-size="9.5" fill="#6b7280" font-family="-apple-system, BlinkMacSystemFont, 'Hiragino Sans', 'Noto Sans JP', 'Yu Gothic', 'Segoe UI', sans-serif" font-weight="700">9:41</text><rect x="761.0" y="80.0" width="10.0" height="6.2" fill="#c3cad4" rx="1.5"/><rect x="775.0" y="79.0" width="10.0" height="7.5" fill="#c3cad4" rx="1.5"/><rect x="789.0" y="77.0" width="10.0" height="10.0" fill="#c3cad4" rx="1.5"/><defs><clipPath id="c101"><rect x="505.0" y="91.0" width="300.0" height="558.0" rx="0.0"/></clipPath></defs><g clip-path="url(#c101)"><text x="519.0" y="110.0" font-size="11.0" fill="#6b7280" font-family="-apple-system, BlinkMacSystemFont, 'Hiragino Sans', 'Noto Sans JP', 'Yu Gothic', 'Segoe UI', sans-serif" font-weight="600">金額:</text><rect x="519.0" y="129.0" width="52.0" height="40.0" fill="#7b4fa8" rx="20.0"/><rect x="535.8" y="145.5" width="12.5" height="9.2" fill="none" rx="1.8" stroke="#ffffff" stroke-width="1.3458333333333334"/><circle cx="542.0" cy="150.1" r="2.8" fill="none" stroke="#ffffff" stroke-width="1.3458333333333334"/><path d="M539.73,145.46 L540.58,143.62 L543.42,143.62 L544.27,145.46" fill="none" stroke="#ffffff" stroke-width="1.3458333333333334" stroke-linecap="round" stroke-linejoin="round"/><text x="556.5" y="153.5" font-size="12.5" fill="#ffffff" font-family="-apple-system, BlinkMacSystemFont, 'Hiragino Sans', 'Noto Sans JP', 'Yu Gothic', 'Segoe UI', sans-serif" font-weight="600"></text><rect x="579.0" y="130.0" width="212.0" height="38.0" fill="#f4f5f7" rx="7.0" stroke="#c3cad4" stroke-width="1.2"/><text x="590.0" y="149.8" font-size="12" fill="#9aa3af" font-family="-apple-system, BlinkMacSystemFont, 'Hiragino Sans', 'Noto Sans JP', 'Yu Gothic', 'Segoe UI', sans-serif" font-weight="400">入力してください</text><text x="519.0" y="190.0" font-size="11.0" fill="#6b7280" font-family="-apple-system, BlinkMacSystemFont, 'Hiragino Sans', 'Noto Sans JP', 'Yu Gothic', 'Segoe UI', sans-serif" font-weight="600">カテゴリ:</text><defs><clipPath id="h102"><rect x="519.0" y="207.0" width="272.0" height="64.0" rx="0.0"/></clipPath></defs><g clip-path="url(#h102)"><circle cx="540.0" cy="230.0" r="21.0" fill="#4A3986"/><line x1="535.2" y1="219.8" x2="535.2" y2="223.2" stroke="#ffffff" stroke-width="1.3458333333333334" stroke-linecap="round"/><line x1="536.7" y1="219.8" x2="536.7" y2="223.2" stroke="#ffffff" stroke-width="1.3458333333333334" stroke-linecap="round"/><line x1="538.3" y1="219.8" x2="538.3" y2="223.2" stroke="#ffffff" stroke-width="1.3458333333333334" stroke-linecap="round"/><line x1="535.2" y1="223.2" x2="538.3" y2="223.2" stroke="#ffffff" stroke-width="1.3458333333333334" stroke-linecap="round"/><line x1="536.7" y1="223.2" x2="536.7" y2="232.2" stroke="#ffffff" stroke-width="1.3458333333333334" stroke-linecap="round"/><path d="M542.41,219.91 L544.67,222.18 L544.67,226.14 L542.41,226.14 Z" fill="none" stroke="#ffffff" stroke-width="1.3458333333333334" stroke-linecap="round" stroke-linejoin="round"/><line x1="543.5" y1="226.1" x2="543.5" y2="232.2" stroke="#ffffff" stroke-width="1.3458333333333334" stroke-linecap="round"/><text x="540.0" y="243.0" font-size="8.5" fill="#ffffff" font-family="-apple-system, BlinkMacSystemFont, 'Hiragino Sans', 'Noto Sans JP', 'Yu Gothic', 'Segoe UI', sans-serif" font-weight="600" text-anchor="middle">飲食</text><circle cx="590.0" cy="230.0" r="21.0" fill="#9aa3af"/><path d="M583.20,220.47 L585.18,220.47 L586.46,223.17" fill="none" stroke="#ffffff" stroke-width="1.3458333333333334" stroke-linecap="round" stroke-linejoin="round"/><path d="M586.46,223.17 L596.66,223.17 L595.10,228.12 L588.30,228.12 Z" fill="none" stroke="#ffffff" stroke-width="1.3458333333333334" stroke-linecap="round" stroke-linejoin="round"/><circle cx="588.7" cy="231.1" r="1.1" fill="none" stroke="#ffffff" stroke-width="1.3458333333333334"/><circle cx="594.0" cy="231.1" r="1.1" fill="none" stroke="#ffffff" stroke-width="1.3458333333333334"/><text x="590.0" y="243.0" font-size="8.5" fill="#ffffff" font-family="-apple-system, BlinkMacSystemFont, 'Hiragino Sans', 'Noto Sans JP', 'Yu Gothic', 'Segoe UI', sans-serif" font-weight="600" text-anchor="middle">買い物</text><circle cx="640.0" cy="230.0" r="21.0" fill="#9aa3af"/><rect x="633.3" y="225.6" width="13.3" height="4.7" fill="none" rx="1.4" stroke="#ffffff" stroke-width="1.3458333333333334"/><path d="M635.47,225.57 L636.74,222.18 L643.26,222.18 L644.53,225.57" fill="none" stroke="#ffffff" stroke-width="1.3458333333333334" stroke-linecap="round" stroke-linejoin="round"/><circle cx="636.5" cy="230.5" r="1.1" fill="none" stroke="#ffffff" stroke-width="1.3458333333333334"/><circle cx="643.5" cy="230.5" r="1.1" fill="none" stroke="#ffffff" stroke-width="1.3458333333333334"/><text x="640.0" y="243.0" font-size="8.5" fill="#ffffff" font-family="-apple-system, BlinkMacSystemFont, 'Hiragino Sans', 'Noto Sans JP', 'Yu Gothic', 'Segoe UI', sans-serif" font-weight="600" text-anchor="middle">交通</text><circle cx="690.0" cy="230.0" r="21.0" fill="#9aa3af"/><path d="M690.00,219.20 L691.06,220.55 L691.06,224.30 L696.80,227.42 L696.80,228.76 L691.06,227.06 L691.06,230.68 L692.83,232.09 L692.83,232.94 L690.00,232.16 L687.17,232.94 L687.17,232.09 L688.94,230.68 L688.94,227.06 L683.20,228.76 L683.20,227.42 L688.94,224.30 L688.94,220.55 Z" fill="none" stroke="#ffffff" stroke-width="1.3458333333333334" stroke-linecap="round" stroke-linejoin="round"/><text x="690.0" y="243.0" font-size="8.5" fill="#ffffff" font-family="-apple-system, BlinkMacSystemFont, 'Hiragino Sans', 'Noto Sans JP', 'Yu Gothic', 'Segoe UI', sans-serif" font-weight="600" text-anchor="middle">飛行機</text><circle cx="740.0" cy="230.0" r="21.0" fill="#9aa3af"/><rect x="735.3" y="219.5" width="9.3" height="9.5" fill="none" rx="1.8" stroke="#ffffff" stroke-width="1.3458333333333334"/><rect x="737.0" y="221.6" width="6.0" height="3.0" fill="none" rx="0.6" stroke="#ffffff" stroke-width="1.3458333333333334"/><circle cx="738.3" cy="226.8" r="0.8" fill="#ffffff" stroke="#ffffff" stroke-width="0.8075"/><circle cx="741.7" cy="226.8" r="0.8" fill="#ffffff" stroke="#ffffff" stroke-width="0.8075"/><line x1="737.5" y1="229.0" x2="735.9" y2="232.3" stroke="#ffffff" stroke-width="1.3458333333333334" stroke-linecap="round"/><line x1="742.5" y1="229.0" x2="744.1" y2="232.3" stroke="#ffffff" stroke-width="1.3458333333333334" stroke-linecap="round"/><text x="740.0" y="243.0" font-size="8.5" fill="#ffffff" font-family="-apple-system, BlinkMacSystemFont, 'Hiragino Sans', 'Noto Sans JP', 'Yu Gothic', 'Segoe UI', sans-serif" font-weight="600" text-anchor="middle">鉄道</text><circle cx="790.0" cy="230.0" r="21.0" fill="#9aa3af"/><line x1="783.3" y1="222.6" x2="783.3" y2="232.1" stroke="#ffffff" stroke-width="1.3458333333333334" stroke-linecap="round"/><rect x="783.3" y="226.1" width="13.5" height="3.4" fill="none" rx="1.0" stroke="#ffffff" stroke-width="1.3458333333333334"/><line x1="796.7" y1="229.5" x2="796.7" y2="232.1" stroke="#ffffff" stroke-width="1.3458333333333334" stroke-linecap="round"/><rect x="785.0" y="224.0" width="3.4" height="2.1" fill="none" rx="0.7" stroke="#ffffff" stroke-width="1.3458333333333334"/><text x="790.0" y="243.0" font-size="8.5" fill="#ffffff" font-family="-apple-system, BlinkMacSystemFont, 'Hiragino Sans', 'Noto Sans JP', 'Yu Gothic', 'Segoe UI', sans-serif" font-weight="600" text-anchor="middle">宿泊</text></g><text x="519.0" y="290.0" font-size="11" fill="#6b7280" font-family="-apple-system, BlinkMacSystemFont, 'Hiragino Sans', 'Noto Sans JP', 'Yu Gothic', 'Segoe UI', sans-serif" font-weight="600">メモ:</text><rect x="519.0" y="297.0" width="272.0" height="38.0" fill="#f4f5f7" rx="7.0" stroke="#c3cad4" stroke-width="1.2"/><text x="530.0" y="316.8" font-size="12" fill="#9aa3af" font-family="-apple-system, BlinkMacSystemFont, 'Hiragino Sans', 'Noto Sans JP', 'Yu Gothic', 'Segoe UI', sans-serif" font-weight="400">入力してください</text></g><rect x="505.0" y="649.0" width="300.0" height="60.0" fill="#ffffff"/><line x1="505.0" y1="649.0" x2="805.0" y2="649.0" stroke="#e3e7ed" stroke-width="1.1" stroke-linecap="butt"/><text x="519.0" y="683.0" font-size="12.5" fill="#1f2328" font-family="-apple-system, BlinkMacSystemFont, 'Hiragino Sans', 'Noto Sans JP', 'Yu Gothic', 'Segoe UI', sans-serif" font-weight="400">連続登録</text><rect x="589.0" y="668.0" width="40.0" height="22.0" fill="#e8eaef" rx="11.0" stroke="#c3cad4" stroke-width="1.1"/><circle cx="602.0" cy="679.0" r="8.5" fill="#ffffff" stroke="#c3cad4" stroke-width="1.0"/><rect x="639.0" y="659.0" width="152.0" height="40.0" fill="#4A3986" rx="20.0"/><rect x="681.0" y="673.0" width="12.0" height="12.0" fill="none" rx="2.1" stroke="#ffffff" stroke-width="1.3458333333333334"/><line x1="687.0" y1="675.8" x2="687.0" y2="682.2" stroke="#ffffff" stroke-width="1.3458333333333334" stroke-linecap="round"/><line x1="683.8" y1="679.0" x2="690.2" y2="679.0" stroke="#ffffff" stroke-width="1.3458333333333334" stroke-linecap="round"/><text x="701.5" y="683.5" font-size="12.5" fill="#ffffff" font-family="-apple-system, BlinkMacSystemFont, 'Hiragino Sans', 'Noto Sans JP', 'Yu Gothic', 'Segoe UI', sans-serif" font-weight="600">記録する</text></g><path d="M791.0,149.0 H820.0 V149.0 H822.0" fill="none" stroke="#d1483b" stroke-width="1.0" stroke-linecap="round" stroke-linejoin="round"/><circle cx="791.0" cy="149.0" r="2.0" fill="#d1483b"/><circle cx="832.0" cy="149.0" r="9.5" fill="#d1483b"/><text x="832.0" y="152.8" font-size="11" fill="#ffffff" font-family="-apple-system, BlinkMacSystemFont, 'Hiragino Sans', 'Noto Sans JP', 'Yu Gothic', 'Segoe UI', sans-serif" font-weight="700" text-anchor="middle">10</text><path d="M791.0,679.0 H820.0 V679.0 H822.0" fill="none" stroke="#d1483b" stroke-width="1.0" stroke-linecap="round" stroke-linejoin="round"/><circle cx="791.0" cy="679.0" r="2.0" fill="#d1483b"/><circle cx="832.0" cy="679.0" r="9.5" fill="#d1483b"/><text x="832.0" y="682.8" font-size="11" fill="#ffffff" font-family="-apple-system, BlinkMacSystemFont, 'Hiragino Sans', 'Noto Sans JP', 'Yu Gothic', 'Segoe UI', sans-serif" font-weight="700" text-anchor="middle">13</text><path d="M519.0,149.0 H490.0 V149.0 H488.0" fill="none" stroke="#2b7a6f" stroke-width="1.0" stroke-linecap="round" stroke-linejoin="round"/><circle cx="519.0" cy="149.0" r="2.0" fill="#2b7a6f"/><rect x="468.5" y="139.5" width="19.0" height="19.0" fill="#2b7a6f" rx="5.0"/><text x="478.0" y="152.8" font-size="11" fill="#ffffff" font-family="-apple-system, BlinkMacSystemFont, 'Hiragino Sans', 'Noto Sans JP', 'Yu Gothic', 'Segoe UI', sans-serif" font-weight="700" text-anchor="middle">9</text><path d="M519.0,239.0 H490.0 V239.0 H488.0" fill="none" stroke="#d1483b" stroke-width="1.0" stroke-linecap="round" stroke-linejoin="round"/><circle cx="519.0" cy="239.0" r="2.0" fill="#d1483b"/><circle cx="478.0" cy="239.0" r="9.5" fill="#d1483b"/><text x="478.0" y="242.8" font-size="11" fill="#ffffff" font-family="-apple-system, BlinkMacSystemFont, 'Hiragino Sans', 'Noto Sans JP', 'Yu Gothic', 'Segoe UI', sans-serif" font-weight="700" text-anchor="middle">11</text><path d="M519.0,679.0 H490.0 V679.0 H488.0" fill="none" stroke="#d1483b" stroke-width="1.0" stroke-linecap="round" stroke-linejoin="round"/><circle cx="519.0" cy="679.0" r="2.0" fill="#d1483b"/><circle cx="478.0" cy="679.0" r="9.5" fill="#d1483b"/><text x="478.0" y="682.8" font-size="11" fill="#ffffff" font-family="-apple-system, BlinkMacSystemFont, 'Hiragino Sans', 'Noto Sans JP', 'Yu Gothic', 'Segoe UI', sans-serif" font-weight="700" text-anchor="middle">12</text></svg>