<svg xmlns="http://www.w3.org/2000/svg" width="450" height="706" viewBox="0 0 450 706"><title>割り勘結果</title><rect x="0" y="0" width="450" height="706" fill="#ffffff"/><rect x="68.0" y="26.0" width="314.0" height="654.0" fill="#ffffff" rx="26.0" stroke="#c3cad4" stroke-width="1.6"/><defs><clipPath id="s0"><rect x="75.0" y="33.0" width="300.0" height="640.0" rx="19.0"/></clipPath></defs><g clip-path="url(#s0)"><rect x="75.0" y="33.0" width="300.0" height="640.0" fill="#ffffff"/><text x="87.0" y="48.0" font-size="9.5" fill="#6b7280" font-family="-apple-system, BlinkMacSystemFont, 'Hiragino Sans', 'Noto Sans JP', 'Yu Gothic', 'Segoe UI', sans-serif" font-weight="700">9:41</text><rect x="331.0" y="44.0" width="10.0" height="6.2" fill="#c3cad4" rx="1.5"/><rect x="345.0" y="43.0" width="10.0" height="7.5" fill="#c3cad4" rx="1.5"/><rect x="359.0" y="41.0" width="10.0" height="10.0" fill="#c3cad4" rx="1.5"/><defs><clipPath id="c1"><rect x="75.0" y="55.0" width="300.0" height="566.0" rx="0.0"/></clipPath></defs><g clip-path="url(#c1)"><circle cx="100.0" cy="85.0" r="8.1" fill="none" stroke="#1f2328" stroke-width="1.7416666666666665"/><path d="M97.26,81.51 L97.45,81.00 L97.73,80.53 L98.11,80.13 L98.55,79.81 L99.04,79.57 L99.58,79.44 L100.12,79.41 L100.67,79.49 L101.18,79.67 L101.66,79.94 L102.07,80.30 L102.41,80.74 L102.65,81.23 L102.80,81.76" fill="none" stroke="#1f2328" stroke-width="1.7416666666666665" stroke-linecap="round" stroke-linejoin="round"/><line x1="102.8" y1="81.8" x2="100.0" y2="87.0" stroke="#1f2328" stroke-width="1.7416666666666665" stroke-linecap="round"/><circle cx="100.0" cy="89.8" r="0.9" fill="#1f2328" stroke="#1f2328" stroke-width="1.045"/><rect x="245.0" y="65.0" width="116.0" height="40.0" fill="#0a84ff" rx="20.0"/><path d="M265.56,83.23 L263.44,83.23 L263.44,91.02 L274.06,91.02 L274.06,83.23 L271.94,83.23" fill="none" stroke="#ffffff" stroke-width="1.3458333333333334" stroke-linecap="round" stroke-linejoin="round"/><line x1="268.8" y1="79.0" x2="268.8" y2="87.1" stroke="#ffffff" stroke-width="1.3458333333333334" stroke-linecap="round"/><path d="M265.92,81.81 L268.75,78.98 L271.58,81.81" fill="none" stroke="#ffffff" stroke-width="1.3458333333333334" stroke-linecap="round" stroke-linejoin="round"/><text x="283.2" y="89.5" font-size="12.5" fill="#ffffff" font-family="-apple-system, BlinkMacSystemFont, 'Hiragino Sans', 'Noto Sans JP', 'Yu Gothic', 'Segoe UI', sans-serif" font-weight="600">画像で共有</text><circle cx="110.0" cy="138.0" r="21.0" fill="#f0a02a"/><line x1="110.0" y1="128.7" x2="110.0" y2="139.3" stroke="#ffffff" stroke-width="1.3458333333333334" stroke-linecap="round"/><line x1="104.7" y1="134.0" x2="115.3" y2="134.0" stroke="#ffffff" stroke-width="1.3458333333333334" stroke-linecap="round"/><text x="110.0" y="151.0" font-size="8.5" fill="#ffffff" font-family="-apple-system, BlinkMacSystemFont, 'Hiragino Sans', 'Noto Sans JP', 'Yu Gothic', 'Segoe UI', sans-serif" font-weight="600" text-anchor="middle">詳細表示</text><circle cx="160.0" cy="138.0" r="21.0" fill="#9aa3af"/><rect x="154.0" y="128.7" width="12.0" height="10.6" fill="none" rx="1.1" stroke="#ffffff" stroke-width="1.3458333333333334"/><line x1="154.0" y1="132.2" x2="166.0" y2="132.2" stroke="#ffffff" stroke-width="1.3458333333333334" stroke-linecap="round"/><line x1="154.0" y1="135.8" x2="166.0" y2="135.8" stroke="#ffffff" stroke-width="1.3458333333333334" stroke-linecap="round"/><line x1="160.0" y1="128.7" x2="160.0" y2="139.3" stroke="#ffffff" stroke-width="1.3458333333333334" stroke-linecap="round"/><text x="160.0" y="151.0" font-size="8.5" fill="#ffffff" font-family="-apple-system, BlinkMacSystemFont, 'Hiragino Sans', 'Noto Sans JP', 'Yu Gothic', 'Segoe UI', sans-serif" font-weight="600" text-anchor="middle">まとめる</text><circle cx="210.0" cy="138.0" r="21.0" fill="#9aa3af"/><rect x="203.3" y="129.0" width="13.5" height="9.9" fill="none" rx="1.4" stroke="#ffffff" stroke-width="1.3458333333333334"/><path d="M203.27,129.89 L210.00,135.13 L216.73,129.89" fill="none" stroke="#ffffff" stroke-width="1.3458333333333334" stroke-linecap="round" stroke-linejoin="round"/><text x="210.0" y="151.0" font-size="8.5" fill="#ffffff" font-family="-apple-system, BlinkMacSystemFont, 'Hiragino Sans', 'Noto Sans JP', 'Yu Gothic', 'Segoe UI', sans-serif" font-weight="600" text-anchor="middle">0円消し</text><text x="89.0" y="198.0" font-size="11.0" fill="#6b7280" font-family="-apple-system, BlinkMacSystemFont, 'Hiragino Sans', 'Noto Sans JP', 'Yu Gothic', 'Segoe UI', sans-serif" font-weight="600">自分への支払い</text><rect x="89.0" y="217.0" width="272.0" height="234.0" fill="#ffffff" rx="10.0" stroke="#c3cad4" stroke-width="1.2"/><circle cx="123.0" cy="257.5" r="22.0" fill="#e8eaef" stroke="#c3cad4" stroke-width="1.1"/><text x="123.0" y="261.5" font-size="11" fill="#6b7280" font-family="-apple-system, BlinkMacSystemFont, 'Hiragino Sans', 'Noto Sans JP', 'Yu Gothic', 'Segoe UI', sans-serif" font-weight="700" text-anchor="middle">自分</text><text x="349.0" y="242.9" font-size="17.0" fill="#1f2328" font-family="-apple-system, BlinkMacSystemFont, 'Hiragino Sans', 'Noto Sans JP', 'Yu Gothic', 'Segoe UI', sans-serif" font-weight="700" text-anchor="end">￥411</text><text x="349.0" y="262.6" font-size="10.5" fill="#6b7280" font-family="-apple-system, BlinkMacSystemFont, 'Hiragino Sans', 'Noto Sans JP', 'Yu Gothic', 'Segoe UI', sans-serif" font-weight="400" text-anchor="end">￥1,233 − ￥822</text><text x="349.0" y="279.1" font-size="10.5" fill="#6b7280" font-family="-apple-system, BlinkMacSystemFont, 'Hiragino Sans', 'Noto Sans JP', 'Yu Gothic', 'Segoe UI', sans-serif" font-weight="400" text-anchor="end">あまり ￥1</text><line x1="101.0" y1="299.0" x2="349.0" y2="299.0" stroke="#e3e7ed" stroke-width="1.1" stroke-linecap="butt"/><circle cx="110.0" cy="327.9" r="2.8" fill="none" stroke="#1f2328" stroke-width="1.4249999999999998"/><path d="M104.60,337.50 L104.69,336.51 L104.96,335.55 L105.41,334.66 L106.01,333.86 L106.75,333.19 L107.59,332.67 L108.52,332.31 L109.50,332.12 L110.50,332.12 L111.48,332.31 L112.41,332.67 L113.25,333.19 L113.99,333.86 L114.59,334.66 L115.04,335.55 L115.31,336.51 L115.40,337.50" fill="none" stroke="#1f2328" stroke-width="1.4249999999999998" stroke-linecap="round" stroke-linejoin="round"/><text x="161.0" y="331.5" font-size="12.5" fill="#1f2328" font-family="-apple-system, BlinkMacSystemFont, 'Hiragino Sans', 'Noto Sans JP', 'Yu Gothic', 'Segoe UI', sans-serif" font-weight="400">A</text><text x="349.0" y="323.9" font-size="14.5" fill="#6b7280" font-family="-apple-system, BlinkMacSystemFont, 'Hiragino Sans', 'Noto Sans JP', 'Yu Gothic', 'Segoe UI', sans-serif" font-weight="700" text-anchor="end" text-decoration="line-through">￥0</text><text x="349.0" y="342.6" font-size="10.5" fill="#6b7280" font-family="-apple-system, BlinkMacSystemFont, 'Hiragino Sans', 'Noto Sans JP', 'Yu Gothic', 'Segoe UI', sans-serif" font-weight="400" text-anchor="end">￥411 − ￥411</text><text x="349.0" y="368.1" font-size="10.5" fill="#6b7280" font-family="-apple-system, BlinkMacSystemFont, 'Hiragino Sans', 'Noto Sans JP', 'Yu Gothic', 'Segoe UI', sans-serif" font-weight="400" text-anchor="end">自分が立替: ￥411</text><text x="349.0" y="384.6" font-size="10.5" fill="#6b7280" font-family="-apple-system, BlinkMacSystemFont, 'Hiragino Sans', 'Noto Sans JP', 'Yu Gothic', 'Segoe UI', sans-serif" font-weight="400" text-anchor="end">自分 との貸し借りを相殺: ￥411</text><circle cx="110.0" cy="417.4" r="2.8" fill="none" stroke="#1f2328" stroke-width="1.4249999999999998"/><path d="M104.60,427.00 L104.69,426.01 L104.96,425.05 L105.41,424.16 L106.01,423.36 L106.75,422.69 L107.59,422.17 L108.52,421.81 L109.50,421.62 L110.50,421.62 L111.48,421.81 L112.41,422.17 L113.25,422.69 L113.99,423.36 L114.59,424.16 L115.04,425.05 L115.31,426.01 L115.40,427.00" fill="none" stroke="#1f2328" stroke-width="1.4249999999999998" stroke-linecap="round" stroke-linejoin="round"/><text x="161.0" y="421.0" font-size="12.5" fill="#1f2328" font-family="-apple-system, BlinkMacSystemFont, 'Hiragino Sans', 'Noto Sans JP', 'Yu Gothic', 'Segoe UI', sans-serif" font-weight="400">B　From</text><text x="349.0" y="413.4" font-size="14.5" fill="#1f2328" font-family="-apple-system, BlinkMacSystemFont, 'Hiragino Sans', 'Noto Sans JP', 'Yu Gothic', 'Segoe UI', sans-serif" font-weight="700" text-anchor="end">￥411</text><text x="349.0" y="432.1" font-size="10.5" fill="#6b7280" font-family="-apple-system, BlinkMacSystemFont, 'Hiragino Sans', 'Noto Sans JP', 'Yu Gothic', 'Segoe UI', sans-serif" font-weight="400" text-anchor="end">￥411 − ￥0</text><text x="89.0" y="472.0" font-size="11.0" fill="#6b7280" font-family="-apple-system, BlinkMacSystemFont, 'Hiragino Sans', 'Noto Sans JP', 'Yu Gothic', 'Segoe UI', sans-serif" font-weight="600">Aへの支払い</text></g><rect x="75.0" y="621.0" width="300.0" height="52.0" fill="#ffffff"/><line x1="75.0" y1="621.0" x2="375.0" y2="621.0" stroke="#e3e7ed" stroke-width="1.1" stroke-linecap="butt"/><circle cx="222.5" cy="637.1" r="2.7" fill="none" stroke="#4A3986" stroke-width="1.5833333333333333"/><path d="M217.33,647.08 L217.42,646.13 L217.68,645.22 L218.11,644.36 L218.68,643.60 L219.39,642.96 L220.20,642.46 L221.09,642.11 L222.02,641.94 L222.98,641.94 L223.91,642.11 L224.80,642.46 L225.61,642.96 L226.32,643.60 L226.89,644.36 L227.32,645.22 L227.58,646.13 L227.67,647.08" fill="none" stroke="#4A3986" stroke-width="1.5833333333333333" stroke-linecap="round" stroke-linejoin="round"/><circle cx="229.6" cy="636.7" r="2.0" fill="none" stroke="#4A3986" stroke-width="1.5833333333333333"/><path d="M226.23,644.94 L226.54,644.29 L226.96,643.71 L227.49,643.22 L228.10,642.83 L228.77,642.57 L229.47,642.43 L230.19,642.43 L230.90,642.57 L231.57,642.83 L232.18,643.22 L232.70,643.71 L233.13,644.29 L233.44,644.94" fill="none" stroke="#4A3986" stroke-width="1.5833333333333333" stroke-linecap="round" stroke-linejoin="round"/><text x="225.0" y="663.0" font-size="9.5" fill="#4A3986" font-family="-apple-system, BlinkMacSystemFont, 'Hiragino Sans', 'Noto Sans JP', 'Yu Gothic', 'Segoe UI', sans-serif" font-weight="700" text-anchor="middle">割り勘結果</text><line x1="85.0" y1="616.0" x2="365.0" y2="616.0" stroke="#c3cad4" stroke-width="1.2" stroke-linecap="butt" stroke-dasharray="3 4"/></g><path d="M361.0,85.0 H390.0 V85.0 H392.0" fill="none" stroke="#2b7a6f" stroke-width="1.0" stroke-linecap="round" stroke-linejoin="round"/><circle cx="361.0" cy="85.0" r="2.0" fill="#2b7a6f"/><rect x="392.5" y="75.5" width="19.0" height="19.0" fill="#2b7a6f" rx="5.0"/><text x="402.0" y="88.8" font-size="11" fill="#ffffff" font-family="-apple-system, BlinkMacSystemFont, 'Hiragino Sans', 'Noto Sans JP', 'Yu Gothic', 'Segoe UI', sans-serif" font-weight="700" text-anchor="middle">2</text><path d="M349.0,257.5 H390.0 V257.5 H392.0" fill="none" stroke="#d1483b" stroke-width="1.0" stroke-linecap="round" stroke-linejoin="round"/><circle cx="349.0" cy="257.5" r="2.0" fill="#d1483b"/><circle cx="402.0" cy="257.5" r="9.5" fill="#d1483b"/><text x="402.0" y="261.3" font-size="11" fill="#ffffff" font-family="-apple-system, BlinkMacSystemFont, 'Hiragino Sans', 'Noto Sans JP', 'Yu Gothic', 'Segoe UI', sans-serif" font-weight="700" text-anchor="middle">4</text><path d="M349.0,375.5 H390.0 V375.5 H392.0" fill="none" stroke="#d1483b" stroke-width="1.0" stroke-linecap="round" stroke-linejoin="round"/><circle cx="349.0" cy="375.5" r="2.0" fill="#d1483b"/><circle cx="402.0" cy="375.5" r="9.5" fill="#d1483b"/><text x="402.0" y="379.3" font-size="11" fill="#ffffff" font-family="-apple-system, BlinkMacSystemFont, 'Hiragino Sans', 'Noto Sans JP', 'Yu Gothic', 'Segoe UI', sans-serif" font-weight="700" text-anchor="middle">6</text><path d="M89.0,85.0 H60.0 V85.0 H58.0" fill="none" stroke="#2b7a6f" stroke-width="1.0" stroke-linecap="round" stroke-linejoin="round"/><circle cx="89.0" cy="85.0" r="2.0" fill="#2b7a6f"/><rect x="38.5" y="75.5" width="19.0" height="19.0" fill="#2b7a6f" rx="5.0"/><text x="48.0" y="88.8" font-size="11" fill="#ffffff" font-family="-apple-system, BlinkMacSystemFont, 'Hiragino Sans', 'Noto Sans JP', 'Yu Gothic', 'Segoe UI', sans-serif" font-weight="700" text-anchor="middle">1</text><path d="M89.0,147.0 H60.0 V147.0 H58.0" fill="none" stroke="#d1483b" stroke-width="1.0" stroke-linecap="round" stroke-linejoin="round"/><circle cx="89.0" cy="147.0" r="2.0" fill="#d1483b"/><circle cx="48.0" cy="147.0" r="9.5" fill="#d1483b"/><text x="48.0" y="150.8" font-size="11" fill="#ffffff" font-family="-apple-system, BlinkMacSystemFont, 'Hiragino Sans', 'Noto Sans JP', 'Yu Gothic', 'Segoe UI', sans-serif" font-weight="700" text-anchor="middle">3</text><path d="M101.0,330.8 H60.0 V330.8 H58.0" fill="none" stroke="#d1483b" stroke-width="1.0" stroke-linecap="round" stroke-linejoin="round"/><circle cx="101.0" cy="330.8" r="2.0" fill="#d1483b"/><circle cx="48.0" cy="330.8" r="9.5" fill="#d1483b"/><text x="48.0" y="334.6" font-size="11" fill="#ffffff" font-family="-apple-system, BlinkMacSystemFont, 'Hiragino Sans', 'Noto Sans JP', 'Yu Gothic', 'Segoe UI', sans-serif" font-weight="700" text-anchor="middle">5</text><path d="M101.0,420.2 H60.0 V420.2 H58.0" fill="none" stroke="#d1483b" stroke-width="1.0" stroke-linecap="round" stroke-linejoin="round"/><circle cx="101.0" cy="420.2" r="2.0" fill="#d1483b"/><circle cx="48.0" cy="420.2" r="9.5" fill="#d1483b"/><text x="48.0" y="424.1" font-size="11" fill="#ffffff" font-family="-apple-system, BlinkMacSystemFont, 'Hiragino Sans', 'Noto Sans JP', 'Yu Gothic', 'Segoe UI', sans-serif" font-weight="700" text-anchor="middle">7</text></svg>