<svg xmlns="http://www.w3.org/2000/svg" width="880" height="782" viewBox="0 0 880 782"><title>記録の詳細</title><rect x="0" y="0" width="880" height="782" fill="#ffffff"/><rect x="68.0" y="62.0" width="314.0" height="654.0" fill="#ffffff" rx="26.0" stroke="#c3cad4" stroke-width="1.6"/><defs><clipPath id="s0"><rect x="75.0" y="69.0" width="300.0" height="640.0" rx="19.0"/></clipPath></defs><g clip-path="url(#s0)"><rect x="75.0" y="69.0" width="300.0" height="640.0" fill="#ffffff"/><text x="87.0" y="84.0" font-size="9.5" fill="#6b7280" font-family="-apple-system, BlinkMacSystemFont, 'Hiragino Sans', 'Noto Sans JP', 'Yu Gothic', 'Segoe UI', sans-serif" font-weight="700">9:41</text><rect x="331.0" y="80.0" width="10.0" height="6.2" fill="#c3cad4" rx="1.5"/><rect x="345.0" y="79.0" width="10.0" height="7.5" fill="#c3cad4" rx="1.5"/><rect x="359.0" y="77.0" width="10.0" height="10.0" fill="#c3cad4" rx="1.5"/><rect x="75.0" y="91.0" width="300.0" height="46.0" fill="#f4f5f7"/><line x1="75.0" y1="137.0" x2="375.0" y2="137.0" stroke="#e3e7ed" stroke-width="1.1" stroke-linecap="butt"/><path d="M97.50,107.75 L91.25,114.00 L97.50,120.25" fill="none" stroke="#1f2328" stroke-width="1.5833333333333333" stroke-linecap="round" stroke-linejoin="round"/><line x1="345.2" y1="109.2" x2="358.8" y2="109.2" stroke="#1f2328" stroke-width="1.5833333333333333" stroke-linecap="round"/><path d="M347.33,109.17 L348.17,121.08 L355.83,121.08 L356.67,109.17" fill="none" stroke="#1f2328" stroke-width="1.5833333333333333" stroke-linecap="round" stroke-linejoin="round"/><path d="M349.83,109.17 L349.83,107.00 L354.17,107.00 L354.17,109.17" fill="none" stroke="#1f2328" stroke-width="1.5833333333333333" stroke-linecap="round" stroke-linejoin="round"/><line x1="350.7" y1="111.9" x2="350.9" y2="118.2" stroke="#1f2328" stroke-width="1.5833333333333333" stroke-linecap="round"/><line x1="353.3" y1="111.9" x2="353.1" y2="118.2" stroke="#1f2328" stroke-width="1.5833333333333333" stroke-linecap="round"/><path d="M315.33,120.67 L316.67,116.83 L325.33,108.17 L327.83,110.67 L319.17,119.33 Z" fill="none" stroke="#1f2328" stroke-width="1.5833333333333333" stroke-linecap="round" stroke-linejoin="round"/><line x1="323.7" y1="109.8" x2="326.2" y2="112.3" stroke="#1f2328" stroke-width="1.5833333333333333" stroke-linecap="round"/><text x="131.0" y="119.0" font-size="13.5" fill="#1f2328" font-family="-apple-system, BlinkMacSystemFont, 'Hiragino Sans', 'Noto Sans JP', 'Yu Gothic', 'Segoe UI', sans-serif" font-weight="700">記録の詳細</text><defs><clipPath id="c1"><rect x="75.0" y="137.0" width="300.0" height="572.0" rx="0.0"/></clipPath></defs><g clip-path="url(#c1)"><text x="89.0" y="156.0" font-size="11.0" fill="#6b7280" font-family="-apple-system, BlinkMacSystemFont, 'Hiragino Sans', 'Noto Sans JP', 'Yu Gothic', 'Segoe UI', sans-serif" font-weight="600">内容</text><rect x="89.0" y="175.0" width="272.0" height="251.0" fill="#ffffff" rx="10.0" stroke="#c3cad4" stroke-width="1.2"/><text x="101.0" y="197.2" font-size="12.5" fill="#1f2328" font-family="-apple-system, BlinkMacSystemFont, 'Hiragino Sans', 'Noto Sans JP', 'Yu Gothic', 'Segoe UI', sans-serif" font-weight="400">相手</text><text x="173.0" y="197.2" font-size="12.5" fill="#1f2328" font-family="-apple-system, BlinkMacSystemFont, 'Hiragino Sans', 'Noto Sans JP', 'Yu Gothic', 'Segoe UI', sans-serif" font-weight="400">相手A（3人）</text><text x="101.0" y="223.2" font-size="12.5" fill="#1f2328" font-family="-apple-system, BlinkMacSystemFont, 'Hiragino Sans', 'Noto Sans JP', 'Yu Gothic', 'Segoe UI', sans-serif" font-weight="400">ご関係</text><text x="173.0" y="223.2" font-size="12.5" fill="#1f2328" font-family="-apple-system, BlinkMacSystemFont, 'Hiragino Sans', 'Noto Sans JP', 'Yu Gothic', 'Segoe UI', sans-serif" font-weight="400">親戚</text><text x="101.0" y="249.2" font-size="12.5" fill="#1f2328" font-family="-apple-system, BlinkMacSystemFont, 'Hiragino Sans', 'Noto Sans JP', 'Yu Gothic', 'Segoe UI', sans-serif" font-weight="400">名目</text><text x="173.0" y="249.2" font-size="12.5" fill="#1f2328" font-family="-apple-system, BlinkMacSystemFont, 'Hiragino Sans', 'Noto Sans JP', 'Yu Gothic', 'Segoe UI', sans-serif" font-weight="400">結婚</text><text x="101.0" y="275.2" font-size="12.5" fill="#1f2328" font-family="-apple-system, BlinkMacSystemFont, 'Hiragino Sans', 'Noto Sans JP', 'Yu Gothic', 'Segoe UI', sans-serif" font-weight="400">やりとり</text><text x="173.0" y="275.2" font-size="12.5" fill="#1f2328" font-family="-apple-system, BlinkMacSystemFont, 'Hiragino Sans', 'Noto Sans JP', 'Yu Gothic', 'Segoe UI', sans-serif" font-weight="400">もらった</text><text x="101.0" y="301.2" font-size="12.5" fill="#1f2328" font-family="-apple-system, BlinkMacSystemFont, 'Hiragino Sans', 'Noto Sans JP', 'Yu Gothic', 'Segoe UI', sans-serif" font-weight="400">日付</text><text x="173.0" y="301.2" font-size="12.5" fill="#1f2328" font-family="-apple-system, BlinkMacSystemFont, 'Hiragino Sans', 'Noto Sans JP', 'Yu Gothic', 'Segoe UI', sans-serif" font-weight="400">2026年8月3日</text><text x="101.0" y="327.2" font-size="12.5" fill="#1f2328" font-family="-apple-system, BlinkMacSystemFont, 'Hiragino Sans', 'Noto Sans JP', 'Yu Gothic', 'Segoe UI', sans-serif" font-weight="400">金額</text><text x="173.0" y="327.2" font-size="12.5" fill="#1f2328" font-family="-apple-system, BlinkMacSystemFont, 'Hiragino Sans', 'Noto Sans JP', 'Yu Gothic', 'Segoe UI', sans-serif" font-weight="400">30,000円</text><text x="101.0" y="353.2" font-size="12.5" fill="#1f2328" font-family="-apple-system, BlinkMacSystemFont, 'Hiragino Sans', 'Noto Sans JP', 'Yu Gothic', 'Segoe UI', sans-serif" font-weight="400">1人あたり</text><text x="173.0" y="353.2" font-size="12.5" fill="#1f2328" font-family="-apple-system, BlinkMacSystemFont, 'Hiragino Sans', 'Noto Sans JP', 'Yu Gothic', 'Segoe UI', sans-serif" font-weight="400">約 10,000円</text><text x="101.0" y="379.2" font-size="12.5" fill="#1f2328" font-family="-apple-system, BlinkMacSystemFont, 'Hiragino Sans', 'Noto Sans JP', 'Yu Gothic', 'Segoe UI', sans-serif" font-weight="400">品物</text><text x="173.0" y="379.2" font-size="12.5" fill="#1f2328" font-family="-apple-system, BlinkMacSystemFont, 'Hiragino Sans', 'Noto Sans JP', 'Yu Gothic', 'Segoe UI', sans-serif" font-weight="400">（品名）</text><text x="101.0" y="405.2" font-size="12.5" fill="#1f2328" font-family="-apple-system, BlinkMacSystemFont, 'Hiragino Sans', 'Noto Sans JP', 'Yu Gothic', 'Segoe UI', sans-serif" font-weight="400">メモ</text><text x="173.0" y="405.2" font-size="12.5" fill="#1f2328" font-family="-apple-system, BlinkMacSystemFont, 'Hiragino Sans', 'Noto Sans JP', 'Yu Gothic', 'Segoe UI', sans-serif" font-weight="400">（メモ）</text><text x="89.0" y="447.0" font-size="11.0" fill="#6b7280" font-family="-apple-system, BlinkMacSystemFont, 'Hiragino Sans', 'Noto Sans JP', 'Yu Gothic', 'Segoe UI', sans-serif" font-weight="600">写真</text><rect x="89.0" y="466.0" width="66.0" height="66.0" fill="#f4f5f7" rx="6.0" stroke="#c3cad4" stroke-width="1.2"/><line x1="89.0" y1="466.0" x2="155.0" y2="532.0" stroke="#c3cad4" stroke-width="1.0" stroke-linecap="butt" opacity="0.75"/><line x1="155.0" y1="466.0" x2="89.0" y2="532.0" stroke="#c3cad4" stroke-width="1.0" stroke-linecap="butt" opacity="0.75"/><rect x="163.0" y="466.0" width="66.0" height="66.0" fill="#f4f5f7" rx="6.0" stroke="#c3cad4" stroke-width="1.2"/><line x1="163.0" y1="466.0" x2="229.0" y2="532.0" stroke="#c3cad4" stroke-width="1.0" stroke-linecap="butt" opacity="0.75"/><line x1="229.0" y1="466.0" x2="163.0" y2="532.0" stroke="#c3cad4" stroke-width="1.0" stroke-linecap="butt" opacity="0.75"/><rect x="237.0" y="466.0" width="66.0" height="66.0" fill="#ffffff" rx="6.0" stroke="#c3cad4" stroke-width="1.2" stroke-dasharray="True"/><text x="270.0" y="503.0" font-size="11" fill="#9aa3af" font-family="-apple-system, BlinkMacSystemFont, 'Hiragino Sans', 'Noto Sans JP', 'Yu Gothic', 'Segoe UI', sans-serif" font-weight="600" text-anchor="middle">＋</text></g><line x1="85.0" y1="704.0" x2="365.0" y2="704.0" stroke="#c3cad4" stroke-width="1.2" stroke-linecap="butt" stroke-dasharray="3 4"/></g><path d="M335.0,114.0 H390.0 V114.0 H392.0" fill="none" stroke="#2b7a6f" stroke-width="1.0" stroke-linecap="round" stroke-linejoin="round"/><circle cx="335.0" cy="114.0" r="2.0" fill="#2b7a6f"/><rect x="392.5" y="104.5" width="19.0" height="19.0" fill="#2b7a6f" rx="5.0"/><text x="402.0" y="117.8" font-size="11" fill="#ffffff" font-family="-apple-system, BlinkMacSystemFont, 'Hiragino Sans', 'Noto Sans JP', 'Yu Gothic', 'Segoe UI', sans-serif" font-weight="700" text-anchor="middle">1</text><path d="M365.0,114.0 H390.0 V137.0 H392.0" fill="none" stroke="#2b7a6f" stroke-width="1.0" stroke-linecap="round" stroke-linejoin="round"/><circle cx="365.0" cy="114.0" r="2.0" fill="#2b7a6f"/><rect x="392.5" y="127.5" width="19.0" height="19.0" fill="#2b7a6f" rx="5.0"/><text x="402.0" y="140.8" font-size="11" fill="#ffffff" font-family="-apple-system, BlinkMacSystemFont, 'Hiragino Sans', 'Noto Sans JP', 'Yu Gothic', 'Segoe UI', sans-serif" font-weight="700" text-anchor="middle">2</text><path d="M303.0,499.0 H390.0 V499.0 H392.0" fill="none" stroke="#2b7a6f" stroke-width="1.0" stroke-linecap="round" stroke-linejoin="round"/><circle cx="303.0" cy="499.0" r="2.0" fill="#2b7a6f"/><rect x="392.5" y="489.5" width="19.0" height="19.0" fill="#2b7a6f" rx="5.0"/><text x="402.0" y="502.8" font-size="11" fill="#ffffff" font-family="-apple-system, BlinkMacSystemFont, 'Hiragino Sans', 'Noto Sans JP', 'Yu Gothic', 'Segoe UI', sans-serif" font-weight="700" text-anchor="middle">6</text><path d="M101.0,326.5 H60.0 V326.5 H58.0" fill="none" stroke="#d1483b" stroke-width="1.0" stroke-linecap="round" stroke-linejoin="round"/><circle cx="101.0" cy="326.5" r="2.0" fill="#d1483b"/><circle cx="48.0" cy="326.5" r="9.5" fill="#d1483b"/><text x="48.0" y="330.3" font-size="11" fill="#ffffff" font-family="-apple-system, BlinkMacSystemFont, 'Hiragino Sans', 'Noto Sans JP', 'Yu Gothic', 'Segoe UI', sans-serif" font-weight="700" text-anchor="middle">3</text><path d="M101.0,352.5 H60.0 V352.5 H58.0" fill="none" stroke="#d1483b" stroke-width="1.0" stroke-linecap="round" stroke-linejoin="round"/><circle cx="101.0" cy="352.5" r="2.0" fill="#d1483b"/><circle cx="48.0" cy="352.5" r="9.5" fill="#d1483b"/><text x="48.0" y="356.3" font-size="11" fill="#ffffff" font-family="-apple-system, BlinkMacSystemFont, 'Hiragino Sans', 'Noto Sans JP', 'Yu Gothic', 'Segoe UI', sans-serif" font-weight="700" text-anchor="middle">4</text><path d="M101.0,378.5 H60.0 V378.5 H58.0" fill="none" stroke="#d1483b" stroke-width="1.0" stroke-linecap="round" stroke-linejoin="round"/><circle cx="101.0" cy="378.5" r="2.0" fill="#d1483b"/><circle cx="48.0" cy="378.5" r="9.5" fill="#d1483b"/><text x="48.0" y="382.3" font-size="11" fill="#ffffff" font-family="-apple-system, BlinkMacSystemFont, 'Hiragino Sans', 'Noto Sans JP', 'Yu Gothic', 'Segoe UI', sans-serif" font-weight="700" text-anchor="middle">5</text><line x1="225.0" y1="718.0" x2="225.0" y2="731.0" stroke="#1f2328" stroke-width="1.5" stroke-linecap="round"/><path d="M220.5,727.0 L225.0,732.0 L229.5,727.0" fill="none" stroke="#1f2328" stroke-width="1.5" stroke-linecap="round" stroke-linejoin="round"/><circle cx="225.0" cy="744.5" r="9.5" fill="#ffffff" stroke="#1f2328" stroke-width="1.6"/><text x="225.0" y="748.5" font-size="12" fill="#1f2328" font-family="-apple-system, BlinkMacSystemFont, 'Hiragino Sans', 'Noto Sans JP', 'Yu Gothic', 'Segoe UI', sans-serif" font-weight="700" text-anchor="middle">A</text><line x1="655.0" y1="46.0" x2="655.0" y2="61.0" stroke="#1f2328" stroke-width="1.5" stroke-linecap="round"/><path d="M650.5,56.0 L655.0,61.0 L659.5,56.0" fill="none" stroke="#1f2328" stroke-width="1.5" stroke-linecap="round" stroke-linejoin="round"/><circle cx="655.0" cy="36.5" r="9.5" fill="#ffffff" stroke="#1f2328" stroke-width="1.6"/><text x="655.0" y="40.5" font-size="12" fill="#1f2328" font-family="-apple-system, BlinkMacSystemFont, 'Hiragino Sans', 'Noto Sans JP', 'Yu Gothic', 'Segoe UI', sans-serif" font-weight="700" text-anchor="middle">A</text><rect x="498.0" y="62.0" width="314.0" height="654.0" fill="#ffffff" rx="26.0" stroke="#c3cad4" stroke-width="1.6"/><defs><clipPath id="s100"><rect x="505.0" y="69.0" width="300.0" height="640.0" rx="19.0"/></clipPath></defs><g clip-path="url(#s100)"><rect x="505.0" y="69.0" width="300.0" height="640.0" fill="#ffffff"/><text x="517.0" y="84.0" font-size="9.5" fill="#6b7280" font-family="-apple-system, BlinkMacSystemFont, 'Hiragino Sans', 'Noto Sans JP', 'Yu Gothic', 'Segoe UI', sans-serif" font-weight="700">9:41</text><rect x="761.0" y="80.0" width="10.0" height="6.2" fill="#c3cad4" rx="1.5"/><rect x="775.0" y="79.0" width="10.0" height="7.5" fill="#c3cad4" rx="1.5"/><rect x="789.0" y="77.0" width="10.0" height="10.0" fill="#c3cad4" rx="1.5"/><defs><clipPath id="c101"><rect x="505.0" y="91.0" width="300.0" height="618.0" rx="0.0"/></clipPath></defs><g clip-path="url(#c101)"><text x="519.0" y="110.0" font-size="11.0" fill="#6b7280" font-family="-apple-system, BlinkMacSystemFont, 'Hiragino Sans', 'Noto Sans JP', 'Yu Gothic', 'Segoe UI', sans-serif" font-weight="600">お返し</text><rect x="519.0" y="129.0" width="272.0" height="79.5" fill="#ffffff" rx="10.0" stroke="#c3cad4" stroke-width="1.2"/><text x="531.0" y="149.6" font-size="10.5" fill="#1f2328" font-family="-apple-system, BlinkMacSystemFont, 'Hiragino Sans', 'Noto Sans JP', 'Yu Gothic', 'Segoe UI', sans-serif" font-weight="400">お返しの状況</text><rect x="531.0" y="166.5" width="248.0" height="30.0" fill="#f4f5f7" rx="8.0" stroke="#c3cad4" stroke-width="1.1"/><rect x="533.0" y="168.5" width="78.7" height="26.0" fill="#ffffff" rx="6.0" stroke="#c3cad4" stroke-width="1.0"/><text x="572.3" y="183.9" font-size="11.5" fill="#1f2328" font-family="-apple-system, BlinkMacSystemFont, 'Hiragino Sans', 'Noto Sans JP', 'Yu Gothic', 'Segoe UI', sans-serif" font-weight="600" text-anchor="middle">これから</text><text x="655.0" y="183.9" font-size="11.5" fill="#6b7280" font-family="-apple-system, BlinkMacSystemFont, 'Hiragino Sans', 'Noto Sans JP', 'Yu Gothic', 'Segoe UI', sans-serif" font-weight="400" text-anchor="middle">済んだ</text><text x="737.7" y="183.9" font-size="11.5" fill="#6b7280" font-family="-apple-system, BlinkMacSystemFont, 'Hiragino Sans', 'Noto Sans JP', 'Yu Gothic', 'Segoe UI', sans-serif" font-weight="400" text-anchor="middle">今回なし</text><text x="519.0" y="239.5" font-size="11.0" fill="#6b7280" font-family="-apple-system, BlinkMacSystemFont, 'Hiragino Sans', 'Noto Sans JP', 'Yu Gothic', 'Segoe UI', sans-serif" font-weight="600">お返しの候補</text><line x1="654.0" y1="240.5" x2="658.0" y2="236.5" stroke="#A9663F" stroke-width="1.3458333333333334" stroke-linecap="round"/><path d="M655.55,239.75 L655.87,240.31 L656.07,240.92 L656.14,241.56 L656.09,242.21 L655.91,242.83 L655.61,243.40 L655.21,243.90 L654.71,244.32 L654.14,244.62 L653.53,244.81 L652.88,244.88 L652.24,244.81 L651.62,244.62 L651.06,244.32 L650.56,243.90 L650.16,243.40 L649.86,242.83 L649.68,242.21 L649.63,241.56 L649.70,240.92 L649.90,240.31 L650.21,239.75" fill="none" stroke="#A9663F" stroke-width="1.3458333333333334" stroke-linecap="round" stroke-linejoin="round"/><path d="M656.45,237.25 L656.13,236.69 L655.93,236.08 L655.86,235.44 L655.91,234.79 L656.09,234.17 L656.39,233.60 L656.79,233.10 L657.29,232.68 L657.86,232.38 L658.47,232.19 L659.12,232.12 L659.76,232.19 L660.38,232.38 L660.94,232.68 L661.44,233.10 L661.84,233.60 L662.14,234.17 L662.32,234.79 L662.37,235.44 L662.30,236.08 L662.10,236.69 L661.79,237.25" fill="none" stroke="#A9663F" stroke-width="1.3458333333333334" stroke-linecap="round" stroke-linejoin="round"/><text x="670.5" y="243.0" font-size="12.5" fill="#A9663F" font-family="-apple-system, BlinkMacSystemFont, 'Hiragino Sans', 'Noto Sans JP', 'Yu Gothic', 'Segoe UI', sans-serif" font-weight="600">紐づける</text><line x1="744.5" y1="233.2" x2="744.5" y2="243.8" stroke="#A9663F" stroke-width="1.3458333333333334" stroke-linecap="round"/><line x1="739.2" y1="238.5" x2="749.8" y2="238.5" stroke="#A9663F" stroke-width="1.3458333333333334" stroke-linecap="round"/><text x="759.0" y="243.0" font-size="12.5" fill="#A9663F" font-family="-apple-system, BlinkMacSystemFont, 'Hiragino Sans', 'Noto Sans JP', 'Yu Gothic', 'Segoe UI', sans-serif" font-weight="600">追加</text><rect x="519.0" y="268.5" width="131.0" height="120.0" fill="#ffffff" rx="10.0" stroke="#c3cad4" stroke-width="1.2"/><rect x="531.0" y="280.5" width="107.0" height="70.0" fill="#f4f5f7" rx="6.0" stroke="#c3cad4" stroke-width="1.2"/><line x1="531.0" y1="280.5" x2="638.0" y2="350.5" stroke="#c3cad4" stroke-width="1.0" stroke-linecap="butt" opacity="0.75"/><line x1="638.0" y1="280.5" x2="531.0" y2="350.5" stroke="#c3cad4" stroke-width="1.0" stroke-linecap="butt" opacity="0.75"/><rect x="550.0" y="305.5" width="69.0" height="20.0" fill="#ffffff" rx="10.0"/><text x="584.5" y="317.5" font-size="11" fill="#6b7280" font-family="-apple-system, BlinkMacSystemFont, 'Hiragino Sans', 'Noto Sans JP', 'Yu Gothic', 'Segoe UI', sans-serif" font-weight="600" text-anchor="middle">候補の写真</text><text x="531.0" y="369.5" font-size="11.0" fill="#1f2328" font-family="-apple-system, BlinkMacSystemFont, 'Hiragino Sans', 'Noto Sans JP', 'Yu Gothic', 'Segoe UI', sans-serif" font-weight="600">候補タイトル</text><rect x="660.0" y="268.5" width="131.0" height="106.0" fill="#ffffff" rx="10.0" stroke="#c3cad4" stroke-width="1.2"/><path d="M674.33,282.83 L679.33,282.83 L685.67,289.17 L680.67,294.17 L674.33,287.83 Z" fill="none" stroke="#1f2328" stroke-width="1.2666666666666666" stroke-linecap="round" stroke-linejoin="round"/><circle cx="677.1" cy="285.6" r="1.1" fill="none" stroke="#1f2328" stroke-width="1.2666666666666666"/><text x="672.0" y="315.5" font-size="11.0" fill="#1f2328" font-family="-apple-system, BlinkMacSystemFont, 'Hiragino Sans', 'Noto Sans JP', 'Yu Gothic', 'Segoe UI', sans-serif" font-weight="600">候補タイトル</text></g><line x1="515.0" y1="704.0" x2="795.0" y2="704.0" stroke="#c3cad4" stroke-width="1.2" stroke-linecap="butt" stroke-dasharray="3 4"/></g><path d="M791.0,168.8 H820.0 V168.8 H822.0" fill="none" stroke="#d1483b" stroke-width="1.0" stroke-linecap="round" stroke-linejoin="round"/><circle cx="791.0" cy="168.8" r="2.0" fill="#d1483b"/><circle cx="832.0" cy="168.8" r="9.5" fill="#d1483b"/><text x="832.0" y="172.6" font-size="11" fill="#ffffff" font-family="-apple-system, BlinkMacSystemFont, 'Hiragino Sans', 'Noto Sans JP', 'Yu Gothic', 'Segoe UI', sans-serif" font-weight="700" text-anchor="middle">7</text><path d="M725.0,238.5 H820.0 V238.5 H822.0" fill="none" stroke="#2b7a6f" stroke-width="1.0" stroke-linecap="round" stroke-linejoin="round"/><circle cx="725.0" cy="238.5" r="2.0" fill="#2b7a6f"/><rect x="822.5" y="229.0" width="19.0" height="19.0" fill="#2b7a6f" rx="5.0"/><text x="832.0" y="242.3" font-size="11" fill="#ffffff" font-family="-apple-system, BlinkMacSystemFont, 'Hiragino Sans', 'Noto Sans JP', 'Yu Gothic', 'Segoe UI', sans-serif" font-weight="700" text-anchor="middle">9</text><path d="M791.0,238.5 H820.0 V261.5 H822.0" fill="none" stroke="#2b7a6f" stroke-width="1.0" stroke-linecap="round" stroke-linejoin="round"/><circle cx="791.0" cy="238.5" r="2.0" fill="#2b7a6f"/><rect x="822.5" y="252.0" width="19.0" height="19.0" fill="#2b7a6f" rx="5.0"/><text x="832.0" y="265.3" font-size="11" fill="#ffffff" font-family="-apple-system, BlinkMacSystemFont, 'Hiragino Sans', 'Noto Sans JP', 'Yu Gothic', 'Segoe UI', sans-serif" font-weight="700" text-anchor="middle">10</text><path d="M791.0,328.5 H820.0 V328.5 H822.0" fill="none" stroke="#2b7a6f" stroke-width="1.0" stroke-linecap="round" stroke-linejoin="round"/><circle cx="791.0" cy="328.5" r="2.0" fill="#2b7a6f"/><rect x="822.5" y="319.0" width="19.0" height="19.0" fill="#2b7a6f" rx="5.0"/><text x="832.0" y="332.3" font-size="11" fill="#ffffff" font-family="-apple-system, BlinkMacSystemFont, 'Hiragino Sans', 'Noto Sans JP', 'Yu Gothic', 'Segoe UI', sans-serif" font-weight="700" text-anchor="middle">11</text><path d="M531.0,181.5 H490.0 V181.5 H488.0" fill="none" stroke="#2b7a6f" stroke-width="1.0" stroke-linecap="round" stroke-linejoin="round"/><circle cx="531.0" cy="181.5" r="2.0" fill="#2b7a6f"/><rect x="468.5" y="172.0" width="19.0" height="19.0" fill="#2b7a6f" rx="5.0"/><text x="478.0" y="185.3" font-size="11" fill="#ffffff" font-family="-apple-system, BlinkMacSystemFont, 'Hiragino Sans', 'Noto Sans JP', 'Yu Gothic', 'Segoe UI', sans-serif" font-weight="700" text-anchor="middle">8</text></svg>