<svg xmlns="http://www.w3.org/2000/svg" width="880" height="782" viewBox="0 0 880 782"><title>レシートから明細を読み取る</title><rect x="0" y="0" width="880" height="782" fill="#ffffff"/><rect x="68.0" y="62.0" width="314.0" height="654.0" fill="#ffffff" rx="26.0" stroke="#c3cad4" stroke-width="1.6"/><defs><clipPath id="s0"><rect x="75.0" y="69.0" width="300.0" height="640.0" rx="19.0"/></clipPath></defs><g clip-path="url(#s0)"><rect x="75.0" y="69.0" width="300.0" height="640.0" fill="#ffffff"/><text x="87.0" y="84.0" font-size="9.5" fill="#6b7280" font-family="-apple-system, BlinkMacSystemFont, 'Hiragino Sans', 'Noto Sans JP', 'Yu Gothic', 'Segoe UI', sans-serif" font-weight="700">9:41</text><rect x="331.0" y="80.0" width="10.0" height="6.2" fill="#c3cad4" rx="1.5"/><rect x="345.0" y="79.0" width="10.0" height="7.5" fill="#c3cad4" rx="1.5"/><rect x="359.0" y="77.0" width="10.0" height="10.0" fill="#c3cad4" rx="1.5"/><rect x="75.0" y="91.0" width="300.0" height="46.0" fill="#f4f5f7"/><line x1="75.0" y1="137.0" x2="375.0" y2="137.0" stroke="#e3e7ed" stroke-width="1.1" stroke-linecap="butt"/><line x1="89.2" y1="108.2" x2="100.8" y2="119.8" stroke="#1f2328" stroke-width="1.5833333333333333" stroke-linecap="round"/><line x1="100.8" y1="108.2" x2="89.2" y2="119.8" stroke="#1f2328" stroke-width="1.5833333333333333" stroke-linecap="round"/><text x="131.0" y="119.0" font-size="13.5" fill="#1f2328" font-family="-apple-system, BlinkMacSystemFont, 'Hiragino Sans', 'Noto Sans JP', 'Yu Gothic', 'Segoe UI', sans-serif" font-weight="700">レシートから明細</text><defs><clipPath id="c1"><rect x="75.0" y="137.0" width="300.0" height="572.0" rx="0.0"/></clipPath></defs><g clip-path="url(#c1)"><text x="89.0" y="158.9" font-size="14.5" fill="#1f2328" font-family="-apple-system, BlinkMacSystemFont, 'Hiragino Sans', 'Noto Sans JP', 'Yu Gothic', 'Segoe UI', sans-serif" font-weight="700">この会計として取り込みます</text><rect x="89.0" y="180.0" width="272.0" height="91.0" fill="#ffffff" rx="10.0" stroke="#c3cad4" stroke-width="1.2"/><text x="101.0" y="202.5" font-size="11.0" fill="#1f2328" font-family="-apple-system, BlinkMacSystemFont, 'Hiragino Sans', 'Noto Sans JP', 'Yu Gothic', 'Segoe UI', sans-serif" font-weight="600">日付:</text><text x="349.0" y="202.2" font-size="12.5" fill="#1f2328" font-family="-apple-system, BlinkMacSystemFont, 'Hiragino Sans', 'Noto Sans JP', 'Yu Gothic', 'Segoe UI', sans-serif" font-weight="400" text-anchor="end">2026年8月25日</text><line x1="101.0" y1="225.5" x2="349.0" y2="225.5" stroke="#e3e7ed" stroke-width="1.1" stroke-linecap="butt"/><text x="101.0" y="250.5" font-size="11.0" fill="#1f2328" font-family="-apple-system, BlinkMacSystemFont, 'Hiragino Sans', 'Noto Sans JP', 'Yu Gothic', 'Segoe UI', sans-serif" font-weight="600">会計メモ:</text><text x="349.0" y="250.2" font-size="12.5" fill="#1f2328" font-family="-apple-system, BlinkMacSystemFont, 'Hiragino Sans', 'Noto Sans JP', 'Yu Gothic', 'Segoe UI', sans-serif" font-weight="400" text-anchor="end">〇〇スーパー</text><text x="89.0" y="299.9" font-size="14.5" fill="#1f2328" font-family="-apple-system, BlinkMacSystemFont, 'Hiragino Sans', 'Noto Sans JP', 'Yu Gothic', 'Segoe UI', sans-serif" font-weight="700">カテゴリ</text><text x="361.0" y="291.6" font-size="10.5" fill="#1f2328" font-family="-apple-system, BlinkMacSystemFont, 'Hiragino Sans', 'Noto Sans JP', 'Yu Gothic', 'Segoe UI', sans-serif" font-weight="400" text-anchor="end">取り込む明細すべてに設定</text><text x="361.0" y="307.1" font-size="10.5" fill="#1f2328" font-family="-apple-system, BlinkMacSystemFont, 'Hiragino Sans', 'Noto Sans JP', 'Yu Gothic', 'Segoe UI', sans-serif" font-weight="400" text-anchor="end">します</text><defs><clipPath id="h2"><rect x="89.0" y="324.0" width="272.0" height="64.0" rx="0.0"/></clipPath></defs><g clip-path="url(#h2)"><circle cx="110.0" cy="347.0" r="21.0" fill="#9aa3af"/><circle cx="110.0" cy="343.0" r="6.2" fill="none" stroke="#ffffff" stroke-width="1.3458333333333334"/><path d="M107.88,340.31 L108.03,339.91 L108.25,339.55 L108.54,339.24 L108.88,338.99 L109.26,338.81 L109.67,338.70 L110.10,338.68 L110.52,338.74 L110.92,338.88 L111.28,339.09 L111.60,339.37 L111.86,339.71 L112.05,340.09 L112.16,340.49" fill="none" stroke="#ffffff" stroke-width="1.3458333333333334" stroke-linecap="round" stroke-linejoin="round"/><line x1="112.2" y1="340.5" x2="110.0" y2="344.6" stroke="#ffffff" stroke-width="1.3458333333333334" stroke-linecap="round"/><circle cx="110.0" cy="346.7" r="0.7" fill="#ffffff" stroke="#ffffff" stroke-width="0.8075"/><text x="110.0" y="360.0" font-size="8.5" fill="#ffffff" font-family="-apple-system, BlinkMacSystemFont, 'Hiragino Sans', 'Noto Sans JP', 'Yu Gothic', 'Segoe UI', sans-serif" font-weight="600" text-anchor="middle">未設定</text><circle cx="160.0" cy="347.0" r="21.0" fill="#4A3986"/><line x1="155.2" y1="336.8" x2="155.2" y2="340.2" stroke="#ffffff" stroke-width="1.3458333333333334" stroke-linecap="round"/><line x1="156.7" y1="336.8" x2="156.7" y2="340.2" stroke="#ffffff" stroke-width="1.3458333333333334" stroke-linecap="round"/><line x1="158.3" y1="336.8" x2="158.3" y2="340.2" stroke="#ffffff" stroke-width="1.3458333333333334" stroke-linecap="round"/><line x1="155.2" y1="340.2" x2="158.3" y2="340.2" stroke="#ffffff" stroke-width="1.3458333333333334" stroke-linecap="round"/><line x1="156.7" y1="340.2" x2="156.7" y2="349.2" stroke="#ffffff" stroke-width="1.3458333333333334" stroke-linecap="round"/><path d="M162.41,336.91 L164.68,339.18 L164.68,343.14 L162.41,343.14 Z" fill="none" stroke="#ffffff" stroke-width="1.3458333333333334" stroke-linecap="round" stroke-linejoin="round"/><line x1="163.5" y1="343.1" x2="163.5" y2="349.2" stroke="#ffffff" stroke-width="1.3458333333333334" stroke-linecap="round"/><text x="160.0" y="360.0" font-size="8.5" fill="#ffffff" font-family="-apple-system, BlinkMacSystemFont, 'Hiragino Sans', 'Noto Sans JP', 'Yu Gothic', 'Segoe UI', sans-serif" font-weight="600" text-anchor="middle">食費</text><circle cx="210.0" cy="347.0" r="21.0" fill="#9aa3af"/><path d="M203.20,337.48 L205.18,337.48 L206.46,340.17" fill="none" stroke="#ffffff" stroke-width="1.3458333333333334" stroke-linecap="round" stroke-linejoin="round"/><path d="M206.46,340.17 L216.66,340.17 L215.10,345.12 L208.30,345.12 Z" fill="none" stroke="#ffffff" stroke-width="1.3458333333333334" stroke-linecap="round" stroke-linejoin="round"/><circle cx="208.7" cy="348.1" r="1.1" fill="none" stroke="#ffffff" stroke-width="1.3458333333333334"/><circle cx="214.0" cy="348.1" r="1.1" fill="none" stroke="#ffffff" stroke-width="1.3458333333333334"/><text x="210.0" y="360.0" font-size="8.5" fill="#ffffff" font-family="-apple-system, BlinkMacSystemFont, 'Hiragino Sans', 'Noto Sans JP', 'Yu Gothic', 'Segoe UI', sans-serif" font-weight="600" text-anchor="middle">日用品</text><circle cx="260.0" cy="347.0" r="21.0" fill="#9aa3af"/><rect x="253.3" y="342.6" width="13.3" height="4.7" fill="none" rx="1.4" stroke="#ffffff" stroke-width="1.3458333333333334"/><path d="M255.47,342.57 L256.74,339.18 L263.26,339.18 L264.53,342.57" fill="none" stroke="#ffffff" stroke-width="1.3458333333333334" stroke-linecap="round" stroke-linejoin="round"/><circle cx="256.5" cy="347.5" r="1.1" fill="none" stroke="#ffffff" stroke-width="1.3458333333333334"/><circle cx="263.5" cy="347.5" r="1.1" fill="none" stroke="#ffffff" stroke-width="1.3458333333333334"/><text x="260.0" y="360.0" font-size="8.5" fill="#ffffff" font-family="-apple-system, BlinkMacSystemFont, 'Hiragino Sans', 'Noto Sans JP', 'Yu Gothic', 'Segoe UI', sans-serif" font-weight="600" text-anchor="middle">交通</text><circle cx="310.0" cy="347.0" r="21.0" fill="#9aa3af"/><line x1="303.3" y1="339.6" x2="303.3" y2="349.1" stroke="#ffffff" stroke-width="1.3458333333333334" stroke-linecap="round"/><rect x="303.3" y="343.1" width="13.5" height="3.4" fill="none" rx="1.0" stroke="#ffffff" stroke-width="1.3458333333333334"/><line x1="316.7" y1="346.5" x2="316.7" y2="349.1" stroke="#ffffff" stroke-width="1.3458333333333334" stroke-linecap="round"/><rect x="305.0" y="341.0" width="3.4" height="2.1" fill="none" rx="0.7" stroke="#ffffff" stroke-width="1.3458333333333334"/><text x="310.0" y="360.0" font-size="8.5" fill="#ffffff" font-family="-apple-system, BlinkMacSystemFont, 'Hiragino Sans', 'Noto Sans JP', 'Yu Gothic', 'Segoe UI', sans-serif" font-weight="600" text-anchor="middle">宿泊</text></g><text x="89.0" y="414.9" font-size="14.5" fill="#1f2328" font-family="-apple-system, BlinkMacSystemFont, 'Hiragino Sans', 'Noto Sans JP', 'Yu Gothic', 'Segoe UI', sans-serif" font-weight="700">割り勘の対象は？</text><text x="361.0" y="406.6" font-size="10.5" fill="#1f2328" font-family="-apple-system, BlinkMacSystemFont, 'Hiragino Sans', 'Noto Sans JP', 'Yu Gothic', 'Segoe UI', sans-serif" font-weight="400" text-anchor="end">取り込む明細すべてに設定</text><text x="361.0" y="422.1" font-size="10.5" fill="#1f2328" font-family="-apple-system, BlinkMacSystemFont, 'Hiragino Sans', 'Noto Sans JP', 'Yu Gothic', 'Segoe UI', sans-serif" font-weight="400" text-anchor="end">します</text><defs><clipPath id="h3"><rect x="89.0" y="439.0" width="272.0" height="64.0" rx="0.0"/></clipPath></defs><g clip-path="url(#h3)"><circle cx="110.0" cy="462.0" r="21.0" fill="#e0559a"/><circle cx="110.0" cy="455.3" r="2.6" fill="none" stroke="#ffffff" stroke-width="1.3458333333333334"/><path d="M104.90,464.38 L104.99,463.44 L105.24,462.53 L105.66,461.69 L106.23,460.94 L106.93,460.31 L107.73,459.81 L108.60,459.47 L109.53,459.30 L110.47,459.30 L111.40,459.47 L112.27,459.81 L113.07,460.31 L113.77,460.94 L114.34,461.69 L114.76,462.53 L115.01,463.44 L115.10,464.38" fill="none" stroke="#ffffff" stroke-width="1.3458333333333334" stroke-linecap="round" stroke-linejoin="round"/><text x="110.0" y="475.0" font-size="8.5" fill="#ffffff" font-family="-apple-system, BlinkMacSystemFont, 'Hiragino Sans', 'Noto Sans JP', 'Yu Gothic', 'Segoe UI', sans-serif" font-weight="600" text-anchor="middle">優希</text><circle cx="160.0" cy="462.0" r="21.0" fill="#e0559a"/><circle cx="160.0" cy="455.3" r="2.6" fill="none" stroke="#ffffff" stroke-width="1.3458333333333334"/><path d="M154.90,464.38 L154.99,463.44 L155.24,462.53 L155.66,461.69 L156.23,460.94 L156.93,460.31 L157.73,459.81 L158.60,459.47 L159.53,459.30 L160.47,459.30 L161.40,459.47 L162.27,459.81 L163.07,460.31 L163.77,460.94 L164.34,461.69 L164.76,462.53 L165.01,463.44 L165.10,464.38" fill="none" stroke="#ffffff" stroke-width="1.3458333333333334" stroke-linecap="round" stroke-linejoin="round"/><text x="160.0" y="475.0" font-size="8.5" fill="#ffffff" font-family="-apple-system, BlinkMacSystemFont, 'Hiragino Sans', 'Noto Sans JP', 'Yu Gothic', 'Segoe UI', sans-serif" font-weight="600" text-anchor="middle">ゆーり</text><circle cx="210.0" cy="462.0" r="21.0" fill="#e0559a"/><circle cx="210.0" cy="455.3" r="2.6" fill="none" stroke="#ffffff" stroke-width="1.3458333333333334"/><path d="M204.90,464.38 L204.99,463.44 L205.24,462.53 L205.66,461.69 L206.23,460.94 L206.93,460.31 L207.73,459.81 L208.60,459.47 L209.53,459.30 L210.47,459.30 L211.40,459.47 L212.27,459.81 L213.07,460.31 L213.77,460.94 L214.34,461.69 L214.76,462.53 L215.01,463.44 L215.10,464.38" fill="none" stroke="#ffffff" stroke-width="1.3458333333333334" stroke-linecap="round" stroke-linejoin="round"/><text x="210.0" y="475.0" font-size="8.5" fill="#ffffff" font-family="-apple-system, BlinkMacSystemFont, 'Hiragino Sans', 'Noto Sans JP', 'Yu Gothic', 'Segoe UI', sans-serif" font-weight="600" text-anchor="middle">たけこ</text></g><rect x="89.0" y="513.0" width="76.0" height="40.0" fill="#ffffff" rx="20.0" stroke="#4A3986" stroke-width="1.4"/><text x="108.2" y="537.5" font-size="12.5" fill="#4A3986" font-family="-apple-system, BlinkMacSystemFont, 'Hiragino Sans', 'Noto Sans JP', 'Yu Gothic', 'Segoe UI', sans-serif" font-weight="600">全選択</text><rect x="173.0" y="513.0" width="76.0" height="40.0" fill="#ffffff" rx="20.0" stroke="#4A3986" stroke-width="1.4"/><text x="192.2" y="537.5" font-size="12.5" fill="#4A3986" font-family="-apple-system, BlinkMacSystemFont, 'Hiragino Sans', 'Noto Sans JP', 'Yu Gothic', 'Segoe UI', sans-serif" font-weight="600">全解除</text></g><line x1="85.0" y1="704.0" x2="365.0" y2="704.0" stroke="#c3cad4" stroke-width="1.2" stroke-linecap="butt" stroke-dasharray="3 4"/></g><path d="M361.0,225.5 H390.0 V225.5 H392.0" fill="none" stroke="#d1483b" stroke-width="1.0" stroke-linecap="round" stroke-linejoin="round"/><circle cx="361.0" cy="225.5" r="2.0" fill="#d1483b"/><circle cx="402.0" cy="225.5" r="9.5" fill="#d1483b"/><text x="402.0" y="229.3" font-size="11" fill="#ffffff" font-family="-apple-system, BlinkMacSystemFont, 'Hiragino Sans', 'Noto Sans JP', 'Yu Gothic', 'Segoe UI', sans-serif" font-weight="700" text-anchor="middle">2</text><path d="M81.0,114.0 H60.0 V114.0 H58.0" fill="none" stroke="#2b7a6f" stroke-width="1.0" stroke-linecap="round" stroke-linejoin="round"/><circle cx="81.0" cy="114.0" r="2.0" fill="#2b7a6f"/><rect x="38.5" y="104.5" width="19.0" height="19.0" fill="#2b7a6f" rx="5.0"/><text x="48.0" y="117.8" font-size="11" fill="#ffffff" font-family="-apple-system, BlinkMacSystemFont, 'Hiragino Sans', 'Noto Sans JP', 'Yu Gothic', 'Segoe UI', sans-serif" font-weight="700" text-anchor="middle">1</text><path d="M89.0,356.0 H60.0 V356.0 H58.0" fill="none" stroke="#d1483b" stroke-width="1.0" stroke-linecap="round" stroke-linejoin="round"/><circle cx="89.0" cy="356.0" r="2.0" fill="#d1483b"/><circle cx="48.0" cy="356.0" r="9.5" fill="#d1483b"/><text x="48.0" y="359.8" font-size="11" fill="#ffffff" font-family="-apple-system, BlinkMacSystemFont, 'Hiragino Sans', 'Noto Sans JP', 'Yu Gothic', 'Segoe UI', sans-serif" font-weight="700" text-anchor="middle">3</text><path d="M89.0,471.0 H60.0 V471.0 H58.0" fill="none" stroke="#d1483b" stroke-width="1.0" stroke-linecap="round" stroke-linejoin="round"/><circle cx="89.0" cy="471.0" r="2.0" fill="#d1483b"/><circle cx="48.0" cy="471.0" r="9.5" fill="#d1483b"/><text x="48.0" y="474.8" font-size="11" fill="#ffffff" font-family="-apple-system, BlinkMacSystemFont, 'Hiragino Sans', 'Noto Sans JP', 'Yu Gothic', 'Segoe UI', sans-serif" font-weight="700" text-anchor="middle">4</text><line x1="225.0" y1="718.0" x2="225.0" y2="731.0" stroke="#1f2328" stroke-width="1.5" stroke-linecap="round"/><path d="M220.5,727.0 L225.0,732.0 L229.5,727.0" fill="none" stroke="#1f2328" stroke-width="1.5" stroke-linecap="round" stroke-linejoin="round"/><circle cx="225.0" cy="744.5" r="9.5" fill="#ffffff" stroke="#1f2328" stroke-width="1.6"/><text x="225.0" y="748.5" font-size="12" fill="#1f2328" font-family="-apple-system, BlinkMacSystemFont, 'Hiragino Sans', 'Noto Sans JP', 'Yu Gothic', 'Segoe UI', sans-serif" font-weight="700" text-anchor="middle">A</text><line x1="655.0" y1="46.0" x2="655.0" y2="61.0" stroke="#1f2328" stroke-width="1.5" stroke-linecap="round"/><path d="M650.5,56.0 L655.0,61.0 L659.5,56.0" fill="none" stroke="#1f2328" stroke-width="1.5" stroke-linecap="round" stroke-linejoin="round"/><circle cx="655.0" cy="36.5" r="9.5" fill="#ffffff" stroke="#1f2328" stroke-width="1.6"/><text x="655.0" y="40.5" font-size="12" fill="#1f2328" font-family="-apple-system, BlinkMacSystemFont, 'Hiragino Sans', 'Noto Sans JP', 'Yu Gothic', 'Segoe UI', sans-serif" font-weight="700" text-anchor="middle">A</text><rect x="498.0" y="62.0" width="314.0" height="654.0" fill="#ffffff" rx="26.0" stroke="#c3cad4" stroke-width="1.6"/><defs><clipPath id="s100"><rect x="505.0" y="69.0" width="300.0" height="640.0" rx="19.0"/></clipPath></defs><g clip-path="url(#s100)"><rect x="505.0" y="69.0" width="300.0" height="640.0" fill="#ffffff"/><text x="517.0" y="84.0" font-size="9.5" fill="#6b7280" font-family="-apple-system, BlinkMacSystemFont, 'Hiragino Sans', 'Noto Sans JP', 'Yu Gothic', 'Segoe UI', sans-serif" font-weight="700">9:41</text><rect x="761.0" y="80.0" width="10.0" height="6.2" fill="#c3cad4" rx="1.5"/><rect x="775.0" y="79.0" width="10.0" height="7.5" fill="#c3cad4" rx="1.5"/><rect x="789.0" y="77.0" width="10.0" height="10.0" fill="#c3cad4" rx="1.5"/><defs><clipPath id="c101"><rect x="505.0" y="91.0" width="300.0" height="558.0" rx="0.0"/></clipPath></defs><g clip-path="url(#c101)"><text x="519.0" y="122.4" font-size="14.5" fill="#1f2328" font-family="-apple-system, BlinkMacSystemFont, 'Hiragino Sans', 'Noto Sans JP', 'Yu Gothic', 'Segoe UI', sans-serif" font-weight="700">明細</text><rect x="715.0" y="101.0" width="76.0" height="40.0" fill="#ffffff" rx="20.0" stroke="#4A3986" stroke-width="1.4"/><text x="734.2" y="125.5" font-size="12.5" fill="#4A3986" font-family="-apple-system, BlinkMacSystemFont, 'Hiragino Sans', 'Noto Sans JP', 'Yu Gothic', 'Segoe UI', sans-serif" font-weight="600">全解除</text><circle cx="532.0" cy="175.0" r="8.1" fill="none" stroke="#6b7280" stroke-width="1.7416666666666665"/><path d="M527.97,175.37 L530.90,178.48 L536.22,171.88" fill="none" stroke="#6b7280" stroke-width="1.7416666666666665" stroke-linecap="round" stroke-linejoin="round"/><text x="791.0" y="177.4" font-size="11.5" fill="#6b7280" font-family="-apple-system, BlinkMacSystemFont, 'Hiragino Sans', 'Noto Sans JP', 'Yu Gothic', 'Segoe UI', sans-serif" font-weight="600" text-anchor="end">￥5</text><text x="555.0" y="177.8" font-size="12.5" fill="#1f2328" font-family="-apple-system, BlinkMacSystemFont, 'Hiragino Sans', 'Noto Sans JP', 'Yu Gothic', 'Segoe UI', sans-serif" font-weight="600">レジ袋</text><line x1="555.0" y1="197.0" x2="791.0" y2="197.0" stroke="#e3e7ed" stroke-width="1.0" stroke-linecap="butt"/><circle cx="532.0" cy="225.0" r="8.1" fill="none" stroke="#6b7280" stroke-width="1.7416666666666665"/><path d="M527.97,225.37 L530.90,228.48 L536.22,221.88" fill="none" stroke="#6b7280" stroke-width="1.7416666666666665" stroke-linecap="round" stroke-linejoin="round"/><text x="791.0" y="227.4" font-size="11.5" fill="#6b7280" font-family="-apple-system, BlinkMacSystemFont, 'Hiragino Sans', 'Noto Sans JP', 'Yu Gothic', 'Segoe UI', sans-serif" font-weight="600" text-anchor="end">￥361</text><text x="555.0" y="219.2" font-size="12.5" fill="#1f2328" font-family="-apple-system, BlinkMacSystemFont, 'Hiragino Sans', 'Noto Sans JP', 'Yu Gothic', 'Segoe UI', sans-serif" font-weight="600">洗剤 詰替</text><text x="555.0" y="236.2" font-size="11" fill="#6b7280" font-family="-apple-system, BlinkMacSystemFont, 'Hiragino Sans', 'Noto Sans JP', 'Yu Gothic', 'Segoe UI', sans-serif" font-weight="400">印字￥328  外税 +￥33</text><line x1="555.0" y1="253.0" x2="791.0" y2="253.0" stroke="#e3e7ed" stroke-width="1.0" stroke-linecap="butt"/><circle cx="532.0" cy="289.0" r="8.1" fill="none" stroke="#6b7280" stroke-width="1.7416666666666665"/><path d="M527.97,289.37 L530.90,292.48 L536.22,285.88" fill="none" stroke="#6b7280" stroke-width="1.7416666666666665" stroke-linecap="round" stroke-linejoin="round"/><text x="791.0" y="291.4" font-size="11.5" fill="#6b7280" font-family="-apple-system, BlinkMacSystemFont, 'Hiragino Sans', 'Noto Sans JP', 'Yu Gothic', 'Segoe UI', sans-serif" font-weight="600" text-anchor="end">￥1,126</text><text x="555.0" y="275.2" font-size="12.5" fill="#1f2328" font-family="-apple-system, BlinkMacSystemFont, 'Hiragino Sans', 'Noto Sans JP', 'Yu Gothic', 'Segoe UI', sans-serif" font-weight="600">保冷バッグ</text><text x="555.0" y="292.2" font-size="11" fill="#6b7280" font-family="-apple-system, BlinkMacSystemFont, 'Hiragino Sans', 'Noto Sans JP', 'Yu Gothic', 'Segoe UI', sans-serif" font-weight="400">印字￥1,280  値引 -￥256  外税 +</text><text x="555.0" y="307.2" font-size="11" fill="#6b7280" font-family="-apple-system, BlinkMacSystemFont, 'Hiragino Sans', 'Noto Sans JP', 'Yu Gothic', 'Segoe UI', sans-serif" font-weight="400">￥102</text><line x1="555.0" y1="325.0" x2="791.0" y2="325.0" stroke="#e3e7ed" stroke-width="1.0" stroke-linecap="butt"/><circle cx="532.0" cy="353.0" r="8.1" fill="none" stroke="#6b7280" stroke-width="1.7416666666666665"/><path d="M527.97,353.37 L530.90,356.48 L536.22,349.88" fill="none" stroke="#6b7280" stroke-width="1.7416666666666665" stroke-linecap="round" stroke-linejoin="round"/><text x="791.0" y="355.4" font-size="11.5" fill="#6b7280" font-family="-apple-system, BlinkMacSystemFont, 'Hiragino Sans', 'Noto Sans JP', 'Yu Gothic', 'Segoe UI', sans-serif" font-weight="600" text-anchor="end">￥438</text><text x="555.0" y="347.2" font-size="12.5" fill="#1f2328" font-family="-apple-system, BlinkMacSystemFont, 'Hiragino Sans', 'Noto Sans JP', 'Yu Gothic', 'Segoe UI', sans-serif" font-weight="600">牛乳</text><text x="555.0" y="364.2" font-size="11" fill="#6b7280" font-family="-apple-system, BlinkMacSystemFont, 'Hiragino Sans', 'Noto Sans JP', 'Yu Gothic', 'Segoe UI', sans-serif" font-weight="400">印字￥406  外税 +￥32</text><text x="519.0" y="406.0" font-size="11.0" fill="#1f2328" font-family="-apple-system, BlinkMacSystemFont, 'Hiragino Sans', 'Noto Sans JP', 'Yu Gothic', 'Segoe UI', sans-serif" font-weight="600">取り込む合計</text><text x="791.0" y="406.9" font-size="17.0" fill="#1f2328" font-family="-apple-system, BlinkMacSystemFont, 'Hiragino Sans', 'Noto Sans JP', 'Yu Gothic', 'Segoe UI', sans-serif" font-weight="700" text-anchor="end">￥1,930</text><text x="519.0" y="437.6" font-size="10.5" fill="#1f2328" font-family="-apple-system, BlinkMacSystemFont, 'Hiragino Sans', 'Noto Sans JP', 'Yu Gothic', 'Segoe UI', sans-serif" font-weight="400">外税 ￥167 を税率ごとに各明細へ振り分けています。</text><text x="519.0" y="465.1" font-size="10.5" fill="#1f2328" font-family="-apple-system, BlinkMacSystemFont, 'Hiragino Sans', 'Noto Sans JP', 'Yu Gothic', 'Segoe UI', sans-serif" font-weight="400">値引き ￥256 は直前の明細から引いています。</text></g><rect x="505.0" y="649.0" width="300.0" height="60.0" fill="#ffffff"/><line x1="505.0" y1="649.0" x2="805.0" y2="649.0" stroke="#e3e7ed" stroke-width="1.1" stroke-linecap="butt"/><rect x="519.0" y="659.0" width="110.0" height="40.0" fill="#ffffff" rx="20.0" stroke="#4A3986" stroke-width="1.4"/><rect x="539.8" y="675.5" width="12.5" height="9.2" fill="none" rx="1.8" stroke="#4A3986" stroke-width="1.3458333333333334"/><circle cx="546.0" cy="680.1" r="2.8" fill="none" stroke="#4A3986" stroke-width="1.3458333333333334"/><path d="M543.73,675.46 L544.58,673.62 L547.42,673.62 L548.27,675.46" fill="none" stroke="#4A3986" stroke-width="1.3458333333333334" stroke-linecap="round" stroke-linejoin="round"/><text x="560.5" y="683.5" font-size="12.5" fill="#4A3986" font-family="-apple-system, BlinkMacSystemFont, 'Hiragino Sans', 'Noto Sans JP', 'Yu Gothic', 'Segoe UI', sans-serif" font-weight="600">撮り直す</text><rect x="639.0" y="659.0" width="152.0" height="40.0" fill="#4A3986" rx="20.0"/><line x1="671.2" y1="673.0" x2="671.2" y2="681.5" stroke="#ffffff" stroke-width="1.3458333333333334" stroke-linecap="round"/><path d="M667.71,677.94 L671.25,681.48 L674.79,677.94" fill="none" stroke="#ffffff" stroke-width="1.3458333333333334" stroke-linecap="round" stroke-linejoin="round"/><line x1="665.9" y1="684.7" x2="676.6" y2="684.7" stroke="#ffffff" stroke-width="1.3458333333333334" stroke-linecap="round"/><text x="685.8" y="683.5" font-size="12.5" fill="#ffffff" font-family="-apple-system, BlinkMacSystemFont, 'Hiragino Sans', 'Noto Sans JP', 'Yu Gothic', 'Segoe UI', sans-serif" font-weight="600">4件を取り込む</text><line x1="515.0" y1="644.0" x2="795.0" y2="644.0" stroke="#c3cad4" stroke-width="1.2" stroke-linecap="butt" stroke-dasharray="3 4"/></g><path d="M791.0,121.0 H820.0 V121.0 H822.0" fill="none" stroke="#d1483b" stroke-width="1.0" stroke-linecap="round" stroke-linejoin="round"/><circle cx="791.0" cy="121.0" r="2.0" fill="#d1483b"/><circle cx="832.0" cy="121.0" r="9.5" fill="#d1483b"/><text x="832.0" y="124.8" font-size="11" fill="#ffffff" font-family="-apple-system, BlinkMacSystemFont, 'Hiragino Sans', 'Noto Sans JP', 'Yu Gothic', 'Segoe UI', sans-serif" font-weight="700" text-anchor="middle">6</text><path d="M791.0,267.0 H820.0 V267.0 H822.0" fill="none" stroke="#d1483b" stroke-width="1.0" stroke-linecap="round" stroke-linejoin="round"/><circle cx="791.0" cy="267.0" r="2.0" fill="#d1483b"/><circle cx="832.0" cy="267.0" r="9.5" fill="#d1483b"/><text x="832.0" y="270.8" font-size="11" fill="#ffffff" font-family="-apple-system, BlinkMacSystemFont, 'Hiragino Sans', 'Noto Sans JP', 'Yu Gothic', 'Segoe UI', sans-serif" font-weight="700" text-anchor="middle">5</text><path d="M519.0,405.0 H490.0 V405.0 H488.0" fill="none" stroke="#d1483b" stroke-width="1.0" stroke-linecap="round" stroke-linejoin="round"/><circle cx="519.0" cy="405.0" r="2.0" fill="#d1483b"/><circle cx="478.0" cy="405.0" r="9.5" fill="#d1483b"/><text x="478.0" y="408.8" font-size="11" fill="#ffffff" font-family="-apple-system, BlinkMacSystemFont, 'Hiragino Sans', 'Noto Sans JP', 'Yu Gothic', 'Segoe UI', sans-serif" font-weight="700" text-anchor="middle">7</text><path d="M519.0,436.8 H490.0 V436.8 H488.0" fill="none" stroke="#d1483b" stroke-width="1.0" stroke-linecap="round" stroke-linejoin="round"/><circle cx="519.0" cy="436.8" r="2.0" fill="#d1483b"/><circle cx="478.0" cy="436.8" r="9.5" fill="#d1483b"/><text x="478.0" y="440.6" font-size="11" fill="#ffffff" font-family="-apple-system, BlinkMacSystemFont, 'Hiragino Sans', 'Noto Sans JP', 'Yu Gothic', 'Segoe UI', sans-serif" font-weight="700" text-anchor="middle">8</text><path d="M519.0,679.0 H490.0 V679.0 H488.0" fill="none" stroke="#2b7a6f" stroke-width="1.0" stroke-linecap="round" stroke-linejoin="round"/><circle cx="519.0" cy="679.0" r="2.0" fill="#2b7a6f"/><rect x="468.5" y="669.5" width="19.0" height="19.0" fill="#2b7a6f" rx="5.0"/><text x="478.0" y="682.8" font-size="11" fill="#ffffff" font-family="-apple-system, BlinkMacSystemFont, 'Hiragino Sans', 'Noto Sans JP', 'Yu Gothic', 'Segoe UI', sans-serif" font-weight="700" text-anchor="middle">9</text><path d="M639.0,679.0 H490.0 V702.0 H488.0" fill="none" stroke="#2b7a6f" stroke-width="1.0" stroke-linecap="round" stroke-linejoin="round"/><circle cx="639.0" cy="679.0" r="2.0" fill="#2b7a6f"/><rect x="468.5" y="692.5" width="19.0" height="19.0" fill="#2b7a6f" rx="5.0"/><text x="478.0" y="705.8" font-size="11" fill="#ffffff" font-family="-apple-system, BlinkMacSystemFont, 'Hiragino Sans', 'Noto Sans JP', 'Yu Gothic', 'Segoe UI', sans-serif" font-weight="700" text-anchor="middle">10</text></svg>