<svg xmlns="http://www.w3.org/2000/svg" width="1374" height="728" viewBox="0 0 1374 728"><title>アカウントとデータの引き継ぎ</title><rect x="0" y="0" width="1374" height="728" fill="#ffffff"/><rect x="68.0" y="26.0" width="21.2" height="17.0" fill="#3B6EF5" rx="8.5"/><text x="78.6" y="38.0" font-size="10" fill="#ffffff" font-family="-apple-system, BlinkMacSystemFont, 'Hiragino Sans', 'Noto Sans JP', 'Yu Gothic', 'Segoe UI', sans-serif" font-weight="700" text-anchor="middle">1</text><rect x="68.0" y="48.0" width="314.0" height="654.0" fill="#ffffff" rx="26.0" stroke="#c3cad4" stroke-width="1.6"/><defs><clipPath id="s0"><rect x="75.0" y="55.0" width="300.0" height="640.0" rx="19.0"/></clipPath></defs><g clip-path="url(#s0)"><rect x="75.0" y="55.0" width="300.0" height="640.0" fill="#ffffff"/><text x="87.0" y="70.0" font-size="9.5" fill="#6b7280" font-family="-apple-system, BlinkMacSystemFont, 'Hiragino Sans', 'Noto Sans JP', 'Yu Gothic', 'Segoe UI', sans-serif" font-weight="700">9:41</text><rect x="331.0" y="66.0" width="10.0" height="6.2" fill="#c3cad4" rx="1.5"/><rect x="345.0" y="65.0" width="10.0" height="7.5" fill="#c3cad4" rx="1.5"/><rect x="359.0" y="63.0" width="10.0" height="10.0" fill="#c3cad4" rx="1.5"/><rect x="75.0" y="77.0" width="300.0" height="46.0" fill="#f4f5f7"/><line x1="75.0" y1="123.0" x2="375.0" y2="123.0" stroke="#e3e7ed" stroke-width="1.1" stroke-linecap="butt"/><path d="M97.50,93.75 L91.25,100.00 L97.50,106.25" fill="none" stroke="#1f2328" stroke-width="1.5833333333333333" stroke-linecap="round" stroke-linejoin="round"/><text x="131.0" y="105.0" font-size="13.5" fill="#1f2328" font-family="-apple-system, BlinkMacSystemFont, 'Hiragino Sans', 'Noto Sans JP', 'Yu Gothic', 'Segoe UI', sans-serif" font-weight="700">ログイン</text><defs><clipPath id="c1"><rect x="75.0" y="123.0" width="300.0" height="572.0" rx="0.0"/></clipPath></defs><g clip-path="url(#c1)"><text x="89.0" y="141.6" font-size="10.5" fill="#6b7280" font-family="-apple-system, BlinkMacSystemFont, 'Hiragino Sans', 'Noto Sans JP', 'Yu Gothic', 'Segoe UI', sans-serif" font-weight="400">ログインすると、参加グループを他の端末でも共有でき</text><text x="89.0" y="157.1" font-size="10.5" fill="#6b7280" font-family="-apple-system, BlinkMacSystemFont, 'Hiragino Sans', 'Noto Sans JP', 'Yu Gothic', 'Segoe UI', sans-serif" font-weight="400">ます。</text><text x="89.0" y="185.0" font-size="11.0" fill="#6b7280" font-family="-apple-system, BlinkMacSystemFont, 'Hiragino Sans', 'Noto Sans JP', 'Yu Gothic', 'Segoe UI', sans-serif" font-weight="600">IDでログイン</text><rect x="89.0" y="204.0" width="272.0" height="192.0" fill="#ffffff" rx="10.0" stroke="#c3cad4" stroke-width="1.2"/><text x="101.0" y="225.0" font-size="11" fill="#6b7280" font-family="-apple-system, BlinkMacSystemFont, 'Hiragino Sans', 'Noto Sans JP', 'Yu Gothic', 'Segoe UI', sans-serif" font-weight="600">ID</text><rect x="101.0" y="232.0" width="248.0" height="38.0" fill="#f4f5f7" rx="7.0" stroke="#c3cad4" stroke-width="1.2"/><text x="101.0" y="289.0" font-size="11" fill="#6b7280" font-family="-apple-system, BlinkMacSystemFont, 'Hiragino Sans', 'Noto Sans JP', 'Yu Gothic', 'Segoe UI', sans-serif" font-weight="600">パスワード</text><rect x="101.0" y="296.0" width="248.0" height="38.0" fill="#f4f5f7" rx="7.0" stroke="#c3cad4" stroke-width="1.2"/><rect x="101.0" y="344.0" width="120.0" height="40.0" fill="#ffffff" rx="8.0" stroke="#3B6EF5" stroke-width="1.4"/><text x="136.0" y="368.5" font-size="12.5" fill="#3B6EF5" font-family="-apple-system, BlinkMacSystemFont, 'Hiragino Sans', 'Noto Sans JP', 'Yu Gothic', 'Segoe UI', sans-serif" font-weight="600">新規作成</text><rect x="229.0" y="344.0" width="120.0" height="40.0" fill="#3B6EF5" rx="8.0"/><path d="M260.29,357.98 L266.31,357.98 L266.31,370.02 L260.29,370.02" fill="none" stroke="#ffffff" stroke-width="1.3458333333333334" stroke-linecap="round" stroke-linejoin="round"/><line x1="255.3" y1="364.0" x2="262.8" y2="364.0" stroke="#ffffff" stroke-width="1.3458333333333334" stroke-linecap="round"/><path d="M260.08,361.17 L262.91,364.00 L260.08,366.83" fill="none" stroke="#ffffff" stroke-width="1.3458333333333334" stroke-linecap="round" stroke-linejoin="round"/><text x="275.5" y="368.5" font-size="12.5" fill="#ffffff" font-family="-apple-system, BlinkMacSystemFont, 'Hiragino Sans', 'Noto Sans JP', 'Yu Gothic', 'Segoe UI', sans-serif" font-weight="600">ログイン</text><text x="89.0" y="417.0" font-size="11.0" fill="#6b7280" font-family="-apple-system, BlinkMacSystemFont, 'Hiragino Sans', 'Noto Sans JP', 'Yu Gothic', 'Segoe UI', sans-serif" font-weight="600">外部アカウントでログイン</text><rect x="89.0" y="436.0" width="272.0" height="114.0" fill="#ffffff" rx="10.0" stroke="#c3cad4" stroke-width="1.2"/><rect x="101.0" y="448.0" width="248.0" height="40.0" fill="#06C755" rx="8.0"/><text x="180.8" y="472.5" font-size="12.5" fill="#ffffff" font-family="-apple-system, BlinkMacSystemFont, 'Hiragino Sans', 'Noto Sans JP', 'Yu Gothic', 'Segoe UI', sans-serif" font-weight="600">LINEでログイン</text><rect x="101.0" y="498.0" width="248.0" height="40.0" fill="#000000" rx="8.0"/><text x="177.5" y="522.5" font-size="12.5" fill="#ffffff" font-family="-apple-system, BlinkMacSystemFont, 'Hiragino Sans', 'Noto Sans JP', 'Yu Gothic', 'Segoe UI', sans-serif" font-weight="600">Appleでログイン</text></g></g><path d="M361.0,493.0 H390.0 V493.0 H392.0" fill="none" stroke="#d1483b" stroke-width="1.0" stroke-linecap="round" stroke-linejoin="round"/><circle cx="361.0" cy="493.0" r="2.0" fill="#d1483b"/><circle cx="402.0" cy="493.0" r="9.5" fill="#d1483b"/><text x="402.0" y="496.8" font-size="11" fill="#ffffff" font-family="-apple-system, BlinkMacSystemFont, 'Hiragino Sans', 'Noto Sans JP', 'Yu Gothic', 'Segoe UI', sans-serif" font-weight="700" text-anchor="middle">2</text><path d="M101.0,364.0 H60.0 V364.0 H58.0" fill="none" stroke="#2b7a6f" stroke-width="1.0" stroke-linecap="round" stroke-linejoin="round"/><circle cx="101.0" cy="364.0" r="2.0" fill="#2b7a6f"/><rect x="38.5" y="354.5" width="19.0" height="19.0" fill="#2b7a6f" rx="5.0"/><text x="48.0" y="367.8" font-size="11" fill="#ffffff" font-family="-apple-system, BlinkMacSystemFont, 'Hiragino Sans', 'Noto Sans JP', 'Yu Gothic', 'Segoe UI', sans-serif" font-weight="700" text-anchor="middle">1</text><line x1="436.0" y1="375.0" x2="474.0" y2="375.0" stroke="#9aa3af" stroke-width="1.6" stroke-linecap="round"/><path d="M468.0,370.0 l6,5 l-6,5" fill="none" stroke="#9aa3af" stroke-width="1.6" stroke-linecap="round" stroke-linejoin="round"/><rect x="530.0" y="26.0" width="21.2" height="17.0" fill="#3B6EF5" rx="8.5"/><text x="540.6" y="38.0" font-size="10" fill="#ffffff" font-family="-apple-system, BlinkMacSystemFont, 'Hiragino Sans', 'Noto Sans JP', 'Yu Gothic', 'Segoe UI', sans-serif" font-weight="700" text-anchor="middle">2</text><rect x="530.0" y="48.0" width="314.0" height="654.0" fill="#ffffff" rx="26.0" stroke="#c3cad4" stroke-width="1.6"/><defs><clipPath id="s100"><rect x="537.0" y="55.0" width="300.0" height="640.0" rx="19.0"/></clipPath></defs><g clip-path="url(#s100)"><rect x="537.0" y="55.0" width="300.0" height="640.0" fill="#ffffff"/><text x="549.0" y="70.0" font-size="9.5" fill="#6b7280" font-family="-apple-system, BlinkMacSystemFont, 'Hiragino Sans', 'Noto Sans JP', 'Yu Gothic', 'Segoe UI', sans-serif" font-weight="700">9:41</text><rect x="793.0" y="66.0" width="10.0" height="6.2" fill="#c3cad4" rx="1.5"/><rect x="807.0" y="65.0" width="10.0" height="7.5" fill="#c3cad4" rx="1.5"/><rect x="821.0" y="63.0" width="10.0" height="10.0" fill="#c3cad4" rx="1.5"/><rect x="537.0" y="77.0" width="300.0" height="46.0" fill="#f4f5f7"/><line x1="537.0" y1="123.0" x2="837.0" y2="123.0" stroke="#e3e7ed" stroke-width="1.1" stroke-linecap="butt"/><path d="M559.50,93.75 L553.25,100.00 L559.50,106.25" fill="none" stroke="#1f2328" stroke-width="1.5833333333333333" stroke-linecap="round" stroke-linejoin="round"/><text x="593.0" y="105.0" font-size="13.5" fill="#1f2328" font-family="-apple-system, BlinkMacSystemFont, 'Hiragino Sans', 'Noto Sans JP', 'Yu Gothic', 'Segoe UI', sans-serif" font-weight="700">ログイン</text><defs><clipPath id="c101"><rect x="537.0" y="123.0" width="300.0" height="572.0" rx="0.0"/></clipPath></defs><g clip-path="url(#c101)"><rect x="551.0" y="133.0" width="272.0" height="100.0" fill="#ffffff" rx="6.0" stroke="#c3cad4" stroke-width="1.2" stroke-dasharray="4 3"/><text x="687.0" y="187.0" font-size="11" fill="#9aa3af" font-family="-apple-system, BlinkMacSystemFont, 'Hiragino Sans', 'Noto Sans JP', 'Yu Gothic', 'Segoe UI', sans-serif" font-weight="600" text-anchor="middle">ログイン画面（背面）</text></g><rect x="537.0" y="55.0" width="300.0" height="640.0" fill="#0b1020" opacity="0.28"/><rect x="559.0" y="206.2" width="256.0" height="337.5" fill="#ffffff" rx="12.0" stroke="#c3cad4" stroke-width="1.2"/><text x="577.0" y="234.9" font-size="13" fill="#1f2328" font-family="-apple-system, BlinkMacSystemFont, 'Hiragino Sans', 'Noto Sans JP', 'Yu Gothic', 'Segoe UI', sans-serif" font-weight="700">データの引き継ぎ</text><text x="577.0" y="256.9" font-size="10.5" fill="#1f2328" font-family="-apple-system, BlinkMacSystemFont, 'Hiragino Sans', 'Noto Sans JP', 'Yu Gothic', 'Segoe UI', sans-serif" font-weight="400">ゲストで作成したグループが2件あります。こ</text><text x="577.0" y="272.4" font-size="10.5" fill="#1f2328" font-family="-apple-system, BlinkMacSystemFont, 'Hiragino Sans', 'Noto Sans JP', 'Yu Gothic', 'Segoe UI', sans-serif" font-weight="400">のまま続けると新しいアカウントが作成さ</text><text x="577.0" y="287.9" font-size="10.5" fill="#1f2328" font-family="-apple-system, BlinkMacSystemFont, 'Hiragino Sans', 'Noto Sans JP', 'Yu Gothic', 'Segoe UI', sans-serif" font-weight="400">れ、これらのデータは引き継がれません。</text><text x="577.0" y="313.4" font-size="10.5" fill="#6b7280" font-family="-apple-system, BlinkMacSystemFont, 'Hiragino Sans', 'Noto Sans JP', 'Yu Gothic', 'Segoe UI', sans-serif" font-weight="400">データを引き継ぐには、先に新規アカウント</text><text x="577.0" y="328.9" font-size="10.5" fill="#6b7280" font-family="-apple-system, BlinkMacSystemFont, 'Hiragino Sans', 'Noto Sans JP', 'Yu Gothic', 'Segoe UI', sans-serif" font-weight="400">を作成してください。</text><text x="577.0" y="368.8" font-size="12.5" fill="#1f2328" font-family="-apple-system, BlinkMacSystemFont, 'Hiragino Sans', 'Noto Sans JP', 'Yu Gothic', 'Segoe UI', sans-serif" font-weight="400">引き継がずに続ける</text><rect x="757.0" y="353.8" width="40.0" height="22.0" fill="#e8eaef" rx="11.0" stroke="#c3cad4" stroke-width="1.1"/><circle cx="770.0" cy="364.8" r="8.5" fill="#ffffff" stroke="#c3cad4" stroke-width="1.0"/><rect x="577.0" y="393.8" width="220.0" height="40.0" fill="#3B6EF5" rx="8.0"/><text x="662.0" y="418.2" font-size="12.5" fill="#ffffff" font-family="-apple-system, BlinkMacSystemFont, 'Hiragino Sans', 'Noto Sans JP', 'Yu Gothic', 'Segoe UI', sans-serif" font-weight="600">新規作成</text><text x="643.2" y="466.2" font-size="12.5" fill="#3B6EF5" font-family="-apple-system, BlinkMacSystemFont, 'Hiragino Sans', 'Noto Sans JP', 'Yu Gothic', 'Segoe UI', sans-serif" font-weight="600">このまま続ける</text><text x="655.8" y="512.2" font-size="12.5" fill="#3B6EF5" font-family="-apple-system, BlinkMacSystemFont, 'Hiragino Sans', 'Noto Sans JP', 'Yu Gothic', 'Segoe UI', sans-serif" font-weight="600">キャンセル</text></g><path d="M797.0,364.8 H852.0 V364.8 H854.0" fill="none" stroke="#d1483b" stroke-width="1.0" stroke-linecap="round" stroke-linejoin="round"/><circle cx="797.0" cy="364.8" r="2.0" fill="#d1483b"/><circle cx="864.0" cy="364.8" r="9.5" fill="#d1483b"/><text x="864.0" y="368.6" font-size="11" fill="#ffffff" font-family="-apple-system, BlinkMacSystemFont, 'Hiragino Sans', 'Noto Sans JP', 'Yu Gothic', 'Segoe UI', sans-serif" font-weight="700" text-anchor="middle">3</text><path d="M797.0,461.8 H852.0 V461.8 H854.0" fill="none" stroke="#d1483b" stroke-width="1.0" stroke-linecap="round" stroke-linejoin="round"/><circle cx="797.0" cy="461.8" r="2.0" fill="#d1483b"/><circle cx="864.0" cy="461.8" r="9.5" fill="#d1483b"/><text x="864.0" y="465.6" font-size="11" fill="#ffffff" font-family="-apple-system, BlinkMacSystemFont, 'Hiragino Sans', 'Noto Sans JP', 'Yu Gothic', 'Segoe UI', sans-serif" font-weight="700" text-anchor="middle">4</text><line x1="898.0" y1="375.0" x2="936.0" y2="375.0" stroke="#9aa3af" stroke-width="1.6" stroke-linecap="round"/><path d="M930.0,370.0 l6,5 l-6,5" fill="none" stroke="#9aa3af" stroke-width="1.6" stroke-linecap="round" stroke-linejoin="round"/><rect x="992.0" y="26.0" width="21.2" height="17.0" fill="#3B6EF5" rx="8.5"/><text x="1002.6" y="38.0" font-size="10" fill="#ffffff" font-family="-apple-system, BlinkMacSystemFont, 'Hiragino Sans', 'Noto Sans JP', 'Yu Gothic', 'Segoe UI', sans-serif" font-weight="700" text-anchor="middle">3</text><rect x="992.0" y="48.0" width="314.0" height="654.0" fill="#ffffff" rx="26.0" stroke="#c3cad4" stroke-width="1.6"/><defs><clipPath id="s200"><rect x="999.0" y="55.0" width="300.0" height="640.0" rx="19.0"/></clipPath></defs><g clip-path="url(#s200)"><rect x="999.0" y="55.0" width="300.0" height="640.0" fill="#ffffff"/><text x="1011.0" y="70.0" font-size="9.5" fill="#6b7280" font-family="-apple-system, BlinkMacSystemFont, 'Hiragino Sans', 'Noto Sans JP', 'Yu Gothic', 'Segoe UI', sans-serif" font-weight="700">9:41</text><rect x="1255.0" y="66.0" width="10.0" height="6.2" fill="#c3cad4" rx="1.5"/><rect x="1269.0" y="65.0" width="10.0" height="7.5" fill="#c3cad4" rx="1.5"/><rect x="1283.0" y="63.0" width="10.0" height="10.0" fill="#c3cad4" rx="1.5"/><rect x="999.0" y="77.0" width="300.0" height="46.0" fill="#f4f5f7"/><line x1="999.0" y1="123.0" x2="1299.0" y2="123.0" stroke="#e3e7ed" stroke-width="1.1" stroke-linecap="butt"/><path d="M1021.50,93.75 L1015.25,100.00 L1021.50,106.25" fill="none" stroke="#1f2328" stroke-width="1.5833333333333333" stroke-linecap="round" stroke-linejoin="round"/><text x="1055.0" y="105.0" font-size="13.5" fill="#1f2328" font-family="-apple-system, BlinkMacSystemFont, 'Hiragino Sans', 'Noto Sans JP', 'Yu Gothic', 'Segoe UI', sans-serif" font-weight="700">マイページ</text><defs><clipPath id="c201"><rect x="999.0" y="123.0" width="300.0" height="572.0" rx="0.0"/></clipPath></defs><g clip-path="url(#c201)"><text x="1013.0" y="142.0" font-size="11.0" fill="#6b7280" font-family="-apple-system, BlinkMacSystemFont, 'Hiragino Sans', 'Noto Sans JP', 'Yu Gothic', 'Segoe UI', sans-serif" font-weight="600">アカウント</text><circle cx="1026.0" cy="185.5" r="3.4" fill="none" stroke="#6b7280" stroke-width="1.7416666666666665"/><path d="M1019.40,197.25 L1019.51,196.04 L1019.85,194.87 L1020.39,193.78 L1021.12,192.80 L1022.02,191.98 L1023.06,191.34 L1024.19,190.90 L1025.39,190.68 L1026.61,190.68 L1027.81,190.90 L1028.94,191.34 L1029.98,191.98 L1030.88,192.80 L1031.61,193.78 L1032.15,194.87 L1032.49,196.04 L1032.60,197.25" fill="none" stroke="#6b7280" stroke-width="1.7416666666666665" stroke-linecap="round" stroke-linejoin="round"/><text x="1285.0" y="191.4" font-size="11.5" fill="#6b7280" font-family="-apple-system, BlinkMacSystemFont, 'Hiragino Sans', 'Noto Sans JP', 'Yu Gothic', 'Segoe UI', sans-serif" font-weight="600" text-anchor="end">編集</text><text x="1049.0" y="183.2" font-size="12.5" fill="#1f2328" font-family="-apple-system, BlinkMacSystemFont, 'Hiragino Sans', 'Noto Sans JP', 'Yu Gothic', 'Segoe UI', sans-serif" font-weight="600">やまだ</text><text x="1049.0" y="200.2" font-size="11" fill="#6b7280" font-family="-apple-system, BlinkMacSystemFont, 'Hiragino Sans', 'Noto Sans JP', 'Yu Gothic', 'Segoe UI', sans-serif" font-weight="400">表示名を編集</text><text x="1013.0" y="238.0" font-size="11.0" fill="#6b7280" font-family="-apple-system, BlinkMacSystemFont, 'Hiragino Sans', 'Noto Sans JP', 'Yu Gothic', 'Segoe UI', sans-serif" font-weight="600">アカウント連携</text><circle cx="1026.0" cy="279.0" r="8.1" fill="none" stroke="#6b7280" stroke-width="1.7416666666666665"/><path d="M1021.97,279.37 L1024.90,282.48 L1030.22,275.88" fill="none" stroke="#6b7280" stroke-width="1.7416666666666665" stroke-linecap="round" stroke-linejoin="round"/><text x="1285.0" y="281.4" font-size="11.5" fill="#6b7280" font-family="-apple-system, BlinkMacSystemFont, 'Hiragino Sans', 'Noto Sans JP', 'Yu Gothic', 'Segoe UI', sans-serif" font-weight="600" text-anchor="end">連携済み</text><text x="1049.0" y="281.8" font-size="12.5" fill="#1f2328" font-family="-apple-system, BlinkMacSystemFont, 'Hiragino Sans', 'Noto Sans JP', 'Yu Gothic', 'Segoe UI', sans-serif" font-weight="600">LINEアカウント</text><line x1="1049.0" y1="301.0" x2="1285.0" y2="301.0" stroke="#e3e7ed" stroke-width="1.0" stroke-linecap="butt"/><circle cx="1026.0" cy="319.5" r="3.4" fill="none" stroke="#6b7280" stroke-width="1.7416666666666665"/><path d="M1019.40,331.25 L1019.51,330.04 L1019.85,328.87 L1020.39,327.78 L1021.12,326.80 L1022.02,325.98 L1023.06,325.34 L1024.19,324.90 L1025.39,324.68 L1026.61,324.68 L1027.81,324.90 L1028.94,325.34 L1029.98,325.98 L1030.88,326.80 L1031.61,327.78 L1032.15,328.87 L1032.49,330.04 L1032.60,331.25" fill="none" stroke="#6b7280" stroke-width="1.7416666666666665" stroke-linecap="round" stroke-linejoin="round"/><text x="1049.0" y="325.8" font-size="12.5" fill="#1f2328" font-family="-apple-system, BlinkMacSystemFont, 'Hiragino Sans', 'Noto Sans JP', 'Yu Gothic', 'Segoe UI', sans-serif" font-weight="600">Appleアカウントと連携</text><line x1="1049.0" y1="345.0" x2="1285.0" y2="345.0" stroke="#e3e7ed" stroke-width="1.0" stroke-linecap="butt"/><line x1="1018.7" y1="364.2" x2="1032.4" y2="364.2" stroke="#6b7280" stroke-width="1.7416666666666665" stroke-linecap="round"/><path d="M1029.21,361.04 L1032.42,364.25 L1029.21,367.46" fill="none" stroke="#6b7280" stroke-width="1.7416666666666665" stroke-linecap="round" stroke-linejoin="round"/><line x1="1033.3" y1="370.2" x2="1019.6" y2="370.2" stroke="#6b7280" stroke-width="1.7416666666666665" stroke-linecap="round"/><path d="M1022.79,367.00 L1019.58,370.21 L1022.79,373.42" fill="none" stroke="#6b7280" stroke-width="1.7416666666666665" stroke-linecap="round" stroke-linejoin="round"/><path d="M1275.0,363.0 l4,4 l-4,4" fill="none" stroke="#9aa3af" stroke-width="1.4" stroke-linecap="round" stroke-linejoin="round"/><text x="1049.0" y="369.8" font-size="12.5" fill="#1f2328" font-family="-apple-system, BlinkMacSystemFont, 'Hiragino Sans', 'Noto Sans JP', 'Yu Gothic', 'Segoe UI', sans-serif" font-weight="600">既存アカウントに引き継ぐ</text><text x="1013.0" y="410.0" font-size="11.0" fill="#6b7280" font-family="-apple-system, BlinkMacSystemFont, 'Hiragino Sans', 'Noto Sans JP', 'Yu Gothic', 'Segoe UI', sans-serif" font-weight="600">操作</text><path d="M1026.92,443.21 L1019.12,443.21 L1019.12,458.79 L1026.92,458.79" fill="none" stroke="#6b7280" stroke-width="1.7416666666666665" stroke-linecap="round" stroke-linejoin="round"/><line x1="1023.7" y1="451.0" x2="1033.3" y2="451.0" stroke="#6b7280" stroke-width="1.7416666666666665" stroke-linecap="round"/><path d="M1029.85,447.33 L1033.52,451.00 L1029.85,454.67" fill="none" stroke="#6b7280" stroke-width="1.7416666666666665" stroke-linecap="round" stroke-linejoin="round"/><text x="1049.0" y="453.8" font-size="12.5" fill="#1f2328" font-family="-apple-system, BlinkMacSystemFont, 'Hiragino Sans', 'Noto Sans JP', 'Yu Gothic', 'Segoe UI', sans-serif" font-weight="600">ログアウト</text><line x1="1049.0" y1="473.0" x2="1285.0" y2="473.0" stroke="#e3e7ed" stroke-width="1.0" stroke-linecap="butt"/><line x1="1018.5" y1="489.7" x2="1033.5" y2="489.7" stroke="#6b7280" stroke-width="1.7416666666666665" stroke-linecap="round"/><path d="M1020.87,489.68 L1021.78,502.79 L1030.22,502.79 L1031.13,489.68" fill="none" stroke="#6b7280" stroke-width="1.7416666666666665" stroke-linecap="round" stroke-linejoin="round"/><path d="M1023.62,489.68 L1023.62,487.30 L1028.38,487.30 L1028.38,489.68" fill="none" stroke="#6b7280" stroke-width="1.7416666666666665" stroke-linecap="round" stroke-linejoin="round"/><line x1="1024.5" y1="492.7" x2="1024.8" y2="499.6" stroke="#6b7280" stroke-width="1.7416666666666665" stroke-linecap="round"/><line x1="1027.5" y1="492.7" x2="1027.2" y2="499.6" stroke="#6b7280" stroke-width="1.7416666666666665" stroke-linecap="round"/><text x="1049.0" y="497.8" font-size="12.5" fill="#1f2328" font-family="-apple-system, BlinkMacSystemFont, 'Hiragino Sans', 'Noto Sans JP', 'Yu Gothic', 'Segoe UI', sans-serif" font-weight="600">削除して退会</text><text x="1013.0" y="538.0" font-size="11.0" fill="#6b7280" font-family="-apple-system, BlinkMacSystemFont, 'Hiragino Sans', 'Noto Sans JP', 'Yu Gothic', 'Segoe UI', sans-serif" font-weight="600">お問い合わせ</text><text x="1285.0" y="587.4" font-size="11.5" fill="#6b7280" font-family="-apple-system, BlinkMacSystemFont, 'Hiragino Sans', 'Noto Sans JP', 'Yu Gothic', 'Segoe UI', sans-serif" font-weight="600" text-anchor="end">コピー</text><text x="1013.0" y="579.2" font-size="12.5" fill="#1f2328" font-family="-apple-system, BlinkMacSystemFont, 'Hiragino Sans', 'Noto Sans JP', 'Yu Gothic', 'Segoe UI', sans-serif" font-weight="600">問い合わせID</text><text x="1013.0" y="596.2" font-size="11" fill="#6b7280" font-family="-apple-system, BlinkMacSystemFont, 'Hiragino Sans', 'Noto Sans JP', 'Yu Gothic', 'Segoe UI', sans-serif" font-weight="400">タップでコピーできます</text></g><line x1="1009.0" y1="690.0" x2="1289.0" y2="690.0" stroke="#c3cad4" stroke-width="1.2" stroke-linecap="butt" stroke-dasharray="3 4"/></g><path d="M1285.0,323.0 H1314.0 V323.0 H1316.0" fill="none" stroke="#d1483b" stroke-width="1.0" stroke-linecap="round" stroke-linejoin="round"/><circle cx="1285.0" cy="323.0" r="2.0" fill="#d1483b"/><circle cx="1326.0" cy="323.0" r="9.5" fill="#d1483b"/><text x="1326.0" y="326.8" font-size="11" fill="#ffffff" font-family="-apple-system, BlinkMacSystemFont, 'Hiragino Sans', 'Noto Sans JP', 'Yu Gothic', 'Segoe UI', sans-serif" font-weight="700" text-anchor="middle">5</text><path d="M1285.0,367.0 H1314.0 V367.0 H1316.0" fill="none" stroke="#d1483b" stroke-width="1.0" stroke-linecap="round" stroke-linejoin="round"/><circle cx="1285.0" cy="367.0" r="2.0" fill="#d1483b"/><circle cx="1326.0" cy="367.0" r="9.5" fill="#d1483b"/><text x="1326.0" y="370.8" font-size="11" fill="#ffffff" font-family="-apple-system, BlinkMacSystemFont, 'Hiragino Sans', 'Noto Sans JP', 'Yu Gothic', 'Segoe UI', sans-serif" font-weight="700" text-anchor="middle">6</text><path d="M1285.0,585.0 H1314.0 V585.0 H1316.0" fill="none" stroke="#d1483b" stroke-width="1.0" stroke-linecap="round" stroke-linejoin="round"/><circle cx="1285.0" cy="585.0" r="2.0" fill="#d1483b"/><circle cx="1326.0" cy="585.0" r="9.5" fill="#d1483b"/><text x="1326.0" y="588.8" font-size="11" fill="#ffffff" font-family="-apple-system, BlinkMacSystemFont, 'Hiragino Sans', 'Noto Sans JP', 'Yu Gothic', 'Segoe UI', sans-serif" font-weight="700" text-anchor="middle">7</text></svg>