<svg xmlns="http://www.w3.org/2000/svg" width="1374" height="728" viewBox="0 0 1374 728"><title>1日ずつ順番に希望を入力する</title><rect x="0" y="0" width="1374" height="728" fill="#ffffff"/><rect x="68.0" y="26.0" width="21.2" height="17.0" fill="#3B6EF5" rx="8.5"/><text x="78.6" y="38.0" font-size="10" fill="#ffffff" font-family="-apple-system, BlinkMacSystemFont, 'Hiragino Sans', 'Noto Sans JP', 'Yu Gothic', 'Segoe UI', sans-serif" font-weight="700" text-anchor="middle">1</text><rect x="68.0" y="48.0" width="314.0" height="654.0" fill="#ffffff" rx="26.0" stroke="#c3cad4" stroke-width="1.6"/><defs><clipPath id="s0"><rect x="75.0" y="55.0" width="300.0" height="640.0" rx="19.0"/></clipPath></defs><g clip-path="url(#s0)"><rect x="75.0" y="55.0" width="300.0" height="640.0" fill="#ffffff"/><text x="87.0" y="70.0" font-size="9.5" fill="#6b7280" font-family="-apple-system, BlinkMacSystemFont, 'Hiragino Sans', 'Noto Sans JP', 'Yu Gothic', 'Segoe UI', sans-serif" font-weight="700">9:41</text><rect x="331.0" y="66.0" width="10.0" height="6.2" fill="#c3cad4" rx="1.5"/><rect x="345.0" y="65.0" width="10.0" height="7.5" fill="#c3cad4" rx="1.5"/><rect x="359.0" y="63.0" width="10.0" height="10.0" fill="#c3cad4" rx="1.5"/><rect x="75.0" y="77.0" width="300.0" height="46.0" fill="#f4f5f7"/><line x1="75.0" y1="123.0" x2="375.0" y2="123.0" stroke="#e3e7ed" stroke-width="1.1" stroke-linecap="butt"/><path d="M97.50,93.75 L91.25,100.00 L97.50,106.25" fill="none" stroke="#1f2328" stroke-width="1.5833333333333333" stroke-linecap="round" stroke-linejoin="round"/><circle cx="349.5" cy="97.1" r="2.7" fill="none" stroke="#1f2328" stroke-width="1.5833333333333333"/><path d="M344.33,107.08 L344.42,106.13 L344.68,105.22 L345.11,104.36 L345.68,103.60 L346.39,102.96 L347.20,102.46 L348.09,102.11 L349.02,101.94 L349.98,101.94 L350.91,102.11 L351.80,102.46 L352.61,102.96 L353.32,103.60 L353.89,104.36 L354.32,105.22 L354.58,106.13 L354.67,107.08" fill="none" stroke="#1f2328" stroke-width="1.5833333333333333" stroke-linecap="round" stroke-linejoin="round"/><circle cx="356.6" cy="96.7" r="2.0" fill="none" stroke="#1f2328" stroke-width="1.5833333333333333"/><path d="M353.23,104.94 L353.54,104.29 L353.96,103.71 L354.49,103.22 L355.10,102.83 L355.77,102.57 L356.47,102.43 L357.19,102.43 L357.90,102.57 L358.57,102.83 L359.18,103.22 L359.70,103.71 L360.13,104.29 L360.44,104.94" fill="none" stroke="#1f2328" stroke-width="1.5833333333333333" stroke-linecap="round" stroke-linejoin="round"/><circle cx="322.0" cy="96.8" r="3.1" fill="none" stroke="#1f2328" stroke-width="1.5833333333333333"/><path d="M316.00,107.50 L316.10,106.40 L316.41,105.33 L316.90,104.34 L317.57,103.46 L318.38,102.71 L319.33,102.13 L320.36,101.73 L321.45,101.53 L322.55,101.53 L323.64,101.73 L324.67,102.13 L325.62,102.71 L326.43,103.46 L327.10,104.34 L327.59,105.33 L327.90,106.40 L328.00,107.50" fill="none" stroke="#1f2328" stroke-width="1.5833333333333333" stroke-linecap="round" stroke-linejoin="round"/><text x="131.0" y="105.0" font-size="13.5" fill="#1f2328" font-family="-apple-system, BlinkMacSystemFont, 'Hiragino Sans', 'Noto Sans JP', 'Yu Gothic', 'Segoe UI', sans-serif" font-weight="700">7月前半（7/1〜7/15）</text><defs><clipPath id="c1"><rect x="75.0" y="123.0" width="300.0" height="387.0" rx="0.0"/></clipPath></defs><g clip-path="url(#c1)"><rect x="89.0" y="133.0" width="132.0" height="30.0" fill="#f4f5f7" rx="8.0" stroke="#c3cad4" stroke-width="1.1"/><rect x="91.0" y="135.0" width="62.0" height="26.0" fill="#ffffff" rx="6.0" stroke="#c3cad4" stroke-width="1.0"/><text x="122.0" y="150.4" font-size="11.5" fill="#1f2328" font-family="-apple-system, BlinkMacSystemFont, 'Hiragino Sans', 'Noto Sans JP', 'Yu Gothic', 'Segoe UI', sans-serif" font-weight="600" text-anchor="middle">バー</text><text x="188.0" y="150.4" font-size="11.5" fill="#6b7280" font-family="-apple-system, BlinkMacSystemFont, 'Hiragino Sans', 'Noto Sans JP', 'Yu Gothic', 'Segoe UI', sans-serif" font-weight="400" text-anchor="middle">数値</text><rect x="229.0" y="133.0" width="132.0" height="30.0" fill="#f4f5f7" rx="8.0" stroke="#c3cad4" stroke-width="1.1"/><rect x="231.0" y="135.0" width="62.0" height="26.0" fill="#ffffff" rx="6.0" stroke="#c3cad4" stroke-width="1.0"/><text x="262.0" y="150.4" font-size="11.5" fill="#1f2328" font-family="-apple-system, BlinkMacSystemFont, 'Hiragino Sans', 'Noto Sans JP', 'Yu Gothic', 'Segoe UI', sans-serif" font-weight="600" text-anchor="middle">週</text><text x="328.0" y="150.4" font-size="11.5" fill="#6b7280" font-family="-apple-system, BlinkMacSystemFont, 'Hiragino Sans', 'Noto Sans JP', 'Yu Gothic', 'Segoe UI', sans-serif" font-weight="400" text-anchor="middle">1列</text><text x="89.0" y="185.2" font-size="12.5" fill="#1f2328" font-family="-apple-system, BlinkMacSystemFont, 'Hiragino Sans', 'Noto Sans JP', 'Yu Gothic', 'Segoe UI', sans-serif" font-weight="400"></text><text x="172.2" y="185.4" font-size="10.5" fill="#1f2328" font-family="-apple-system, BlinkMacSystemFont, 'Hiragino Sans', 'Noto Sans JP', 'Yu Gothic', 'Segoe UI', sans-serif" font-weight="400" text-anchor="middle">7/1</text><text x="226.8" y="185.4" font-size="10.5" fill="#1f2328" font-family="-apple-system, BlinkMacSystemFont, 'Hiragino Sans', 'Noto Sans JP', 'Yu Gothic', 'Segoe UI', sans-serif" font-weight="400" text-anchor="middle">7/2</text><text x="281.2" y="185.4" font-size="10.5" fill="#1f2328" font-family="-apple-system, BlinkMacSystemFont, 'Hiragino Sans', 'Noto Sans JP', 'Yu Gothic', 'Segoe UI', sans-serif" font-weight="400" text-anchor="middle">7/3</text><text x="335.8" y="185.4" font-size="10.5" fill="#1f2328" font-family="-apple-system, BlinkMacSystemFont, 'Hiragino Sans', 'Noto Sans JP', 'Yu Gothic', 'Segoe UI', sans-serif" font-weight="400" text-anchor="middle">7/4</text><text x="89.0" y="226.9" font-size="10.5" fill="#1f2328" font-family="-apple-system, BlinkMacSystemFont, 'Hiragino Sans', 'Noto Sans JP', 'Yu Gothic', 'Segoe UI', sans-serif" font-weight="400">あなた</text><rect x="147.0" y="206.0" width="50.5" height="40.0" fill="#ffffff" rx="8.0" stroke="#D5D9E0" stroke-width="1.4"/><text x="162.2" y="229.6" font-size="10.0" fill="#5A6070" font-family="-apple-system, BlinkMacSystemFont, 'Hiragino Sans', 'Noto Sans JP', 'Yu Gothic', 'Segoe UI', sans-serif" font-weight="600">早番</text><rect x="201.5" y="206.0" width="50.5" height="40.0" fill="#ffffff" rx="8.0" stroke="#D5D9E0" stroke-width="1.4"/><text x="221.8" y="229.6" font-size="10.0" fill="#5A6070" font-family="-apple-system, BlinkMacSystemFont, 'Hiragino Sans', 'Noto Sans JP', 'Yu Gothic', 'Segoe UI', sans-serif" font-weight="600">休</text><rect x="256.0" y="206.0" width="50.5" height="40.0" fill="#E6EDFD" rx="8.0" stroke="#3B6EF5" stroke-width="1.4"/><text x="278.6" y="229.6" font-size="10.0" fill="#3B6EF5" font-family="-apple-system, BlinkMacSystemFont, 'Hiragino Sans', 'Noto Sans JP', 'Yu Gothic', 'Segoe UI', sans-serif" font-weight="600">—</text><rect x="310.5" y="206.0" width="50.5" height="40.0" fill="#ffffff" rx="8.0" stroke="#D5D9E0" stroke-width="1.4"/><text x="333.1" y="229.6" font-size="10.0" fill="#5A6070" font-family="-apple-system, BlinkMacSystemFont, 'Hiragino Sans', 'Noto Sans JP', 'Yu Gothic', 'Segoe UI', sans-serif" font-weight="600">—</text><text x="89.0" y="266.6" font-size="10.5" fill="#6b7280" font-family="-apple-system, BlinkMacSystemFont, 'Hiragino Sans', 'Noto Sans JP', 'Yu Gothic', 'Segoe UI', sans-serif" font-weight="400">上の「希望を提出」カードは編集中のあいだ隠れる。</text></g><rect x="75.0" y="510.0" width="300.0" height="185.0" fill="#ffffff"/><line x1="75.0" y1="510.0" x2="375.0" y2="510.0" stroke="#e3e7ed" stroke-width="1.1" stroke-linecap="butt"/><text x="89.0" y="538.8" font-size="12.5" fill="#1f2328" font-family="-apple-system, BlinkMacSystemFont, 'Hiragino Sans', 'Noto Sans JP', 'Yu Gothic', 'Segoe UI', sans-serif" font-weight="400">編集中: 7/3（3 / 15）</text><text x="287.8" y="542.5" font-size="12.5" fill="#3B6EF5" font-family="-apple-system, BlinkMacSystemFont, 'Hiragino Sans', 'Noto Sans JP', 'Yu Gothic', 'Segoe UI', sans-serif" font-weight="600">キャンセル</text><text x="89.0" y="572.6" font-size="10.5" fill="#6b7280" font-family="-apple-system, BlinkMacSystemFont, 'Hiragino Sans', 'Noto Sans JP', 'Yu Gothic', 'Segoe UI', sans-serif" font-weight="400">勤務帯をタップでこの日に登録 → 次の日へ進みます</text><text x="89.0" y="596.1" font-size="10.5" fill="#1f2328" font-family="-apple-system, BlinkMacSystemFont, 'Hiragino Sans', 'Noto Sans JP', 'Yu Gothic', 'Segoe UI', sans-serif" font-weight="400">現在: 未入力</text><rect x="89.0" y="611.0" width="44.0" height="26.0" fill="#ffffff" rx="13.0" stroke="#c3cad4" stroke-width="1.2"/><text x="111.0" y="626.0" font-size="11" fill="#6b7280" font-family="-apple-system, BlinkMacSystemFont, 'Hiragino Sans', 'Noto Sans JP', 'Yu Gothic', 'Segoe UI', sans-serif" font-weight="600" text-anchor="middle">早番</text><rect x="139.0" y="611.0" width="44.0" height="26.0" fill="#ffffff" rx="13.0" stroke="#c3cad4" stroke-width="1.2"/><text x="161.0" y="626.0" font-size="11" fill="#6b7280" font-family="-apple-system, BlinkMacSystemFont, 'Hiragino Sans', 'Noto Sans JP', 'Yu Gothic', 'Segoe UI', sans-serif" font-weight="600" text-anchor="middle">遅番</text><rect x="189.0" y="611.0" width="66.0" height="26.0" fill="#ffffff" rx="13.0" stroke="#c3cad4" stroke-width="1.2"/><text x="222.0" y="626.0" font-size="11" fill="#6b7280" font-family="-apple-system, BlinkMacSystemFont, 'Hiragino Sans', 'Noto Sans JP', 'Yu Gothic', 'Segoe UI', sans-serif" font-weight="600" text-anchor="middle">自由時間</text><rect x="261.0" y="611.0" width="44.0" height="26.0" fill="#ffffff" rx="13.0" stroke="#c3cad4" stroke-width="1.2"/><text x="283.0" y="626.0" font-size="11" fill="#6b7280" font-family="-apple-system, BlinkMacSystemFont, 'Hiragino Sans', 'Noto Sans JP', 'Yu Gothic', 'Segoe UI', sans-serif" font-weight="600" text-anchor="middle">休み</text><text x="112.9" y="669.5" font-size="12.5" fill="#3B6EF5" font-family="-apple-system, BlinkMacSystemFont, 'Hiragino Sans', 'Noto Sans JP', 'Yu Gothic', 'Segoe UI', sans-serif" font-weight="600">前の日</text><text x="206.2" y="669.5" font-size="12.5" fill="#3B6EF5" font-family="-apple-system, BlinkMacSystemFont, 'Hiragino Sans', 'Noto Sans JP', 'Yu Gothic', 'Segoe UI', sans-serif" font-weight="600">次の日</text><rect x="275.7" y="645.0" width="85.3" height="40.0" fill="#3B6EF5" rx="8.0"/><path d="M297.52,665.35 L301.06,669.25 L308.15,660.75" fill="none" stroke="#ffffff" stroke-width="1.3458333333333334" stroke-linecap="round" stroke-linejoin="round"/><text x="317.3" y="669.5" font-size="12.5" fill="#ffffff" font-family="-apple-system, BlinkMacSystemFont, 'Hiragino Sans', 'Noto Sans JP', 'Yu Gothic', 'Segoe UI', sans-serif" font-weight="600">保存</text></g><path d="M361.0,226.0 H390.0 V226.0 H392.0" fill="none" stroke="#d1483b" stroke-width="1.0" stroke-linecap="round" stroke-linejoin="round"/><circle cx="361.0" cy="226.0" r="2.0" fill="#d1483b"/><circle cx="402.0" cy="226.0" r="9.5" fill="#d1483b"/><text x="402.0" y="229.8" font-size="11" fill="#ffffff" font-family="-apple-system, BlinkMacSystemFont, 'Hiragino Sans', 'Noto Sans JP', 'Yu Gothic', 'Segoe UI', sans-serif" font-weight="700" text-anchor="middle">1</text><path d="M361.0,538.0 H390.0 V538.0 H392.0" fill="none" stroke="#d1483b" stroke-width="1.0" stroke-linecap="round" stroke-linejoin="round"/><circle cx="361.0" cy="538.0" r="2.0" fill="#d1483b"/><circle cx="402.0" cy="538.0" r="9.5" fill="#d1483b"/><text x="402.0" y="541.8" font-size="11" fill="#ffffff" font-family="-apple-system, BlinkMacSystemFont, 'Hiragino Sans', 'Noto Sans JP', 'Yu Gothic', 'Segoe UI', sans-serif" font-weight="700" text-anchor="middle">5</text><path d="M361.0,624.0 H390.0 V624.0 H392.0" fill="none" stroke="#d1483b" stroke-width="1.0" stroke-linecap="round" stroke-linejoin="round"/><circle cx="361.0" cy="624.0" r="2.0" fill="#d1483b"/><circle cx="402.0" cy="624.0" r="9.5" fill="#d1483b"/><text x="402.0" y="627.8" font-size="11" fill="#ffffff" font-family="-apple-system, BlinkMacSystemFont, 'Hiragino Sans', 'Noto Sans JP', 'Yu Gothic', 'Segoe UI', sans-serif" font-weight="700" text-anchor="middle">3</text><path d="M361.0,665.0 H390.0 V665.0 H392.0" fill="none" stroke="#d1483b" stroke-width="1.0" stroke-linecap="round" stroke-linejoin="round"/><circle cx="361.0" cy="665.0" r="2.0" fill="#d1483b"/><circle cx="402.0" cy="665.0" r="9.5" fill="#d1483b"/><text x="402.0" y="668.8" font-size="11" fill="#ffffff" font-family="-apple-system, BlinkMacSystemFont, 'Hiragino Sans', 'Noto Sans JP', 'Yu Gothic', 'Segoe UI', sans-serif" font-weight="700" text-anchor="middle">4</text><path d="M89.0,538.0 H60.0 V538.0 H58.0" fill="none" stroke="#d1483b" stroke-width="1.0" stroke-linecap="round" stroke-linejoin="round"/><circle cx="89.0" cy="538.0" r="2.0" fill="#d1483b"/><circle cx="48.0" cy="538.0" r="9.5" fill="#d1483b"/><text x="48.0" y="541.8" font-size="11" fill="#ffffff" font-family="-apple-system, BlinkMacSystemFont, 'Hiragino Sans', 'Noto Sans JP', 'Yu Gothic', 'Segoe UI', sans-serif" font-weight="700" text-anchor="middle">2</text><line x1="436.0" y1="375.0" x2="474.0" y2="375.0" stroke="#9aa3af" stroke-width="1.6" stroke-linecap="round"/><path d="M468.0,370.0 l6,5 l-6,5" fill="none" stroke="#9aa3af" stroke-width="1.6" stroke-linecap="round" stroke-linejoin="round"/><rect x="530.0" y="26.0" width="21.2" height="17.0" fill="#3B6EF5" rx="8.5"/><text x="540.6" y="38.0" font-size="10" fill="#ffffff" font-family="-apple-system, BlinkMacSystemFont, 'Hiragino Sans', 'Noto Sans JP', 'Yu Gothic', 'Segoe UI', sans-serif" font-weight="700" text-anchor="middle">2</text><rect x="530.0" y="48.0" width="314.0" height="654.0" fill="#ffffff" rx="26.0" stroke="#c3cad4" stroke-width="1.6"/><defs><clipPath id="s100"><rect x="537.0" y="55.0" width="300.0" height="640.0" rx="19.0"/></clipPath></defs><g clip-path="url(#s100)"><rect x="537.0" y="55.0" width="300.0" height="640.0" fill="#ffffff"/><text x="549.0" y="70.0" font-size="9.5" fill="#6b7280" font-family="-apple-system, BlinkMacSystemFont, 'Hiragino Sans', 'Noto Sans JP', 'Yu Gothic', 'Segoe UI', sans-serif" font-weight="700">9:41</text><rect x="793.0" y="66.0" width="10.0" height="6.2" fill="#c3cad4" rx="1.5"/><rect x="807.0" y="65.0" width="10.0" height="7.5" fill="#c3cad4" rx="1.5"/><rect x="821.0" y="63.0" width="10.0" height="10.0" fill="#c3cad4" rx="1.5"/><rect x="537.0" y="77.0" width="300.0" height="46.0" fill="#f4f5f7"/><line x1="537.0" y1="123.0" x2="837.0" y2="123.0" stroke="#e3e7ed" stroke-width="1.1" stroke-linecap="butt"/><path d="M559.50,93.75 L553.25,100.00 L559.50,106.25" fill="none" stroke="#1f2328" stroke-width="1.5833333333333333" stroke-linecap="round" stroke-linejoin="round"/><circle cx="811.5" cy="97.1" r="2.7" fill="none" stroke="#1f2328" stroke-width="1.5833333333333333"/><path d="M806.33,107.08 L806.42,106.13 L806.68,105.22 L807.11,104.36 L807.68,103.60 L808.39,102.96 L809.20,102.46 L810.09,102.11 L811.02,101.94 L811.98,101.94 L812.91,102.11 L813.80,102.46 L814.61,102.96 L815.32,103.60 L815.89,104.36 L816.32,105.22 L816.58,106.13 L816.67,107.08" fill="none" stroke="#1f2328" stroke-width="1.5833333333333333" stroke-linecap="round" stroke-linejoin="round"/><circle cx="818.6" cy="96.7" r="2.0" fill="none" stroke="#1f2328" stroke-width="1.5833333333333333"/><path d="M815.23,104.94 L815.54,104.29 L815.96,103.71 L816.49,103.22 L817.10,102.83 L817.77,102.57 L818.47,102.43 L819.19,102.43 L819.90,102.57 L820.57,102.83 L821.18,103.22 L821.70,103.71 L822.13,104.29 L822.44,104.94" fill="none" stroke="#1f2328" stroke-width="1.5833333333333333" stroke-linecap="round" stroke-linejoin="round"/><circle cx="784.0" cy="96.8" r="3.1" fill="none" stroke="#1f2328" stroke-width="1.5833333333333333"/><path d="M778.00,107.50 L778.10,106.40 L778.41,105.33 L778.90,104.34 L779.57,103.46 L780.38,102.71 L781.33,102.13 L782.36,101.73 L783.45,101.53 L784.55,101.53 L785.64,101.73 L786.67,102.13 L787.62,102.71 L788.43,103.46 L789.10,104.34 L789.59,105.33 L789.90,106.40 L790.00,107.50" fill="none" stroke="#1f2328" stroke-width="1.5833333333333333" stroke-linecap="round" stroke-linejoin="round"/><text x="593.0" y="105.0" font-size="13.5" fill="#1f2328" font-family="-apple-system, BlinkMacSystemFont, 'Hiragino Sans', 'Noto Sans JP', 'Yu Gothic', 'Segoe UI', sans-serif" font-weight="700">7月前半（7/1〜7/15）</text><defs><clipPath id="c101"><rect x="537.0" y="123.0" width="300.0" height="387.0" rx="0.0"/></clipPath></defs><g clip-path="url(#c101)"><rect x="551.0" y="133.0" width="132.0" height="30.0" fill="#f4f5f7" rx="8.0" stroke="#c3cad4" stroke-width="1.1"/><rect x="553.0" y="135.0" width="62.0" height="26.0" fill="#ffffff" rx="6.0" stroke="#c3cad4" stroke-width="1.0"/><text x="584.0" y="150.4" font-size="11.5" fill="#1f2328" font-family="-apple-system, BlinkMacSystemFont, 'Hiragino Sans', 'Noto Sans JP', 'Yu Gothic', 'Segoe UI', sans-serif" font-weight="600" text-anchor="middle">バー</text><text x="650.0" y="150.4" font-size="11.5" fill="#6b7280" font-family="-apple-system, BlinkMacSystemFont, 'Hiragino Sans', 'Noto Sans JP', 'Yu Gothic', 'Segoe UI', sans-serif" font-weight="400" text-anchor="middle">数値</text><rect x="691.0" y="133.0" width="132.0" height="30.0" fill="#f4f5f7" rx="8.0" stroke="#c3cad4" stroke-width="1.1"/><rect x="693.0" y="135.0" width="62.0" height="26.0" fill="#ffffff" rx="6.0" stroke="#c3cad4" stroke-width="1.0"/><text x="724.0" y="150.4" font-size="11.5" fill="#1f2328" font-family="-apple-system, BlinkMacSystemFont, 'Hiragino Sans', 'Noto Sans JP', 'Yu Gothic', 'Segoe UI', sans-serif" font-weight="600" text-anchor="middle">週</text><text x="790.0" y="150.4" font-size="11.5" fill="#6b7280" font-family="-apple-system, BlinkMacSystemFont, 'Hiragino Sans', 'Noto Sans JP', 'Yu Gothic', 'Segoe UI', sans-serif" font-weight="400" text-anchor="middle">1列</text><text x="551.0" y="185.2" font-size="12.5" fill="#1f2328" font-family="-apple-system, BlinkMacSystemFont, 'Hiragino Sans', 'Noto Sans JP', 'Yu Gothic', 'Segoe UI', sans-serif" font-weight="400"></text><text x="634.2" y="185.4" font-size="10.5" fill="#1f2328" font-family="-apple-system, BlinkMacSystemFont, 'Hiragino Sans', 'Noto Sans JP', 'Yu Gothic', 'Segoe UI', sans-serif" font-weight="400" text-anchor="middle">7/1</text><text x="688.8" y="185.4" font-size="10.5" fill="#1f2328" font-family="-apple-system, BlinkMacSystemFont, 'Hiragino Sans', 'Noto Sans JP', 'Yu Gothic', 'Segoe UI', sans-serif" font-weight="400" text-anchor="middle">7/2</text><text x="743.2" y="185.4" font-size="10.5" fill="#1f2328" font-family="-apple-system, BlinkMacSystemFont, 'Hiragino Sans', 'Noto Sans JP', 'Yu Gothic', 'Segoe UI', sans-serif" font-weight="400" text-anchor="middle">7/3</text><text x="797.8" y="185.4" font-size="10.5" fill="#1f2328" font-family="-apple-system, BlinkMacSystemFont, 'Hiragino Sans', 'Noto Sans JP', 'Yu Gothic', 'Segoe UI', sans-serif" font-weight="400" text-anchor="middle">7/4</text><text x="551.0" y="226.9" font-size="10.5" fill="#1f2328" font-family="-apple-system, BlinkMacSystemFont, 'Hiragino Sans', 'Noto Sans JP', 'Yu Gothic', 'Segoe UI', sans-serif" font-weight="400">あなた</text><rect x="609.0" y="206.0" width="50.5" height="40.0" fill="#ffffff" rx="8.0" stroke="#D5D9E0" stroke-width="1.4"/><text x="624.2" y="229.6" font-size="10.0" fill="#5A6070" font-family="-apple-system, BlinkMacSystemFont, 'Hiragino Sans', 'Noto Sans JP', 'Yu Gothic', 'Segoe UI', sans-serif" font-weight="600">早番</text><rect x="663.5" y="206.0" width="50.5" height="40.0" fill="#ffffff" rx="8.0" stroke="#D5D9E0" stroke-width="1.4"/><text x="683.8" y="229.6" font-size="10.0" fill="#5A6070" font-family="-apple-system, BlinkMacSystemFont, 'Hiragino Sans', 'Noto Sans JP', 'Yu Gothic', 'Segoe UI', sans-serif" font-weight="600">休</text><rect x="718.0" y="206.0" width="50.5" height="40.0" fill="#F0E6F8" rx="8.0" stroke="#DDC7EC" stroke-width="1.4"/><text x="733.2" y="229.6" font-size="10.0" fill="#7B4F9E" font-family="-apple-system, BlinkMacSystemFont, 'Hiragino Sans', 'Noto Sans JP', 'Yu Gothic', 'Segoe UI', sans-serif" font-weight="600">早番</text><rect x="772.5" y="206.0" width="50.5" height="40.0" fill="#E6EDFD" rx="8.0" stroke="#3B6EF5" stroke-width="1.4"/><text x="795.1" y="229.6" font-size="10.0" fill="#3B6EF5" font-family="-apple-system, BlinkMacSystemFont, 'Hiragino Sans', 'Noto Sans JP', 'Yu Gothic', 'Segoe UI', sans-serif" font-weight="600">—</text><text x="551.0" y="266.6" font-size="10.5" fill="#6b7280" font-family="-apple-system, BlinkMacSystemFont, 'Hiragino Sans', 'Noto Sans JP', 'Yu Gothic', 'Segoe UI', sans-serif" font-weight="400">編集中のマスは画面内に自動でスクロールされる。</text></g><rect x="537.0" y="510.0" width="300.0" height="185.0" fill="#ffffff"/><line x1="537.0" y1="510.0" x2="837.0" y2="510.0" stroke="#e3e7ed" stroke-width="1.1" stroke-linecap="butt"/><text x="551.0" y="538.8" font-size="12.5" fill="#1f2328" font-family="-apple-system, BlinkMacSystemFont, 'Hiragino Sans', 'Noto Sans JP', 'Yu Gothic', 'Segoe UI', sans-serif" font-weight="400">編集中: 7/4（4 / 15）</text><text x="749.8" y="542.5" font-size="12.5" fill="#3B6EF5" font-family="-apple-system, BlinkMacSystemFont, 'Hiragino Sans', 'Noto Sans JP', 'Yu Gothic', 'Segoe UI', sans-serif" font-weight="600">キャンセル</text><text x="551.0" y="572.6" font-size="10.5" fill="#6b7280" font-family="-apple-system, BlinkMacSystemFont, 'Hiragino Sans', 'Noto Sans JP', 'Yu Gothic', 'Segoe UI', sans-serif" font-weight="400">勤務帯をタップでこの日に登録 → 次の日へ進みます</text><text x="551.0" y="596.1" font-size="10.5" fill="#1f2328" font-family="-apple-system, BlinkMacSystemFont, 'Hiragino Sans', 'Noto Sans JP', 'Yu Gothic', 'Segoe UI', sans-serif" font-weight="400">現在: 未入力</text><rect x="551.0" y="611.0" width="44.0" height="26.0" fill="#ffffff" rx="13.0" stroke="#c3cad4" stroke-width="1.2"/><text x="573.0" y="626.0" font-size="11" fill="#6b7280" font-family="-apple-system, BlinkMacSystemFont, 'Hiragino Sans', 'Noto Sans JP', 'Yu Gothic', 'Segoe UI', sans-serif" font-weight="600" text-anchor="middle">早番</text><rect x="601.0" y="611.0" width="44.0" height="26.0" fill="#ffffff" rx="13.0" stroke="#c3cad4" stroke-width="1.2"/><text x="623.0" y="626.0" font-size="11" fill="#6b7280" font-family="-apple-system, BlinkMacSystemFont, 'Hiragino Sans', 'Noto Sans JP', 'Yu Gothic', 'Segoe UI', sans-serif" font-weight="600" text-anchor="middle">遅番</text><rect x="651.0" y="611.0" width="66.0" height="26.0" fill="#ffffff" rx="13.0" stroke="#c3cad4" stroke-width="1.2"/><text x="684.0" y="626.0" font-size="11" fill="#6b7280" font-family="-apple-system, BlinkMacSystemFont, 'Hiragino Sans', 'Noto Sans JP', 'Yu Gothic', 'Segoe UI', sans-serif" font-weight="600" text-anchor="middle">自由時間</text><rect x="723.0" y="611.0" width="44.0" height="26.0" fill="#ffffff" rx="13.0" stroke="#c3cad4" stroke-width="1.2"/><text x="745.0" y="626.0" font-size="11" fill="#6b7280" font-family="-apple-system, BlinkMacSystemFont, 'Hiragino Sans', 'Noto Sans JP', 'Yu Gothic', 'Segoe UI', sans-serif" font-weight="600" text-anchor="middle">休み</text><text x="574.9" y="669.5" font-size="12.5" fill="#3B6EF5" font-family="-apple-system, BlinkMacSystemFont, 'Hiragino Sans', 'Noto Sans JP', 'Yu Gothic', 'Segoe UI', sans-serif" font-weight="600">前の日</text><text x="668.2" y="669.5" font-size="12.5" fill="#3B6EF5" font-family="-apple-system, BlinkMacSystemFont, 'Hiragino Sans', 'Noto Sans JP', 'Yu Gothic', 'Segoe UI', sans-serif" font-weight="600">次の日</text><rect x="737.7" y="645.0" width="85.3" height="40.0" fill="#3B6EF5" rx="8.0"/><path d="M759.52,665.35 L763.06,669.25 L770.15,660.75" fill="none" stroke="#ffffff" stroke-width="1.3458333333333334" stroke-linecap="round" stroke-linejoin="round"/><text x="779.3" y="669.5" font-size="12.5" fill="#ffffff" font-family="-apple-system, BlinkMacSystemFont, 'Hiragino Sans', 'Noto Sans JP', 'Yu Gothic', 'Segoe UI', sans-serif" font-weight="600">保存</text></g><path d="M823.0,226.0 H852.0 V226.0 H854.0" fill="none" stroke="#d1483b" stroke-width="1.0" stroke-linecap="round" stroke-linejoin="round"/><circle cx="823.0" cy="226.0" r="2.0" fill="#d1483b"/><circle cx="864.0" cy="226.0" r="9.5" fill="#d1483b"/><text x="864.0" y="229.8" font-size="11" fill="#ffffff" font-family="-apple-system, BlinkMacSystemFont, 'Hiragino Sans', 'Noto Sans JP', 'Yu Gothic', 'Segoe UI', sans-serif" font-weight="700" text-anchor="middle">6</text><line x1="898.0" y1="375.0" x2="936.0" y2="375.0" stroke="#9aa3af" stroke-width="1.6" stroke-linecap="round"/><path d="M930.0,370.0 l6,5 l-6,5" fill="none" stroke="#9aa3af" stroke-width="1.6" stroke-linecap="round" stroke-linejoin="round"/><rect x="992.0" y="26.0" width="21.2" height="17.0" fill="#3B6EF5" rx="8.5"/><text x="1002.6" y="38.0" font-size="10" fill="#ffffff" font-family="-apple-system, BlinkMacSystemFont, 'Hiragino Sans', 'Noto Sans JP', 'Yu Gothic', 'Segoe UI', sans-serif" font-weight="700" text-anchor="middle">3</text><rect x="992.0" y="48.0" width="314.0" height="654.0" fill="#ffffff" rx="26.0" stroke="#c3cad4" stroke-width="1.6"/><defs><clipPath id="s200"><rect x="999.0" y="55.0" width="300.0" height="640.0" rx="19.0"/></clipPath></defs><g clip-path="url(#s200)"><rect x="999.0" y="55.0" width="300.0" height="640.0" fill="#ffffff"/><text x="1011.0" y="70.0" font-size="9.5" fill="#6b7280" font-family="-apple-system, BlinkMacSystemFont, 'Hiragino Sans', 'Noto Sans JP', 'Yu Gothic', 'Segoe UI', sans-serif" font-weight="700">9:41</text><rect x="1255.0" y="66.0" width="10.0" height="6.2" fill="#c3cad4" rx="1.5"/><rect x="1269.0" y="65.0" width="10.0" height="7.5" fill="#c3cad4" rx="1.5"/><rect x="1283.0" y="63.0" width="10.0" height="10.0" fill="#c3cad4" rx="1.5"/><rect x="999.0" y="77.0" width="300.0" height="46.0" fill="#f4f5f7"/><line x1="999.0" y1="123.0" x2="1299.0" y2="123.0" stroke="#e3e7ed" stroke-width="1.1" stroke-linecap="butt"/><path d="M1021.50,93.75 L1015.25,100.00 L1021.50,106.25" fill="none" stroke="#1f2328" stroke-width="1.5833333333333333" stroke-linecap="round" stroke-linejoin="round"/><circle cx="1273.5" cy="97.1" r="2.7" fill="none" stroke="#1f2328" stroke-width="1.5833333333333333"/><path d="M1268.33,107.08 L1268.42,106.13 L1268.68,105.22 L1269.11,104.36 L1269.68,103.60 L1270.39,102.96 L1271.20,102.46 L1272.09,102.11 L1273.02,101.94 L1273.98,101.94 L1274.91,102.11 L1275.80,102.46 L1276.61,102.96 L1277.32,103.60 L1277.89,104.36 L1278.32,105.22 L1278.58,106.13 L1278.67,107.08" fill="none" stroke="#1f2328" stroke-width="1.5833333333333333" stroke-linecap="round" stroke-linejoin="round"/><circle cx="1280.6" cy="96.7" r="2.0" fill="none" stroke="#1f2328" stroke-width="1.5833333333333333"/><path d="M1277.23,104.94 L1277.54,104.29 L1277.96,103.71 L1278.49,103.22 L1279.10,102.83 L1279.77,102.57 L1280.47,102.43 L1281.19,102.43 L1281.90,102.57 L1282.57,102.83 L1283.18,103.22 L1283.70,103.71 L1284.13,104.29 L1284.44,104.94" fill="none" stroke="#1f2328" stroke-width="1.5833333333333333" stroke-linecap="round" stroke-linejoin="round"/><circle cx="1246.0" cy="96.8" r="3.1" fill="none" stroke="#1f2328" stroke-width="1.5833333333333333"/><path d="M1240.00,107.50 L1240.10,106.40 L1240.41,105.33 L1240.90,104.34 L1241.57,103.46 L1242.38,102.71 L1243.33,102.13 L1244.36,101.73 L1245.45,101.53 L1246.55,101.53 L1247.64,101.73 L1248.67,102.13 L1249.62,102.71 L1250.43,103.46 L1251.10,104.34 L1251.59,105.33 L1251.90,106.40 L1252.00,107.50" fill="none" stroke="#1f2328" stroke-width="1.5833333333333333" stroke-linecap="round" stroke-linejoin="round"/><text x="1055.0" y="105.0" font-size="13.5" fill="#1f2328" font-family="-apple-system, BlinkMacSystemFont, 'Hiragino Sans', 'Noto Sans JP', 'Yu Gothic', 'Segoe UI', sans-serif" font-weight="700">7月前半（7/1〜7/15）</text><defs><clipPath id="c201"><rect x="999.0" y="123.0" width="300.0" height="468.0" rx="0.0"/></clipPath></defs><g clip-path="url(#c201)"><text x="1013.0" y="143.2" font-size="12.5" fill="#1f2328" font-family="-apple-system, BlinkMacSystemFont, 'Hiragino Sans', 'Noto Sans JP', 'Yu Gothic', 'Segoe UI', sans-serif" font-weight="400"></text><text x="1096.2" y="143.4" font-size="10.5" fill="#1f2328" font-family="-apple-system, BlinkMacSystemFont, 'Hiragino Sans', 'Noto Sans JP', 'Yu Gothic', 'Segoe UI', sans-serif" font-weight="400" text-anchor="middle">7/12</text><text x="1150.8" y="143.4" font-size="10.5" fill="#1f2328" font-family="-apple-system, BlinkMacSystemFont, 'Hiragino Sans', 'Noto Sans JP', 'Yu Gothic', 'Segoe UI', sans-serif" font-weight="400" text-anchor="middle">7/13</text><text x="1205.2" y="143.4" font-size="10.5" fill="#1f2328" font-family="-apple-system, BlinkMacSystemFont, 'Hiragino Sans', 'Noto Sans JP', 'Yu Gothic', 'Segoe UI', sans-serif" font-weight="400" text-anchor="middle">7/14</text><text x="1259.8" y="143.4" font-size="10.5" fill="#1f2328" font-family="-apple-system, BlinkMacSystemFont, 'Hiragino Sans', 'Noto Sans JP', 'Yu Gothic', 'Segoe UI', sans-serif" font-weight="400" text-anchor="middle">7/15</text><text x="1013.0" y="184.9" font-size="10.5" fill="#1f2328" font-family="-apple-system, BlinkMacSystemFont, 'Hiragino Sans', 'Noto Sans JP', 'Yu Gothic', 'Segoe UI', sans-serif" font-weight="400">あなた</text><rect x="1071.0" y="164.0" width="50.5" height="40.0" fill="#F0E6F8" rx="8.0" stroke="#DDC7EC" stroke-width="1.4"/><text x="1086.2" y="187.6" font-size="10.0" fill="#7B4F9E" font-family="-apple-system, BlinkMacSystemFont, 'Hiragino Sans', 'Noto Sans JP', 'Yu Gothic', 'Segoe UI', sans-serif" font-weight="600">早番</text><rect x="1125.5" y="164.0" width="50.5" height="40.0" fill="#F0E6F8" rx="8.0" stroke="#DDC7EC" stroke-width="1.4"/><text x="1145.8" y="187.6" font-size="10.0" fill="#7B4F9E" font-family="-apple-system, BlinkMacSystemFont, 'Hiragino Sans', 'Noto Sans JP', 'Yu Gothic', 'Segoe UI', sans-serif" font-weight="600">休</text><rect x="1180.0" y="164.0" width="50.5" height="40.0" fill="#F0E6F8" rx="8.0" stroke="#DDC7EC" stroke-width="1.4"/><text x="1195.2" y="187.6" font-size="10.0" fill="#7B4F9E" font-family="-apple-system, BlinkMacSystemFont, 'Hiragino Sans', 'Noto Sans JP', 'Yu Gothic', 'Segoe UI', sans-serif" font-weight="600">遅番</text><rect x="1234.5" y="164.0" width="50.5" height="40.0" fill="#F0E6F8" rx="8.0" stroke="#DDC7EC" stroke-width="1.4"/><text x="1249.8" y="187.6" font-size="10.0" fill="#7B4F9E" font-family="-apple-system, BlinkMacSystemFont, 'Hiragino Sans', 'Noto Sans JP', 'Yu Gothic', 'Segoe UI', sans-serif" font-weight="600">早番</text><text x="1013.0" y="224.6" font-size="10.5" fill="#6b7280" font-family="-apple-system, BlinkMacSystemFont, 'Hiragino Sans', 'Noto Sans JP', 'Yu Gothic', 'Segoe UI', sans-serif" font-weight="400">紫＝入力したが未保存。青い枠はもう無い（編集対象の</text><text x="1013.0" y="240.1" font-size="10.5" fill="#6b7280" font-family="-apple-system, BlinkMacSystemFont, 'Hiragino Sans', 'Noto Sans JP', 'Yu Gothic', 'Segoe UI', sans-serif" font-weight="400">日が無いため）。</text></g><rect x="999.0" y="591.0" width="300.0" height="104.0" fill="#ffffff"/><line x1="999.0" y1="591.0" x2="1299.0" y2="591.0" stroke="#e3e7ed" stroke-width="1.1" stroke-linecap="butt"/><text x="1013.0" y="619.8" font-size="12.5" fill="#1f2328" font-family="-apple-system, BlinkMacSystemFont, 'Hiragino Sans', 'Noto Sans JP', 'Yu Gothic', 'Segoe UI', sans-serif" font-weight="400">すべての日を確認しました</text><text x="1211.8" y="623.5" font-size="12.5" fill="#3B6EF5" font-family="-apple-system, BlinkMacSystemFont, 'Hiragino Sans', 'Noto Sans JP', 'Yu Gothic', 'Segoe UI', sans-serif" font-weight="600">キャンセル</text><text x="1036.9" y="669.5" font-size="12.5" fill="#3B6EF5" font-family="-apple-system, BlinkMacSystemFont, 'Hiragino Sans', 'Noto Sans JP', 'Yu Gothic', 'Segoe UI', sans-serif" font-weight="600">前の日</text><g opacity="0.42"><text x="1130.2" y="669.5" font-size="12.5" fill="#3B6EF5" font-family="-apple-system, BlinkMacSystemFont, 'Hiragino Sans', 'Noto Sans JP', 'Yu Gothic', 'Segoe UI', sans-serif" font-weight="600">次の日</text></g><rect x="1199.7" y="645.0" width="85.3" height="40.0" fill="#3B6EF5" rx="8.0"/><path d="M1221.52,665.35 L1225.06,669.25 L1232.15,660.75" fill="none" stroke="#ffffff" stroke-width="1.3458333333333334" stroke-linecap="round" stroke-linejoin="round"/><text x="1241.3" y="669.5" font-size="12.5" fill="#ffffff" font-family="-apple-system, BlinkMacSystemFont, 'Hiragino Sans', 'Noto Sans JP', 'Yu Gothic', 'Segoe UI', sans-serif" font-weight="600">保存</text></g><path d="M1285.0,665.0 H1314.0 V665.0 H1316.0" fill="none" stroke="#2b7a6f" stroke-width="1.0" stroke-linecap="round" stroke-linejoin="round"/><circle cx="1285.0" cy="665.0" r="2.0" fill="#2b7a6f"/><rect x="1316.5" y="655.5" width="19.0" height="19.0" fill="#2b7a6f" rx="5.0"/><text x="1326.0" y="668.8" font-size="11" fill="#ffffff" font-family="-apple-system, BlinkMacSystemFont, 'Hiragino Sans', 'Noto Sans JP', 'Yu Gothic', 'Segoe UI', sans-serif" font-weight="700" text-anchor="middle">8</text><path d="M1013.0,619.0 H984.0 V619.0 H982.0" fill="none" stroke="#d1483b" stroke-width="1.0" stroke-linecap="round" stroke-linejoin="round"/><circle cx="1013.0" cy="619.0" r="2.0" fill="#d1483b"/><circle cx="972.0" cy="619.0" r="9.5" fill="#d1483b"/><text x="972.0" y="622.8" font-size="11" fill="#ffffff" font-family="-apple-system, BlinkMacSystemFont, 'Hiragino Sans', 'Noto Sans JP', 'Yu Gothic', 'Segoe UI', sans-serif" font-weight="700" text-anchor="middle">7</text></svg>